SplineFontDB: 3.0
FontName: LinLibertineSlantedO
FullName: Linux Libertine Slanted O
FamilyName: Linux Libertine Slanted O
Weight: Book
Copyright: Linux Libertine by Philipp H. Poll,\nOpen Font under Terms of following Free Software Licenses:\nGPL (General Public License) with font-exception and OFL (Open Font License).\nCreated with FontForge (http://fontforge.sf.net)\nSept 2003, 2004, 2005, 2006, 2007, 2008, 2009, 2010
UComments: "2003-08-29: Created.+AAoA-2004-07-25: v(1.0) release candidate+AAoA-2005-12-28: v(1.1.0) stable+AAoA-2006-01-01: v(2.0.0) stable+AAoA-2006-09-05: v(2.2.0) stable+AAoA-2006-12-04: v(2.3.0) stable+AAoA-2007-03-11: v(2.4.0) stable+AAoA-2007-12-00: v(2.7.0) stable+AAoA-2008-06-00: v(2.8.14) stable+AAoA" 
Version: 4.6.5
ItalicAngle: 0
UnderlinePosition: -98
UnderlineWidth: 40
Ascent: 754
Descent: 246
LayerCount: 2
Layer: 0 0 "Back"  1
Layer: 1 0 "Fore"  0
NeedsXUIDChange: 1
XUID: [1021 993 1524925707 2876416]
FSType: 0
OS2Version: 0
OS2_WeightWidthSlopeOnly: 0
OS2_UseTypoMetrics: 0
CreationTime: 1156455862
ModificationTime: 1265870574
PfmFamily: 17
TTFWeight: 400
TTFWidth: 5
LineGap: 0
VLineGap: 0
OS2TypoAscent: 894
OS2TypoAOffset: 0
OS2TypoDescent: -246
OS2TypoDOffset: 0
OS2TypoLinegap: 0
OS2WinAscent: 894
OS2WinAOffset: 0
OS2WinDescent: 246
OS2WinDOffset: 0
HheadAscent: 894
HheadAOffset: 0
HheadDescent: -246
HheadDOffset: 0
OS2FamilyClass: 261
OS2Vendor: 'PfEd'
Lookup: 3 0 0 "'aalt' Alle Alternativen zeigen"  {"'aalt' Alle Alternativen zeigen 1"  } ['aalt' ('DFLT' <'dflt' > 'cyrl' <'dflt' > 'grek' <'dflt' > 'latn' <'AZE ' 'CRT ' 'DEU ' 'MOL ' 'ROM ' 'TRK ' 'dflt' > ) ]
Lookup: 1 0 0 "'locl' Localized Forms Romaenisch"  {"'locl' Localized Forms Romaenisch 1"  } ['locl' ('latn' <'MOL ' 'ROM ' > ) ]
Lookup: 1 0 0 "'smcp' Gemeine nach Kapitaelchen i > i.sc"  {"'smcp' Gemeine nach Kapitaelchen i > i.sc 1"  } ['smcp' ('DFLT' <'dflt' > 'cyrl' <'dflt' > 'grek' <'dflt' > 'latn' <'DEU ' 'MOL ' 'ROM ' 'dflt' > ) ]

StartChar: exclam
Encoding: 33 33 0
Width: 228
VWidth: 999
Flags: HW
HStem: -10 106<71.6089 156.391> 638 20G<102 126>
VStem: 61 106<0.608917 85.3911 411.697 645.75>
LayerCount: 2
Fore
SplineSet
253.862 658 m 0
 277.862 658 302.823 639 291.346 585 c 0
 277.529 520 254.802 478 226.322 392 c 0
 190.566 284 177.612 224 172.637 210 c 0
 169.299 199 164.386 190 154.386 190 c 0
 144.386 190 142.874 197 143.149 203 c 0
 145.612 224 158.743 314 167.322 392 c 0
 177.027 480 170.467 515 185.346 585 c 0
 196.823 639 229.862 658 253.862 658 c 0
70.1396 43 m 0
 76.3037 72 105.405 96 134.405 96 c 0
 163.405 96 182.304 72 176.14 43 c 0
 169.976 14 140.874 -10 111.874 -10 c 0
 82.874 -10 63.9756 14 70.1396 43 c 0
EndSplineSet
Colour: ff9ccc
EndChar

StartChar: quotedbl
Encoding: 34 34 1
Width: 336
VWidth: 999
Flags: HW
HStem: 426 218<85.8119 118.678> 427 218<211.812 244.678>
VStem: 63 86<487.695 633.98> 189 86<488.695 634.98>
LayerCount: 2
Fore
SplineSet
305.762 427 m 1
 305.762 427 313.559 586 315.471 595 c 0
 320.147 617 347.099 645 377.099 645 c 0
 403.099 645 408.485 628 405.085 612 c 0
 401.684 596 333.612 431 333.612 431 c 1
 305.762 427 l 1
179.549 426 m 1
 179.549 426 187.346 585 189.259 594 c 0
 193.935 616 220.887 644 250.887 644 c 0
 276.887 644 282.273 627 278.872 611 c 0
 275.471 595 207.399 430 207.399 430 c 1
 179.549 426 l 1
EndSplineSet
Colour: ff00ff
EndChar

StartChar: numbersign
Encoding: 35 35 2
Width: 440
VWidth: 487
Flags: HW
HStem: 182 50<32 113 156 255 299 382> 341 50<58 138 181 281 324 407>
DStem2: 86 13 121 13 0.158835 0.987305<5.55923 171.143 227.338 332.095 388.291 553.875> 229 13 265 13 0.155313 0.987865<5.59128 170.987 227.214 332.096 388.168 553.719>
LayerCount: 2
Fore
SplineSet
313.313 232 m 1
 353.481 341 l 1
 246.481 341 l 1
 205.313 232 l 1
 313.313 232 l 1
389.481 341 m 1
 348.313 232 l 1
 438.313 232 l 1
 420.686 182 l 1
 331.686 182 l 1
 267.764 13 l 1
 231.764 13 l 1
 293.686 182 l 1
 187.686 182 l 1
 123.764 13 l 1
 88.7637 13 l 1
 151.686 182 l 1
 63.6855 182 l 1
 81.3135 232 l 1
 170.313 232 l 1
 210.481 341 l 1
 122.481 341 l 1
 141.109 391 l 1
 229.109 391 l 1
 292.031 560 l 1
 328.031 560 l 1
 264.109 391 l 1
 372.109 391 l 1
 434.031 560 l 1
 470.031 560 l 1
 407.109 391 l 1
 498.109 391 l 1
 479.481 341 l 1
 389.481 341 l 1
EndSplineSet
EndChar

StartChar: dollar
Encoding: 36 36 3
Width: 440
VWidth: 999
Flags: HW
HStem: -10 33<148.6 275.43> 1 21G<58 68.5> 542 30<160.039 276.129>
VStem: 42 26<115.775 146.808> 46 64<387.132 501.756> 198 34<-81 627> 328 72<70.3563 197.557> 342 26<419.923 435>
LayerCount: 2
Fore
SplineSet
94.5508 12 m 0
 78.5508 12 79.2129 1 58.2129 1 c 1
 66.0771 38 69.1299 90 73.0332 146 c 1
 102.671 149 l 1
 105.339 89.0996 138.77 34.2002 203.208 24.5 c 1
 254.157 264.2 l 1
 200.305 290.3 116.313 330.8 137.187 429 c 0
 155.509 515.2 243.876 563.5 319.37 571 c 1
 331.273 627 l 1
 365.273 627 l 1
 353.54 571.8 l 1
 401.806 570.7 430.382 564 467.882 564 c 1
 461.316 519 459.901 470 457.486 421 c 1
 427.636 417 l 1
 426.462 435 l 1
 420.43 499.3 398.627 534.1 346.95 540.8 c 1
 301.569 327.3 l 1
 353.657 305.6 454.755 257.6 433.159 156 c 0
 426.251 123.5 387.562 1.7002 230.045 -9.2002 c 1
 214.783 -81 l 1
 180.783 -81 l 1
 195.917 -9.7998 l 1
 138.806 -7.5 114.351 12 94.5508 12 c 0
285.33 250.9 m 1
 237.037 23.7002 l 1
 276.509 27.7998 338.861 51.0996 354.995 127 c 0
 371.936 206.7 322.472 235.1 285.33 250.9 c 1
270.546 341.3 m 1
 313.015 541.1 l 1
 263.739 535.1 215.896 498.2 203.1 438 c 0
 193.131 391.1 235.593 359.4 270.546 341.3 c 1
EndSplineSet
EndChar

StartChar: percent
Encoding: 37 37 4
Width: 637
VWidth: 999
Flags: HW
HStem: -12 31<446.255 513.747> 225 31<488.273 551.957> 303 31<124.294 192.057> 484 37<279.857 459.046> 540 31<166.55 231.846>
VStem: 57 54<341.762 480.46> 244 33<402.471 504.773> 378 55<26.327 164.53> 565 33<87.2343 214.183>
DStem2: 102 3 136 -12 0.584454 0.811427<7.70004 615.532 651.531 704.931>
LayerCount: 2
Fore
SplineSet
450.643 83 m 0
 439.589 31 462.039 19 481.039 19 c 0
 536.039 19 587.956 108 599.859 164 c 0
 610.912 216 584.825 225 570.825 225 c 0
 521.825 225 462.971 141 450.643 83 c 0
398.83 98 m 0
 416.26 180 492.414 256 566.414 256 c 0
 606.414 256 648.589 238 633.072 165 c 0
 618.83 98 551.449 -12 468.449 -12 c 0
 407.449 -12 387.565 45 398.83 98 c 0
474.742 521 m 0
 516.742 521 596.293 533 636.22 575 c 1
 664.819 559 l 1
 133.449 -12 l 1
 102.638 3 l 1
 567.916 503 l 1
 526.728 488 486.877 484 456.877 484 c 0
 433.877 484 398.003 494 381.341 505 c 1
 381.854 498 380.94 489 379.027 480 c 0
 365.424 416 297.404 303 213.404 303 c 0
 151.404 303 133.732 361 144.573 412 c 0
 163.3 500.1 239.37 571 311.37 571 c 0
 339.37 571 365.606 558 373.056 546 c 1
 421.742 521 456.742 521 474.742 521 c 0
195.598 398 m 0
 184.545 346 207.994 334 225.994 334 c 0
 280.994 334 333.486 421 345.814 479 c 0
 356.442 529 333.78 540 315.78 540 c 0
 266.78 540 207.926 456 195.598 398 c 0
EndSplineSet
EndChar

StartChar: parenleft
Encoding: 40 40 5
Width: 298
VWidth: 999
Flags: HW
VStem: 44 83<97.6984 405.148>
LayerCount: 2
Fore
SplineSet
97.5645 252 m 0
 137.1 438 265.597 605 406.277 707 c 1
 417.508 706.2 422.241 699.3 423.451 689 c 1
 383.8 653 236.467 515 180.564 252 c 0
 124.662 -11 212.329 -149 237.252 -187 c 1
 232.552 -195 223.063 -202 212.639 -204 c 1
 42.8984 -24 87.999 207 97.5645 252 c 0
EndSplineSet
Substitution2: "'c2sc' Versale nach Kapitaelchen 1" parenleft.sc
AlternateSubs2: "'aalt' Alle Alternativen zeigen 1" parenleft.sc
Substitution2: "'sinf' Wissenschaftliche Indices 1" parenleft.inferior
Substitution2: "'sups' Hochgestellte 1" parenleft.superior
Substitution2: "'case' Versalformen 1" parenleft.sc
EndChar

StartChar: parenright
Encoding: 41 41 6
Width: 298
VWidth: 999
Flags: HW
VStem: 171 83<98.8522 406.302>
LayerCount: 2
Fore
SplineSet
307.564 252 m 0
 268.028 66 139.532 -101 -1.14941 -203 c 1
 -12.3789 -202.2 -17.1123 -195.3 -18.3232 -185 c 1
 21.3291 -149 168.662 -11 224.564 252 c 0
 280.467 515 192.8 653 167.877 691 c 1
 172.577 699 182.064 706 192.49 708 c 1
 362.229 528 317.129 297 307.564 252 c 0
EndSplineSet
Substitution2: "'c2sc' Versale nach Kapitaelchen 1" parenright.sc
AlternateSubs2: "'aalt' Alle Alternativen zeigen 1" parenright.sc
Substitution2: "'sinf' Wissenschaftliche Indices 1" parenright.inferior
Substitution2: "'sups' Hochgestellte 1" parenright.superior
Substitution2: "'case' Versalformen 1" parenright.sc
Colour: ff00ff
EndChar

StartChar: asterisk
Encoding: 42 42 7
Width: 369
VWidth: 999
Flags: HMW
LayerCount: 2
Fore
SplineSet
284.269 547 m 1
 271.906 550 258.119 551 243.119 551 c 0
 194.119 551 163.606 558 169.983 588 c 0
 172.959 602 185.36 618 209.36 618 c 0
 243.36 618 254.346 585 294.52 567 c 1
 298.81 606 285.548 633 291.075 659 c 0
 295.538 680 311.364 698 329.364 698 c 0
 347.364 698 360.026 687 354.925 663 c 0
 349.186 636 323.684 596 315.307 566 c 1
 365.559 586 388.36 618 421.36 618 c 0
 448.36 618 451.108 598 448.983 588 c 0
 442.606 558 406.119 551 372.119 551 c 0
 353.119 551 334.906 550 316.269 547 c 1
 342.404 510 389.278 500 380.776 460 c 0
 376.95 442 359.612 431 345.612 431 c 0
 306.612 431 313.428 496 296.718 535 c 1
 262.152 490 242.612 431 204.612 431 c 0
 187.612 431 178.375 444 181.563 459 c 0
 190.703 502 243.404 510 284.269 547 c 1
EndSplineSet
EndChar

StartChar: plus
Encoding: 43 43 8
Width: 527
VWidth: 999
Flags: HMW
HStem: 208 49<66 238 289 461>
VStem: 238 51<34 208 257 431>
LayerCount: 2
Fore
SplineSet
343.627 257 m 1
 515.627 257 l 1
 505.212 208 l 1
 333.212 208 l 1
 296.227 34 l 1
 245.227 34 l 1
 282.212 208 l 1
 110.212 208 l 1
 120.627 257 l 1
 292.627 257 l 1
 329.612 431 l 1
 380.612 431 l 1
 343.627 257 l 1
EndSplineSet
AlternateSubs2: "'aalt' Alle Alternativen zeigen 1" plus.superior plus.inferior uni2098
Substitution2: "'sinf' Wissenschaftliche Indices 1" plus.inferior
Substitution2: "'sups' Hochgestellte 1" plus.superior
EndChar

StartChar: slash
Encoding: 47 47 9
Width: 323
VWidth: 999
Flags: HW
HStem: 626 20G<245.277 293>
VStem: 15 278
LayerCount: 2
Fore
SplineSet
430.312 646 m 1
 43.459 -59 l 1
 2.45898 -59 l 1
 389.312 646 l 1
 430.312 646 l 1
EndSplineSet
Substitution2: "'sups' Hochgestellte 1" fraction
Ligature2: "'frac' Brueche 1" uni2215
AlternateSubs2: "'aalt' Alle Alternativen zeigen 1" uni2215
EndChar

StartChar: one
Encoding: 49 49 10
Width: 440
VWidth: 999
Flags: HW
HStem: -2 33<120.625 193.75 305.25 378.375> 558 20G<257.333 286.75>
VStem: 211 77<43.3808 475.982>
LayerCount: 2
Fore
SplineSet
313.932 122 m 2
 296.29 39 312.227 34 381.589 31 c 1
 386.313 25 381.851 4 374.575 -2 c 1
 324.787 -1 301 0 253 0 c 0
 203 0 172.787 -1 123.575 -2 c 1
 118.851 4 123.313 25 130.589 31 c 1
 201.227 34 219.29 39 236.932 122 c 2
 299.849 418 l 2
 307.075 452 308.677 476 292.177 476 c 0
 273.177 476 249.401 470 199.863 451 c 1
 192.159 457.1 189.779 466.6 190.602 478 c 1
 287.316 519 345.267 543.7 407.857 578 c 1
 411.357 578 413.815 577.8 412.795 573 c 0
 408.332 560 394.065 499 381.312 439 c 2
 313.932 122 l 2
EndSplineSet
Substitution2: "'case' Versalformen 1" one.cap
AlternateSubs2: "'aalt' Alle Alternativen zeigen 1" one.oldstyle one.superior one.fitted
Substitution2: "'sups' Hochgestellte 1" one.superior
Substitution2: "'sinf' Wissenschaftliche Indices 1" one.inferior
Substitution2: "'pnum' Proportionalziffern 1" one.fitted
Substitution2: "'onum' Minuskelziffern 1" one.taboldstyle
EndChar

StartChar: two
Encoding: 50 50 11
Width: 440
VWidth: 487
Flags: HMW
HStem: 0 62<128 337.228> 545 33<149.941 262.939>
VStem: 59 70<426.251 508.319> 305 83<352.993 507.379>
DStem2: 157 194 198 176 0.718358 0.695673<-92.5312 203.585>
LayerCount: 2
Fore
SplineSet
153.162 443 m 0
 165.278 500 236.857 578 341.857 578 c 0
 418.857 578 501.931 536 480.25 434 c 0
 464.945 362 414.961 320.2 349.965 268 c 2
 235.41 176 l 2
 229.348 171 150.743 107 141.179 62 c 1
 309.179 62 l 2
 343.179 62 365.067 85 395.309 152 c 1
 404.991 153.8 416.521 153 421.458 148 c 1
 414.507 120 388.902 48 366.575 -2 c 1
 366.575 -2 323 0 293 0 c 2
 128 0 l 2
 98 0 48.5752 -2 48.5752 -2 c 1
 60.4785 54 85.043 99 198.236 194 c 1
 282.902 263 l 1
 351.019 320 383.434 369 396.399 430 c 0
 415.742 521 362.844 545 328.844 545 c 0
 259.844 545 237.616 511 232.515 487 c 0
 230.814 479 231.114 471 231.626 464 c 0
 232.139 457 232.65 450 230.95 442 c 0
 225.424 416 201.298 406 185.298 406 c 0
 163.298 406 148.911 423 153.162 443 c 0
EndSplineSet
Substitution2: "'case' Versalformen 1" two.cap
AlternateSubs2: "'aalt' Alle Alternativen zeigen 1" two.oldstyle two.superior two.fitted
Substitution2: "'sups' Hochgestellte 1" two.superior
Substitution2: "'sinf' Wissenschaftliche Indices 1" two.inferior
Substitution2: "'pnum' Proportionalziffern 1" two.fitted
Substitution2: "'onum' Minuskelziffern 1" two.taboldstyle
EndChar

StartChar: three
Encoding: 51 51 12
Width: 440
VWidth: 487
Flags: HW
HStem: -10 33<142.546 244.57> 300 30<150.067 191.437> 545 33<149.204 258.298>
VStem: 48 69<426.99 509.141> 287 73<409.571 522.97> 311 84<99.1924 261.167>
LayerCount: 2
Fore
SplineSet
322.844 545 m 0
 297.844 545 230.293 533 217.327 472 c 0
 213.501 454 196.911 423 169.911 423 c 0
 146.911 423 141.95 442 144.713 455 c 0
 151.303 486 210.857 578 349.857 578 c 0
 446.857 578 469.892 517 461.39 477 c 0
 454.588 445 440.447 402 338.332 345 c 1
 338.907 343 l 1
 392.83 333.7 457.576 294.4 435.599 191 c 0
 409.028 66 292.874 -10 179.874 -10 c 0
 122.874 -10 48.1885 15 56.2656 53 c 0
 59.4541 68 83.2803 86 103.28 86 c 0
 122.28 86 132.941 75 139.179 62 c 0
 146.565 45 150.889 23 198.889 23 c 0
 231.889 23 322.053 52 348.835 178 c 0
 371.578 285 310.192 302 256.192 302 c 0
 244.192 302 231.192 302 214.767 300 c 1
 217.144 330 l 1
 304.907 343 375.636 417 385.414 463 c 0
 397.954 522 364.844 545 322.844 545 c 0
EndSplineSet
Substitution2: "'case' Versalformen 1" three.cap
AlternateSubs2: "'aalt' Alle Alternativen zeigen 1" three.oldstyle three.superior three.fitted
Substitution2: "'sups' Hochgestellte 1" three.superior
Substitution2: "'sinf' Wissenschaftliche Indices 1" three.inferior
Substitution2: "'pnum' Proportionalziffern 1" three.fitted
Substitution2: "'onum' Minuskelziffern 1" three.taboldstyle
EndChar

StartChar: four
Encoding: 52 52 13
Width: 440
VWidth: 487
Flags: HW
HStem: -2 33<179.625 249.507 332.265 393.375> 153 45<81 259 327 419.054> 558 20G<298.806 331>
VStem: 259 68<38.7447 153 198 381.915>
DStem2: 25 196 81 198 0.576513 0.817088<33.9189 480.706>
LayerCount: 2
Fore
SplineSet
449.086 198 m 2
 459.086 198 461.811 192 459.897 183 c 0
 457.56 172 439.521 153 426.521 153 c 2
 359.521 153 l 1
 343.154 76 l 2
 333.76 31.7998 350.912 34.4004 396.589 31 c 1
 401.313 25 396.851 4 389.575 -2 c 1
 359.787 -1 331 0 294 0 c 0
 251 0 212.787 -1 182.575 -2 c 1
 177.851 4 182.313 25 189.589 31 c 1
 230.627 34 265.865 32.2998 275.154 76 c 2
 291.521 153 l 1
 95.5215 153 l 2
 67.0215 153 63.5898 179.2 64.0234 193 c 0
 64.2363 194 65.4482 195 66.6611 196 c 2
 408.232 568 l 2
 412.389 572.5 418.458 578 424.857 578 c 2
 450.857 578 l 2
 456.857 578 457.582 572 453.52 567 c 0
 360.626 464 217.617 304 123.086 198 c 1
 301.086 198 l 1
 334.458 355 l 2
 335.945 362 338.646 370 348.709 375 c 1
 361.409 383 381.322 392 396.322 392 c 0
 409.322 392 407.984 381 403.732 361 c 2
 369.086 198 l 1
 449.086 198 l 2
EndSplineSet
Substitution2: "'case' Versalformen 1" four.cap
AlternateSubs2: "'aalt' Alle Alternativen zeigen 1" four.oldstyle four.superior four.fitted
Substitution2: "'sups' Hochgestellte 1" four.superior
Substitution2: "'sinf' Wissenschaftliche Indices 1" four.inferior
Substitution2: "'pnum' Proportionalziffern 1" four.fitted
Substitution2: "'onum' Minuskelziffern 1" four.taboldstyle
EndChar

StartChar: five
Encoding: 53 53 14
Width: 440
VWidth: 487
Flags: HMW
HStem: -10 33<155.98 244.11> 323 47<124.855 256.523> 505 63<142.302 352.798>
VStem: 302 84<99.7788 274.326>
DStem2: 72 300 124 355 0.116419 0.9932<60.6798 219.873>
LayerCount: 2
Fore
SplineSet
340.048 179 m 0
 361.941 282 322.656 323 260.656 323 c 0
 226.656 323 189.806 319 135.767 300 c 1
 225.795 573 l 1
 258.157 570 291.732 568 326.732 568 c 0
 376.732 568 429.582 572 484.857 578 c 1
 490.22 575 l 1
 461.404 510 l 1
 421.554 506 389.341 505 361.341 505 c 0
 316.341 505 286.191 509 252.042 513 c 1
 199.458 355 l 1
 217.945 362 254.646 370 295.646 370 c 0
 401.646 370 447.216 288 427.661 196 c 0
 402.367 77 300.874 -10 183.874 -10 c 0
 129.874 -10 55.6758 22 63.9658 61 c 0
 68.0049 80 89.4053 96 107.405 96 c 0
 127.405 96 140.338 81.0996 148.816 65 c 0
 158.777 46 166.889 23 202.889 23 c 0
 259.889 23 320.918 89 340.048 179 c 0
EndSplineSet
Substitution2: "'case' Versalformen 1" five.cap
AlternateSubs2: "'aalt' Alle Alternativen zeigen 1" five.oldstyle five.superior five.fitted
Substitution2: "'sups' Hochgestellte 1" five.superior
Substitution2: "'sinf' Wissenschaftliche Indices 1" five.inferior
Substitution2: "'pnum' Proportionalziffern 1" five.fitted
Substitution2: "'onum' Minuskelziffern 1" five.taboldstyle
EndChar

StartChar: six
Encoding: 54 54 15
Width: 440
VWidth: 487
Flags: HW
HStem: -10 33<181.907 283.469> 317 33<156.031 271.277> 554 24<322.91 343.996>
VStem: 42 78<98.8217 336.175> 327 78<94.4051 263.449>
LayerCount: 2
Fore
SplineSet
205.038 324.8 m 1
 237.518 340.7 282.495 350 310.395 350 c 0
 439.395 350 462.815 272 445.599 191 c 0
 428.36 109.9 352.874 -10 228.874 -10 c 0
 155.874 -10 47.9512 28 88.7627 220 c 0
 104.704 295 151.984 381 225.038 449 c 0
 290.989 510.4 357.906 550 459.857 578 c 1
 466.795 573 468.095 565 465.756 554 c 1
 329.224 506.8 248.761 411 205.038 324.8 c 1
188.338 288.1 m 1
 177.689 262 170.504 237.6 166.125 217 c 0
 131.69 55 185.889 23 245.889 23 c 0
 291.889 23 341.879 70 363.984 174 c 0
 373.975 221 376.381 317 283.381 317 c 0
 265.381 317 228.361 315.5 188.338 288.1 c 1
EndSplineSet
Substitution2: "'case' Versalformen 1" six.cap
AlternateSubs2: "'aalt' Alle Alternativen zeigen 1" six.oldstyle six.superior six.fitted
Substitution2: "'sups' Hochgestellte 1" six.superior
Substitution2: "'sinf' Wissenschaftliche Indices 1" six.inferior
Substitution2: "'pnum' Proportionalziffern 1" six.fitted
Substitution2: "'onum' Minuskelziffern 1" six.taboldstyle
EndChar

StartChar: seven
Encoding: 55 55 16
Width: 440
VWidth: 487
Flags: HMW
HStem: -12 21G<117 185> 506 62<104.886 328.815>
VStem: 48 27<426.222 459.789>
LayerCount: 2
Fore
SplineSet
268.554 506 m 2
 238.554 506 205.278 500 168.124 424 c 1
 138.762 427 l 1
 157.177 476 179.293 533 189.857 578 c 0
 190.368 580.4 192.096 581 194.495 581 c 0
 211.272 577.6 206.632 568 238.732 568 c 2
 433.732 568 l 2
 469.732 568 491.795 573 508.857 578 c 1
 521.52 567 l 1
 360.68 309 271.309 152 183.087 -9 c 1
 117.449 -12 l 1
 111.725 -6 l 1
 206.333 138 320.443 322 433.554 506 c 1
 268.554 506 l 2
EndSplineSet
Substitution2: "'case' Versalformen 1" seven.cap
AlternateSubs2: "'aalt' Alle Alternativen zeigen 1" seven.oldstyle seven.superior seven.fitted
Substitution2: "'sups' Hochgestellte 1" seven.superior
Substitution2: "'sinf' Wissenschaftliche Indices 1" seven.inferior
Substitution2: "'pnum' Proportionalziffern 1" seven.fitted
Substitution2: "'onum' Minuskelziffern 1" seven.taboldstyle
EndChar

StartChar: nine
Encoding: 57 57 17
Width: 440
VWidth: 487
Flags: HW
HStem: -10 24<92.004 113.09> 218 33<164.723 279.969> 545 33<152.531 254.093>
VStem: 31 78<304.551 473.595> 316 78<231.825 469.178>
LayerCount: 2
Fore
SplineSet
351.693 243.2 m 1
 319.214 227.3 274.237 218 246.337 218 c 0
 117.337 218 93.917 296 111.134 377 c 0
 128.372 458.1 203.857 578 327.857 578 c 0
 400.857 578 508.78 540 467.97 348 c 0
 452.028 273 404.748 187 331.694 119 c 0
 265.743 57.5996 198.826 18 96.874 -10 c 1
 89.9375 -5 88.6377 3 90.9756 14 c 1
 227.509 61.2002 307.972 157 351.693 243.2 c 1
368.395 279.9 m 1
 379.042 306 386.229 330.4 390.607 351 c 0
 425.041 513 370.844 545 310.844 545 c 0
 264.844 545 214.854 498 192.747 394 c 0
 182.757 347 180.352 251 273.352 251 c 0
 291.352 251 328.37 252.5 368.395 279.9 c 1
EndSplineSet
Substitution2: "'case' Versalformen 1" nine.cap
AlternateSubs2: "'aalt' Alle Alternativen zeigen 1" nine.oldstyle nine.superior nine.fitted
Substitution2: "'sups' Hochgestellte 1" nine.superior
Substitution2: "'sinf' Wissenschaftliche Indices 1" nine.inferior
Substitution2: "'pnum' Proportionalziffern 1" nine.fitted
Substitution2: "'onum' Minuskelziffern 1" nine.taboldstyle
Colour: ff00ff
EndChar

StartChar: colon
Encoding: 58 58 18
Width: 220
VWidth: 999
Flags: HW
HStem: 39 106<74.6089 159.391> 302 106<74.6089 159.391>
VStem: 64 106<49.6089 134.391 312.609 397.391>
LayerCount: 2
Fore
SplineSet
139.458 355 m 0
 145.622 384 174.723 408 203.723 408 c 0
 232.723 408 251.622 384 245.458 355 c 0
 239.293 326 210.192 302 181.192 302 c 0
 152.192 302 133.293 326 139.458 355 c 0
83.5557 92 m 0
 89.7197 121 118.82 145 147.82 145 c 0
 176.82 145 195.72 121 189.556 92 c 0
 183.391 63 154.29 39 125.29 39 c 0
 96.29 39 77.3906 63 83.5557 92 c 0
EndSplineSet
Colour: ff00ff
EndChar

StartChar: less
Encoding: 60 60 19
Width: 487
VWidth: 999
Flags: HW
HStem: 73 331
DStem2: 49 263 122 239 0.940425 0.34<60.4911 397.706> 122 239 49 215 0.939653 -0.34213<0 337.557>
LayerCount: 2
Fore
SplineSet
172.801 239 m 1
 465.145 123 l 1
 475.169 109 469.792 79 454.517 73 c 1
 94.6992 215 l 1
 88.5244 229.7 91.9248 245.7 104.902 263 c 1
 524.873 404 l 1
 537.598 398 530.221 368 514.245 354 c 1
 172.801 239 l 1
EndSplineSet
EndChar

StartChar: equal
Encoding: 61 61 20
Width: 527
VWidth: 999
Flags: HW
HStem: 144 49<66 461> 269 49<66 461>
LayerCount: 2
Fore
SplineSet
528.593 318 m 1
 518.178 269 l 1
 123.178 269 l 1
 133.593 318 l 1
 528.593 318 l 1
502.023 193 m 1
 491.608 144 l 1
 96.6084 144 l 1
 107.023 193 l 1
 502.023 193 l 1
EndSplineSet
AlternateSubs2: "'aalt' Alle Alternativen zeigen 1" equal.superior
Substitution2: "'sinf' Wissenschaftliche Indices 1" equal.inferior
Substitution2: "'sups' Hochgestellte 1" equal.superior
EndChar

StartChar: greater
Encoding: 62 62 21
Width: 487
VWidth: 999
Flags: HW
HStem: 71 331
DStem2: 366 236 439 260 0.939653 -0.34213<-337.557 0> 439 212 366 236 0.940425 0.34<-397.706 -60.4911>
LayerCount: 2
Fore
SplineSet
416.163 236 m 1
 123.82 352 l 1
 113.796 366 119.173 396 134.447 402 c 1
 494.265 260 l 1
 500.44 245.3 497.039 229.3 484.062 212 c 1
 64.0918 71 l 1
 51.3672 77 58.7432 107 74.7197 121 c 1
 416.163 236 l 1
EndSplineSet
Colour: ff00ff
EndChar

StartChar: question
Encoding: 63 63 22
Width: 408
VWidth: 487
Flags: HW
HStem: -10 106<137.609 222.391> 626 33<123.81 240.898>
VStem: 29 68<506.793 590.817> 127 106<0.608917 85.3911> 164 33<174.009 299.829> 289 83<434.552 583.109>
LayerCount: 2
Fore
SplineSet
218.582 572 m 0
 215.394 557 216.119 551 219.056 546 c 0
 221.993 541 222.718 535 219.954 522 c 0
 215.065 499 192.515 487 173.515 487 c 0
 157.515 487 134.216 495 141.655 530 c 0
 149.732 568 176.684 596 211.785 620 c 1
 246.099 645 291.075 659 344.075 659 c 0
 446.075 659 499.321 599 479.979 508 c 0
 463.187 429 391.834 385 337.607 351 c 0
 310.994 334 287.593 318 274.979 301 c 0
 256.666 276 250.564 252 245.463 228 c 2
 236.11 184 l 2
 234.622 177 224.984 174 216.984 174 c 0
 208.984 174 201.622 177 203.11 184 c 2
 212.888 230 l 2
 222.028 273 240.041 331.4 317.109 391 c 0
 364.975 428 386.139 457 396.129 504 c 0
 409.944 569 384.061 626 327.061 626 c 0
 270.061 626 224.959 602 218.582 572 c 0
136.14 43 m 0
 142.304 72 171.405 96 200.405 96 c 0
 229.405 96 248.304 72 242.14 43 c 0
 235.976 14 206.874 -10 177.874 -10 c 0
 148.874 -10 129.976 14 136.14 43 c 0
EndSplineSet
Colour: ff9ccc
EndChar

StartChar: at
Encoding: 64 64 23
Width: 895
VWidth: 999
Flags: HMW
HStem: -158 33<366.698 569.227> 27 43<368.151 451.044> 379 31<449.098 547.769> 580 31<358.072 546.24>
VStem: 59 80<106.897 345.025> 273 73<90.7683 252.641> 515 68<62.2365 153.555> 759 80<177.345 388.462>
LayerCount: 2
Fore
SplineSet
636.168 316 m 0
 644.245 354 620.559 379 584.559 379 c 0
 567.559 379 522.646 370 486.057 339 c 0
 424.216 288 393.612 224 380.435 162 c 0
 370.231 114 375.879 70 438.879 70 c 0
 473.879 70 534.995 127 581.512 200 c 0
 601.101 231 628.941 282 636.168 316 c 0
598.729 74 m 0
 596.604 64 605.179 62 607.179 62 c 0
 709.179 62 782.169 109 817.453 275 c 0
 861.239 481 707.283 580 582.283 580 c 0
 430.283 580 240.602 478 190.227 241 c 0
 158.343 91 188.431 -125 446.431 -125 c 0
 531.431 -125 598.319 -102 661.459 -59 c 1
 670.633 -77 l 1
 600.855 -123 533.416 -158 420.416 -158 c 0
 181.416 -158 61.126 10 106.4 223 c 0
 152.1 438 373.872 611 598.872 611 c 0
 813.872 611 938.689 469 898.941 282 c 0
 874.709 168 774.739 27 556.739 27 c 0
 527.739 27 526.053 52 529.454 68 c 0
 532.643 83 544.531 106 557.845 131 c 1
 556.058 132 l 1
 496.328 58 436.164 29 401.164 29 c 0
 301.164 29 297.019 113 305.521 153 c 0
 335.917 296 487.148 410 593.148 410 c 0
 626.148 410 656.535 393 661.008 367 c 1
 671.109 391 l 1
 726.873 404 l 1
 740.811 399 l 1
 625.971 141 l 2
 614.231 114 600.11 80.5 598.729 74 c 0
EndSplineSet
EndChar

StartChar: A
Encoding: 65 65 24
Width: 695
VWidth: 999
Flags: HW
HStem: -2 33<3.625 67.9151 156.578 227.375 436.625 514.33 621.37 688.375> 241 42<240.956 437> 638 20G<355.667 370>
DStem2: 106.983 102 152 79 0.392949 0.91956<-30.5197 182.05 227.744 482.534> 329.333 622.333 338 550 0.392949 0.91956<-557.738 -393.648 -343.43 -63.1089> 390 628 340 550 0.35377 -0.935333<55.2675 339.317 384.261 589.245>
AnchorPoint: "unten_punkt" 284.619 -110 basechar 0
AnchorPoint: "unten_anhang" 117.062 5 basechar 0
AnchorPoint: "top_akzent" 545.673 850 basechar 0
LayerCount: 2
Fore
SplineSet
323.153 283 m 2
 497.153 283 l 1
 456.906 550 l 1
 454.906 550 l 1
 300.78 296.3 l 2
 294.285 285.5 300.953 283 323.153 283 c 2
168.792 79 m 2
 143.534 37.7998 193.542 33.5996 230.589 31 c 1
 235.313 25 230.851 4 223.575 -2 c 1
 186.787 -1 137 0 96 0 c 0
 57 0 43.7871 -1 6.5752 -2 c 1
 1.85059 4 6.31348 25 13.5889 31 c 1
 57.7266 34 89.1445 40.2002 128.681 102 c 2
 461.574 622.3 l 2
 478.671 649.1 488.162 658 502.862 658 c 0
 516.862 658 520.288 647.3 523.485 628 c 2
 613.28 86 l 2
 620.833 34.5 653.533 34.5 691.589 31 c 1
 696.313 25 691.851 4 684.575 -2 c 1
 647.787 -1 612 0 571 0 c 0
 532 0 476.787 -1 439.575 -2 c 1
 434.851 4 439.313 25 446.589 31 c 1
 494.912 34.4004 535.447 30.7998 529.304 72 c 2
 504.227 241 l 1
 296.227 241 l 2
 272.227 241 265.391 236.6 257.612 224 c 2
 168.792 79 l 2
EndSplineSet
Position2: "'cpsp' Versalabstaende 1" dx=2 dy=0 dh=5 dv=0
Substitution2: "'c2sc' Versale nach Kapitaelchen 1" a.sc
EndChar

StartChar: B
Encoding: 66 66 25
Width: 588
VWidth: 999
Flags: HW
HStem: -2 33<15.625 88.75 212.537 377.943> 332 34<191 351.927> 613 34<15.9238 91.0861 194.534 342.51>
VStem: 106 85<46.5258 332 366 601.619> 407 81<427.388 560.634> 454 93<98.7984 251.316>
AnchorPoint: "mittelpunkt" 185.323 185 basechar 0
AnchorPoint: "top_rechts" 664.592 732 basechar 0
AnchorPoint: "unten_punkt" 244.619 -110 basechar 0
AnchorPoint: "unten_anhang" 250 0 basechar 0
AnchorPoint: "top_akzent" 447.673 850 basechar 0
LayerCount: 2
Fore
SplineSet
312.157 570 m 2
 268.796 366 l 1
 342.796 366 l 2
 425.796 366 491.173 396 509.239 481 c 0
 530.921 583 464.297 613 408.297 613 c 0
 321.297 613 319.172 603 312.157 570 c 2
261.568 332 m 1
 211.83 98 l 2
 204.816 65 210.589 31 280.589 31 c 0
 432.589 31 473.556 92 489.072 165 c 0
 508.202 255 467.568 332 330.568 332 c 2
 261.568 332 l 1
285.099 645 m 0
 328.099 645 375.524 647 410.524 647 c 0
 596.524 647 607.031 560 592.79 493 c 0
 581.248 438.7 525.444 387.4 469.945 362 c 1
 469.521 360 l 1
 551.206 335 606.516 280 586.11 184 c 0
 567.83 98 493.575 -2 294.575 -2 c 0
 205.575 -2 192 0 149 0 c 0
 98 0 67.7871 -1 18.5752 -2 c 1
 13.8506 4 18.3135 25 25.5889 31 c 1
 96.2266 34 114.29 39 131.932 122 c 2
 217.167 523 l 2
 234.81 606 218.872 611 149.51 614 c 1
 144.785 620 149.249 641 156.524 647 c 1
 206.312 646 235.099 645 285.099 645 c 0
EndSplineSet
Position2: "'cpsp' Versalabstaende 1" dx=2 dy=0 dh=5 dv=0
Substitution2: "'c2sc' Versale nach Kapitaelchen 1" b.sc
EndChar

StartChar: C
Encoding: 67 67 26
Width: 646
VWidth: 999
Flags: HW
HStem: -10 41<272.215 462.261> 621 37<277.465 445.041>
VStem: 37 91<201.241 442.946> 566 33<454.756 496.422>
AnchorPoint: "mittelpunkt" 412.955 315 basechar 0
AnchorPoint: "top_rechts" 764.592 732 basechar 0
AnchorPoint: "unten_punkt" 339.619 -110 basechar 0
AnchorPoint: "unten_anhang" 354.512 -7 basechar 0
AnchorPoint: "top_akzent" 520.673 850 basechar 0
LayerCount: 2
Fore
SplineSet
354.874 -10 m 0
 139.874 -10 69.7334 154 103.955 315 c 0
 126.125 419.3 185.472 512.2 264.795 573 c 0
 335.273 627 412.862 658 497.862 658 c 0
 620.862 658 657.36 618 707.297 613 c 1
 704.606 558 702.404 510 696.351 458 c 1
 683.775 452 673.438 449 662.288 453 c 1
 654.568 539 616.998 621 478.998 621 c 0
 426.998 621 363.046 593 300.48 532 c 0
 254.437 487.1 217.338 420.3 198.994 334 c 0
 167.961 188 207.589 31 362.589 31 c 0
 455.589 31 530.179 62 617.758 140 c 1
 628.758 140 634.482 134 637.569 125 c 1
 550.652 36 451.874 -10 354.874 -10 c 0
EndSplineSet
Position2: "'cpsp' Versalabstaende 1" dx=2 dy=0 dh=5 dv=0
Substitution2: "'c2sc' Versale nach Kapitaelchen 1" c.sc
EndChar

StartChar: D
Encoding: 68 68 27
Width: 701
VWidth: 999
Flags: HW
HStem: -2 34<15.9238 91.0861 203.681 417.647> 613 34<15.9238 91.0861 206.921 373.9>
VStem: 106 85<43.9064 600.097> 562 96<179.249 422.825>
AnchorPoint: "mittelpunkt" 412.955 315 basechar 0
AnchorPoint: "top_rechts" 774.592 732 basechar 0
AnchorPoint: "unten_punkt" 255.619 -110 basechar 0
AnchorPoint: "unten_anhang" 279.851 4 basechar 0
AnchorPoint: "top_akzent" 486.673 850 basechar 0
LayerCount: 2
Fore
SplineSet
208.643 83 m 2
 201.841 51 208.802 32 306.802 32 c 0
 447.802 32 579.43 82 622.366 284 c 0
 655.1 438 621.297 613 405.297 613 c 0
 356.297 613 318.321 599 310.882 564 c 2
 208.643 83 l 2
285.099 645 m 0
 324.099 645 386.524 647 450.524 647 c 0
 642.524 647 763.003 494 723.468 308 c 0
 671.179 62 471.575 -2 330.575 -2 c 0
 227.575 -2 186 0 149 0 c 0
 98 0 67.7871 -1 18.5752 -2 c 1
 13.8506 4 18.3135 25 25.5889 31 c 1
 96.2266 34 114.29 39 131.932 122 c 2
 217.167 523 l 2
 234.81 606 218.872 611 149.51 614 c 1
 144.785 620 149.249 641 156.524 647 c 1
 206.312 646 235.099 645 285.099 645 c 0
EndSplineSet
Position2: "'cpsp' Versalabstaende 1" dx=2 dy=0 dh=5 dv=0
Substitution2: "'c2sc' Versale nach Kapitaelchen 1" d.sc
EndChar

StartChar: E
Encoding: 69 69 28
Width: 549
VWidth: 999
Flags: HW
HStem: -2 33<6.625 79.75> 0 39<186.719 418.897> 323 38<182 350.322> 605 40<187.062 389.552> 614 33<7.25781 79.75>
VStem: 97 85<43.3808 323 361 601.619> 364 33<251.625 306.925 373.446 432.375> 436 33<498.32 539.828> 485 35<122.11 168.353>
AnchorPoint: "top_rechts" 674.592 732 basechar 0
AnchorPoint: "unten_anhang" 279.851 4 basechar 0
AnchorPoint: "unten_punkt" 255.619 -110 basechar 0
AnchorPoint: "top_akzent" 453.673 850 basechar 0
LayerCount: 2
Fore
SplineSet
349.732 361 m 2
 434.732 361 440.496 374 455.187 429 c 1
 462.462 435 483.462 435 488.187 429 c 1
 480.811 399 475.134 377 467.907 343 c 0
 460.68 309 457.642 290 451.202 255 c 1
 443.927 249 422.927 249 418.202 255 c 1
 424.767 300 426.656 323 341.656 323 c 2
 250.656 323 l 1
 199.43 82 l 2
 193.69 55 204.29 39 226.29 39 c 2
 362.29 39 l 2
 438.29 39 485.83 98 521.135 170 c 1
 534.915 173.2 545.926 170.9 555.072 165 c 1
 536.231 114 507.203 48 482.575 -2 c 1
 482.575 -2 403 0 355 0 c 2
 140 0 l 1
 140 0 58.7871 -1 9.5752 -2 c 1
 4.85059 4 9.31348 25 16.5889 31 c 1
 87.2266 34 105.29 39 122.932 122 c 2
 208.167 523 l 2
 225.81 606 209.872 611 140.51 614 c 1
 135.785 620 140.249 641 147.524 647 c 1
 197.312 646 276.099 645 276.099 645 c 1
 531.099 645 l 2
 555.099 645 563.312 646 580.949 649 c 0
 583.949 649 584.736 648 584.312 646 c 0
 584.611 638 579.206 542 575.491 501 c 1
 564.691 496.3 553.445 494.2 541.428 496 c 1
 534.095 565 526.597 605 451.597 605 c 2
 346.597 605 l 2
 322.597 605 306.346 585 301.244 561 c 2
 258.732 361 l 1
 349.732 361 l 2
EndSplineSet
Position2: "'cpsp' Versalabstaende 1" dx=2 dy=0 dh=5 dv=0
Substitution2: "'c2sc' Versale nach Kapitaelchen 1" e.sc
EndChar

StartChar: F
Encoding: 70 70 29
Width: 477
VWidth: 999
Flags: HW
HStem: -2 33<6.625 79.75 199.25 272.375> 323 38<182 352.322> 605 40<183.978 389.552> 614 33<7.25781 79.75>
VStem: 97 85<43.3808 323 361 601.619> 366 33<251.625 306.925 373.446 432.375> 436 31<499.871 539.595>
AnchorPoint: "top_rechts" 654.592 732 basechar 0
AnchorPoint: "unten_anhang" 144.787 -1 basechar 0
AnchorPoint: "unten_punkt" 177.619 -110 basechar 0
AnchorPoint: "top_akzent" 456.673 850 basechar 0
LayerCount: 2
Fore
SplineSet
343.656 323 m 2
 250.656 323 l 1
 207.932 122 l 2
 190.29 39 206.227 34 275.589 31 c 1
 280.313 25 275.851 4 268.575 -2 c 1
 218.787 -1 190 0 140 0 c 0
 89 0 58.7871 -1 9.5752 -2 c 1
 4.85059 4 9.31348 25 16.5889 31 c 1
 87.2266 34 105.29 39 122.932 122 c 2
 208.167 523 l 2
 225.81 606 209.872 611 140.51 614 c 1
 135.785 620 140.249 641 147.524 647 c 1
 197.312 646 276.099 645 276.099 645 c 1
 531.399 645 l 2
 555.099 645 561.026 645.6 579.249 649 c 0
 581.649 649 582.7 648.3 582.611 646 c 0
 582.396 638.4 577.006 542 573.491 501 c 1
 541.428 496 l 1
 534.095 565 526.597 605 451.597 605 c 2
 346.597 605 l 2
 322.597 605 308.471 595 303.37 571 c 2
 258.732 361 l 1
 351.732 361 l 2
 436.732 361 442.496 374 457.187 429 c 1
 464.462 435 485.462 435 490.187 429 c 1
 482.811 399 477.134 377 469.907 343 c 0
 462.68 309 459.642 290 453.202 255 c 1
 445.927 249 424.927 249 420.202 255 c 1
 426.767 300 428.656 323 343.656 323 c 2
EndSplineSet
Position2: "'cpsp' Versalabstaende 1" dx=2 dy=0 dh=5 dv=0
Substitution2: "'c2sc' Versale nach Kapitaelchen 1" f.sc
EndChar

StartChar: G
Encoding: 71 71 30
Width: 695
VWidth: 999
Flags: HW
HStem: -10 36<306.086 491.108> 271 36<454.77 529.469 632.484 674.23> 621 37<280.395 464.991>
VStem: 32 91<215.673 431.42> 540 85<83.4212 261.003> 583 34<457.765 496.593>
AnchorPoint: "mittelpunkt" 379.206 335 basechar 0
AnchorPoint: "top_rechts" 786.592 732 basechar 0
AnchorPoint: "unten_anhang" 367.425 2 basechar 0
AnchorPoint: "unten_punkt" 343.619 -110 basechar 0
AnchorPoint: "top_akzent" 545.673 850 basechar 0
LayerCount: 2
Fore
SplineSet
516.862 658 m 0
 638.862 658 665.297 613 725.297 613 c 1
 716.993 541 714.491 501 714.563 459 c 1
 679.288 453 l 1
 671.568 539 639.998 621 494.998 621 c 0
 359.998 621 229.703 502 192.506 327 c 0
 164.448 195 222.526 26 400.526 26 c 0
 454.526 26 514.928 42 555.729 74 c 1
 587.4 223 l 2
 595.924 263.1 569.61 266.8 515.603 271 c 1
 510.878 277 515.979 301 523.255 307 c 1
 570.042 306 607.83 305 646.83 305 c 0
 686.83 305 706.042 306 736.255 307 c 1
 740.979 301 735.878 277 728.603 271 c 1
 698.965 268 679.882 258.2 672.4 223 c 2
 648.594 111 l 2
 646.256 100 649.555 92 658.643 83 c 1
 578.313 25 487.874 -10 369.874 -10 c 0
 168.874 -10 60.4824 134 97.2549 307 c 0
 144.018 527 344.862 658 516.862 658 c 0
EndSplineSet
Position2: "'cpsp' Versalabstaende 1" dx=2 dy=0 dh=5 dv=0
Substitution2: "'c2sc' Versale nach Kapitaelchen 1" g.sc
EndChar

StartChar: grave
Encoding: 96 96 31
Width: 392
VWidth: 999
Flags: HW
LayerCount: 2
Fore
SplineSet
326.577 699 m 1
 369.795 573 l 2
 372.669 563 372.182 556 370.693 549 c 0
 369.631 544 361.355 538 353.355 538 c 0
 347.355 538 341.418 543 328.606 558 c 2
 237.775 667 l 1
 242.113 678 l 1
 251.389 684 278.002 701 312.002 701 c 0
 317.002 701 322.79 700 326.577 699 c 1
EndSplineSet
Substitution2: "'case' Versalformen 1" uni0358
Colour: ff00ff
EndChar

StartChar: ograve
Encoding: 242 242 32
Width: 504
VWidth: 999
Flags: HW
HStem: -10 33<213.4 322.075> 406 33<188.61 301.402>
VStem: 41 86<119.996 319.458> 377 86<113.472 321.738>
AnchorPoint: "komb_OR" 504.173 396 basechar 0
LayerCount: 2
Fore
SplineSet
366.625 671 m 1
 409.844 545 l 2
 412.718 535 412.229 528 410.742 521 c 0
 409.679 516 401.404 510 393.404 510 c 0
 387.404 510 381.467 515 368.655 530 c 2
 277.823 639 l 1
 282.162 650 l 1
 291.438 656 318.051 673 352.051 673 c 0
 357.051 673 362.838 672 366.625 671 c 1
84.5742 205 m 0
 111.568 332 211.312 439 346.312 439 c 0
 501.312 439 530.593 318 508.487 214 c 0
 487.231 114 397.874 -10 248.874 -10 c 0
 107.874 -10 62.8936 103 84.5742 205 c 0
328.298 406 m 0
 244.298 406 193.955 315 175.463 228 c 0
 159.096 151 169.889 23 273.889 23 c 0
 320.889 23 387.628 50 415.686 182 c 0
 446.931 329 414.298 406 328.298 406 c 0
EndSplineSet
Substitution2: "'smcp' Gemeine nach Kapitaelchen 1" ograve.sc
AlternateSubs2: "'aalt' Alle Alternativen zeigen 1" ograve.sc
Colour: ff00ff
EndChar

StartChar: oacute
Encoding: 243 243 33
Width: 504
VWidth: 999
Flags: HW
HStem: -10 33<205.005 309.227> 406 33<180.317 289.2>
VStem: 36 85<119.996 319.458> 363 85<113.472 321.738>
AnchorPoint: "komb_OR" 504.173 396 basechar 0
LayerCount: 2
Fore
SplineSet
412.625 671 m 1
 415.838 672 422.051 673 427.051 673 c 0
 433.45 673 458.838 672 477.162 650 c 1
 477.823 639 l 1
 339.655 530 l 2
 321.467 515 312.616 511 305.616 511 c 0
 298.616 511 292.892 517 294.38 524 c 0
 296.761 535.2 300.91 539.2 311.731 552 c 2
 412.625 671 l 1
84.5742 205 m 0
 111.568 332 211.312 439 346.312 439 c 0
 501.312 439 530.593 318 508.487 214 c 0
 487.231 114 397.874 -10 248.874 -10 c 0
 107.874 -10 62.8936 103 84.5742 205 c 0
328.298 406 m 0
 244.298 406 193.955 315 175.463 228 c 0
 159.096 151 169.889 23 273.889 23 c 0
 320.889 23 387.628 50 415.686 182 c 0
 446.931 329 414.298 406 328.298 406 c 0
EndSplineSet
Substitution2: "'smcp' Gemeine nach Kapitaelchen 1" oacute.sc
AlternateSubs2: "'aalt' Alle Alternativen zeigen 1" oacute.sc
Colour: ff00ff
EndChar

StartChar: ocircumflex
Encoding: 244 244 34
Width: 504
VWidth: 999
Flags: HW
HStem: -10 33<215.268 324.47> 406 33<190.376 303.609>
VStem: 41 86<122.311 316.943> 115 253<517 517> 381 86<113.472 317.233>
AnchorPoint: "komb_OR" 504.173 396 basechar 0
LayerCount: 2
Fore
SplineSet
408.287 660 m 1
 427.297 613 460.031 560 487.529 520 c 1
 481.041 513 470.72 504.9 460.916 503 c 1
 428.018 527 398.969 555 375.559 586 c 1
 336.756 554 297.592 525 253.916 503 c 1
 245.341 505 239.616 511 235.529 520 c 1
 280.031 560 337.51 614 376.287 660 c 1
 387.477 662.3 398.225 663 408.287 660 c 1
84.5742 205 m 0
 111.568 332 211.312 439 346.312 439 c 0
 501.312 439 530.593 318 508.487 214 c 0
 487.231 114 397.874 -10 248.874 -10 c 0
 107.874 -10 62.8936 103 84.5742 205 c 0
328.298 406 m 0
 244.298 406 193.955 315 175.463 228 c 0
 159.096 151 169.889 23 273.889 23 c 0
 320.889 23 387.628 50 415.686 182 c 0
 446.931 329 414.298 406 328.298 406 c 0
EndSplineSet
Substitution2: "'smcp' Gemeine nach Kapitaelchen 1" ocircumflex.sc
AlternateSubs2: "'aalt' Alle Alternativen zeigen 1" ocircumflex.sc
Colour: ff00ff
EndChar

StartChar: otilde
Encoding: 245 245 35
Width: 504
VWidth: 999
Flags: HW
HStem: -10 33<205.005 309.219 205.005 309.219> 406 33<180.317 289.2 180.317 289.2> 526 44<253 340 253 340> 574 46<135 226 135 226> 613 10
VStem: 36 85<119.996 319.458 119.996 319.458> 363 85<113.472 321.738 113.472 321.738>
AnchorPoint: "komb_OR" 504.173 396 basechar 0
LayerCount: 2
Fore
SplineSet
425.795 573 m 0
 447.795 573 460.921 583 483.848 625 c 1
 495.061 626 504.423 623 509.572 619 c 1
 484.819 559 447.529 520 401.529 520 c 0
 379.529 520 362.355 538 344.331 552 c 0
 328.669 563 311.37 571 294.37 571 c 0
 268.37 571 255.182 556 238.167 523 c 1
 226.742 521 216.954 522 212.229 528 c 1
 238.771 587 270.061 626 313.061 626 c 0
 343.061 626 360.81 606 377.834 592 c 0
 391.283 580 406.795 573 425.795 573 c 0
84.5742 205 m 0
 111.568 332 211.312 439 346.312 439 c 0
 501.312 439 530.593 318 508.487 214 c 0
 487.231 114 397.874 -10 248.874 -10 c 0
 107.874 -10 62.8936 103 84.5742 205 c 0
328.298 406 m 0
 244.298 406 193.955 315 175.463 228 c 0
 159.096 151 169.889 23 273.889 23 c 0
 320.889 23 387.628 50 415.686 182 c 0
 446.931 329 414.298 406 328.298 406 c 0
EndSplineSet
Substitution2: "'smcp' Gemeine nach Kapitaelchen 1" otilde.sc
AlternateSubs2: "'aalt' Alle Alternativen zeigen 1" otilde.sc
Colour: ff00ff
EndChar

StartChar: odieresis
Encoding: 246 246 36
Width: 504
VWidth: 999
Flags: HW
HStem: -10 33<213.4 322.075> 406 33<188.61 301.402> 528 95<129.016 206.984 298.016 375.984>
VStem: 41 86<119.996 315.414> 121 94<535.394 615.312> 290 94<535.394 615.312> 377 86<113.472 321.738>
LayerCount: 2
Fore
SplineSet
243.22 575 m 0
 248.746 601 274.423 623 300.423 623 c 0
 326.423 623 342.746 601 337.22 575 c 0
 331.693 549 306.229 528 280.229 528 c 0
 254.229 528 237.693 549 243.22 575 c 0
412.22 575 m 0
 417.746 601 443.423 623 469.423 623 c 0
 495.423 623 511.746 601 506.22 575 c 0
 500.693 549 475.229 528 449.229 528 c 0
 423.229 528 406.693 549 412.22 575 c 0
84.5742 205 m 0
 111.568 332 211.312 439 346.312 439 c 0
 501.312 439 530.593 318 508.487 214 c 0
 487.231 114 397.874 -10 248.874 -10 c 0
 107.874 -10 62.8936 103 84.5742 205 c 0
328.298 406 m 0
 244.298 406 193.955 315 175.463 228 c 0
 159.096 151 169.889 23 273.889 23 c 0
 320.889 23 387.628 50 415.686 182 c 0
 446.931 329 414.298 406 328.298 406 c 0
EndSplineSet
Substitution2: "'smcp' Gemeine nach Kapitaelchen 1" odieresis.sc
AlternateSubs2: "'aalt' Alle Alternativen zeigen 1" odieresis.sc
Colour: ff00ff
EndChar

StartChar: divide
Encoding: 247 247 37
Width: 527
VWidth: 999
Flags: HW
HStem: 53.6 88.8<229.666 300.725> 208 49<66 461> 321.6 88.8<229.666 300.725>
VStem: 220.8 88.8<62.5104 133.57> 220.8 88.8<330.51 401.57>
LayerCount: 2
Fore
SplineSet
298.596 366 m 0
 303.761 390.3 328.133 410.4 352.434 410.4 c 0
 376.733 410.4 392.561 390.3 387.396 366 c 0
 382.23 341.7 357.858 321.6 333.559 321.6 c 0
 309.258 321.6 293.431 341.7 298.596 366 c 0
241.631 98 m 0
 246.796 122.3 271.168 142.4 295.468 142.4 c 0
 319.768 142.4 335.596 122.3 330.431 98 c 0
 325.266 73.7002 300.893 53.5996 276.593 53.5996 c 0
 252.293 53.5996 236.466 73.7002 241.631 98 c 0
515.627 257 m 1
 505.212 208 l 1
 110.212 208 l 1
 120.627 257 l 1
 515.627 257 l 1
EndSplineSet
Colour: ff00ff
EndChar

StartChar: ugrave
Encoding: 249 249 38
Width: 525
VWidth: 999
Flags: HW
HStem: -10 45<187.687 289.999> 30 23<453 501> 402 29<28 44 293 309>
VStem: 88 75<61.0204 394.9> 353 75<82.098 394.9>
LayerCount: 2
Fore
SplineSet
361.625 671 m 1
 404.844 545 l 2
 407.718 535 407.229 528 405.742 521 c 0
 404.679 516 396.404 510 388.404 510 c 0
 382.404 510 376.467 515 363.655 530 c 2
 272.823 639 l 1
 277.162 650 l 1
 286.438 656 313.051 673 347.051 673 c 0
 352.051 673 357.838 672 361.625 671 c 1
214.874 -10 m 0
 115.874 -10 100.115 57 114.782 126 c 2
 155.593 318 l 2
 169.409 383 157.747 394 110.598 398 c 1
 105.873 404 110.337 425 117.612 431 c 1
 154.399 430 187.187 429 219.187 429 c 0
 234.187 429 249.399 430 254.612 431 c 0
 259.612 431 261.975 428 261.315 424.9 c 2
 261.315 424.9 241.82 352 235.443 322 c 2
 196.758 140 l 2
 177.841 51 224.864 37 254.864 37 c 0
 279.864 37 315.266 53 359.067 85 c 0
 375.761 97.2002 379.318 105 383.357 124 c 2
 424.381 317 l 2
 438.409 383 427.96 395 379.598 398 c 1
 374.873 404 379.337 425 386.612 431 c 1
 423.399 430 456.187 429 488.187 429 c 0
 503.187 429 518.399 430 523.612 431 c 0
 528.612 431 530.975 428 530.315 424.9 c 2
 530.315 424.9 510.82 352 504.443 322 c 2
 463.633 130 l 2
 453.217 81 458.179 62 521.115 57 c 1
 525.841 51 522.652 36 515.377 30 c 1
 452.889 23 403.7 8 377.874 -10 c 1
 369.664 -12.4004 361.858 -12.9004 354.874 -10 c 1
 354.874 -10 366.29 39 368.415 49 c 0
 369.903 56 362.32 54.2002 356.691 50.2998 c 0
 298.989 10.2998 253.874 -10 214.874 -10 c 0
EndSplineSet
Substitution2: "'smcp' Gemeine nach Kapitaelchen 1" ugrave.sc
AlternateSubs2: "'aalt' Alle Alternativen zeigen 1" ugrave.sc
Colour: ff00ff
EndChar

StartChar: uacute
Encoding: 250 250 39
Width: 525
VWidth: 999
Flags: HW
HStem: -10 45<187.687 289.999> 30 23<453 501> 402 29<28 44 293 309>
VStem: 88 75<61.0204 394.9> 353 75<82.098 394.9>
LayerCount: 2
Fore
SplineSet
439.625 671 m 1
 442.838 672 449.051 673 454.051 673 c 0
 460.45 673 485.838 672 504.162 650 c 1
 504.823 639 l 1
 366.655 530 l 2
 348.467 515 339.616 511 332.616 511 c 0
 325.616 511 319.892 517 321.38 524 c 0
 323.761 535.2 327.91 539.2 338.731 552 c 2
 439.625 671 l 1
214.874 -10 m 0
 115.874 -10 100.115 57 114.782 126 c 2
 155.593 318 l 2
 169.409 383 157.747 394 110.598 398 c 1
 105.873 404 110.337 425 117.612 431 c 1
 154.399 430 187.187 429 219.187 429 c 0
 234.187 429 249.399 430 254.612 431 c 0
 259.612 431 261.975 428 261.315 424.9 c 2
 261.315 424.9 241.82 352 235.443 322 c 2
 196.758 140 l 2
 177.841 51 224.864 37 254.864 37 c 0
 279.864 37 315.266 53 359.067 85 c 0
 375.761 97.2002 379.318 105 383.357 124 c 2
 424.381 317 l 2
 438.409 383 427.96 395 379.598 398 c 1
 374.873 404 379.337 425 386.612 431 c 1
 423.399 430 456.187 429 488.187 429 c 0
 503.187 429 518.399 430 523.612 431 c 0
 528.612 431 530.975 428 530.315 424.9 c 2
 530.315 424.9 510.82 352 504.443 322 c 2
 463.633 130 l 2
 453.217 81 458.179 62 521.115 57 c 1
 525.841 51 522.652 36 515.377 30 c 1
 452.889 23 403.7 8 377.874 -10 c 1
 369.664 -12.4004 361.858 -12.9004 354.874 -10 c 1
 354.874 -10 366.29 39 368.415 49 c 0
 369.903 56 362.32 54.2002 356.691 50.2998 c 0
 298.989 10.2998 253.874 -10 214.874 -10 c 0
EndSplineSet
Substitution2: "'smcp' Gemeine nach Kapitaelchen 1" uacute.sc
AlternateSubs2: "'aalt' Alle Alternativen zeigen 1" uacute.sc
Colour: ff00ff
EndChar

StartChar: ucircumflex
Encoding: 251 251 40
Width: 525
VWidth: 999
Flags: HW
HStem: -10 45<187.687 290.565> 30 23<453 501> 402 29<28 44 293 309>
VStem: 88 75<61.0204 394.9> 120 253<517 517> 353 75<82.098 394.9>
LayerCount: 2
Fore
SplineSet
403.287 660 m 1
 422.297 613 455.031 560 482.529 520 c 1
 476.041 513 465.72 504.9 455.916 503 c 1
 423.018 527 393.969 555 370.559 586 c 1
 331.756 554 292.592 525 248.916 503 c 1
 240.341 505 234.616 511 230.529 520 c 1
 275.031 560 332.51 614 371.287 660 c 1
 382.477 662.3 393.225 663 403.287 660 c 1
214.874 -10 m 0
 115.874 -10 100.115 57 114.782 126 c 2
 155.593 318 l 2
 169.409 383 157.747 394 110.598 398 c 1
 105.873 404 110.337 425 117.612 431 c 1
 154.399 430 187.187 429 219.187 429 c 0
 234.187 429 249.399 430 254.612 431 c 0
 259.612 431 261.975 428 261.315 424.9 c 2
 261.315 424.9 241.82 352 235.443 322 c 2
 196.758 140 l 2
 177.841 51 224.864 37 254.864 37 c 0
 279.864 37 315.266 53 359.067 85 c 0
 375.761 97.2002 379.318 105 383.357 124 c 2
 424.381 317 l 2
 438.409 383 427.96 395 379.598 398 c 1
 374.873 404 379.337 425 386.612 431 c 1
 423.399 430 456.187 429 488.187 429 c 0
 503.187 429 518.399 430 523.612 431 c 0
 528.612 431 530.975 428 530.315 424.9 c 2
 530.315 424.9 510.82 352 504.443 322 c 2
 463.633 130 l 2
 453.217 81 458.179 62 521.115 57 c 1
 525.841 51 522.652 36 515.377 30 c 1
 452.889 23 403.7 8 377.874 -10 c 1
 369.664 -12.4004 361.858 -12.9004 354.874 -10 c 1
 354.874 -10 366.29 39 368.415 49 c 0
 369.903 56 362.32 54.2002 356.691 50.2998 c 0
 298.989 10.2998 253.874 -10 214.874 -10 c 0
EndSplineSet
Substitution2: "'smcp' Gemeine nach Kapitaelchen 1" ucircumflex.sc
AlternateSubs2: "'aalt' Alle Alternativen zeigen 1" ucircumflex.sc
Colour: ff00ff
EndChar

StartChar: ebreve
Encoding: 277 277 41
Width: 447
VWidth: 999
Flags: HW
HStem: -10 49<195.372 321.672> 248 39<117 314.997> 405 34<173.337 282.104> 501 57<158.968 295.898>
VStem: 34 80<137.009 248> 93 26<607.805 639.769> 315 80<259.5 367.016> 336 27<609.333 639.63>
AnchorPoint: "ogonek" 369.928 42 basechar 0
AnchorPoint: "unten_anhang" 241.575 -2 basechar 0
AnchorPoint: "unten_punkt" 212.619 -110 basechar 0
AnchorPoint: "top_akzent" 395.982 795 basechar 0
LayerCount: 2
Fore
SplineSet
257.736 648 m 1
 257.471 595 292.606 558 346.606 558 c 0
 398.606 558 451.408 590 473.736 648 c 1
 498.186 636 l 1
 467.906 550 393.491 501 334.491 501 c 0
 264.491 501 224.119 551 228.186 636 c 1
 257.736 648 l 1
185.004 287 m 1
 360.578 285 l 2
 370.578 285 376.642 290 378.555 299 c 0
 396.409 383 360.873 404 322.873 404 c 0
 298.873 404 228.022 400 185.004 287 c 1
405.768 93 m 1
 417.556 92 422.492 87 423.367 77 c 1
 372.313 25 310.449 -12 234.449 -12 c 0
 162.449 -12 120.976 14 95.4785 54 c 0
 70.5557 92 68.0332 146 79.9365 202 c 0
 112.245 354 229.888 437 329.887 437 c 0
 468.887 437 474.757 347 456.902 263 c 0
 454.564 252 446.289 246 434.289 246 c 2
 173.714 248 l 1
 161.386 190 163.608 144 176.594 111 c 0
 196.753 60 233.864 37 269.864 37 c 0
 327.864 37 360.69 55 405.768 93 c 1
EndSplineSet
Colour: ff00ff
EndChar

StartChar: Edotaccent
Encoding: 278 278 42
Width: 549
VWidth: 999
Flags: HW
HStem: -2 29<14 50> 0 39<183.683 419.99> 323 38<182 352.245> 416 20<367 392.5> 605 40<183.485 390.274> 618 28<14 50> 688 104<238.542 321.458>
VStem: 101 81<40.3443 323 361 603.225> 228 104<698.542 781.458> 361 34<252 316.054 403 436> 438 29<499.793 534.346> 489 31<128.12 166.129>
LayerCount: 2
Fore
SplineSet
385.292 740 m 0
 391.243 768 420.345 792 448.345 792 c 0
 476.345 792 495.243 768 489.292 740 c 0
 483.34 712 454.239 688 426.239 688 c 0
 398.239 688 379.34 712 385.292 740 c 0
349.732 361 m 2
 434.732 361 440.496 374 455.187 429 c 1
 462.462 435 483.462 435 488.187 429 c 1
 480.811 399 475.134 377 467.907 343 c 0
 460.68 309 457.642 290 451.202 255 c 1
 443.927 249 422.927 249 418.202 255 c 1
 424.767 300 426.656 323 341.656 323 c 2
 250.656 323 l 1
 199.43 82 l 2
 193.69 55 204.29 39 226.29 39 c 2
 362.29 39 l 2
 438.29 39 485.83 98 521.135 170 c 1
 534.915 173.2 545.947 171 555.072 165 c 1
 536.231 114 507.203 48 482.575 -2 c 1
 482.575 -2 403 0 355 0 c 2
 140 0 l 1
 140 0 58.7871 -1 9.5752 -2 c 1
 4.85059 4 9.31348 25 16.5889 31 c 1
 87.2266 34 105.29 39 122.932 122 c 2
 208.167 523 l 2
 225.81 606 209.872 611 140.51 614 c 1
 135.785 620 140.249 641 147.524 647 c 1
 197.312 646 276.099 645 276.099 645 c 1
 531.099 645 l 2
 555.099 645 563.312 646 580.949 649 c 0
 583.949 649 584.736 648 584.312 646 c 0
 584.611 638 579.206 542 575.491 501 c 1
 564.691 496.3 553.445 494.2 541.428 496 c 1
 534.095 565 526.597 605 451.597 605 c 2
 346.597 605 l 2
 322.597 605 306.346 585 301.244 561 c 2
 258.732 361 l 1
 349.732 361 l 2
EndSplineSet
Position2: "'cpsp' Versalabstaende 1" dx=2 dy=0 dh=5 dv=0
Colour: ff00ff
EndChar

StartChar: edotaccent
Encoding: 279 279 43
Width: 447
VWidth: 999
Flags: HW
HStem: -10 49<195.372 321.672> 248 39<117 314.997> 405 34<173.337 282.104> 523 96<190.332 269.668>
VStem: 34 80<137.009 248 287 311.529> 182 96<531.332 610.668> 315 80<259.5 367.016>
AnchorPoint: "top_akzent" 398.982 795 basechar 0
AnchorPoint: "ogonek" 369.928 42 basechar 0
AnchorPoint: "unten_anhang" 241.575 -2 basechar 0
AnchorPoint: "unten_punkt" 212.619 -110 basechar 0
LayerCount: 2
Fore
SplineSet
303.008 574 m 0
 308.746 601 335.423 623 362.423 623 c 0
 389.423 623 406.746 601 401.008 574 c 0
 395.269 547 368.592 525 341.592 525 c 0
 314.592 525 297.269 547 303.008 574 c 0
185.004 287 m 1
 360.578 285 l 2
 370.578 285 376.642 290 378.555 299 c 0
 396.409 383 360.873 404 322.873 404 c 0
 298.873 404 228.022 400 185.004 287 c 1
405.768 93 m 1
 417.556 92 422.492 87 423.367 77 c 1
 372.313 25 310.449 -12 234.449 -12 c 0
 162.449 -12 120.976 14 95.4785 54 c 0
 70.5557 92 68.0332 146 79.9365 202 c 0
 112.245 354 229.888 437 329.887 437 c 0
 468.887 437 474.757 347 456.902 263 c 0
 454.564 252 446.289 246 434.289 246 c 2
 173.714 248 l 1
 161.386 190 163.608 144 176.594 111 c 0
 196.753 60 233.864 37 269.864 37 c 0
 327.864 37 360.69 55 405.768 93 c 1
EndSplineSet
Colour: ff00ff
EndChar

StartChar: Eogonek
Encoding: 280 280 44
Width: 549
VWidth: 999
Flags: HW
HStem: -200 38<372.519 455.833> -2 17<444.684 471> -2 29<14 50> 0 39<183.683 419.99> 323 38<182 352.245> 416 20<367 392.5> 605 40<183.485 390.274> 618 28<14 50>
VStem: 101 81<40.3443 323 361 603.225> 303 62<-155.299 -63.1465> 361 34<252 316.054 403 436> 438 29<499.793 534.346> 489 31<128.12 166.129>
LayerCount: 2
Fore
SplineSet
472.305 -135 m 1
 433.74 -180 389.488 -200 348.488 -200 c 0
 298.488 -200 264.74 -180 276.218 -126 c 0
 285.018 -84.5996 332.654 -27.5 398.515 -0.400391 c 1
 383.157 -0.200195 367.9 0 355 0 c 2
 140 0 l 1
 140 0 58.7871 -1 9.5752 -2 c 1
 4.85059 4 9.31348 25 16.5889 31 c 1
 87.2266 34 105.29 39 122.932 122 c 2
 208.167 523 l 2
 225.81 606 209.872 611 140.51 614 c 1
 135.785 620 140.249 641 147.524 647 c 1
 197.312 646 276.099 645 276.099 645 c 1
 531.099 645 l 2
 555.099 645 563.312 646 580.949 649 c 0
 583.949 649 584.736 648 584.312 646 c 0
 584.611 638 579.206 542 575.491 501 c 1
 564.691 496.3 553.445 494.2 541.428 496 c 1
 534.095 565 526.597 605 451.597 605 c 2
 346.597 605 l 2
 322.597 605 306.346 585 301.244 561 c 2
 258.732 361 l 1
 349.732 361 l 2
 434.732 361 440.496 374 455.187 429 c 1
 462.462 435 483.462 435 488.187 429 c 1
 480.811 399 475.134 377 467.907 343 c 0
 460.68 309 457.642 290 451.202 255 c 1
 443.927 249 422.927 249 418.202 255 c 1
 424.767 300 426.656 323 341.656 323 c 2
 250.656 323 l 1
 199.43 82 l 2
 193.69 55 204.29 39 226.29 39 c 2
 362.29 39 l 2
 438.29 39 485.83 98 521.135 170 c 1
 534.915 173.2 545.947 171 555.072 165 c 1
 536.459 114.6 507.942 49.5996 483.457 -0.200195 c 1
 484.575 -2 l 1
 413.575 -2 350.334 -69 340.556 -115 c 0
 335.029 -141 343.565 -162 380.565 -162 c 0
 409.565 -162 428.967 -146 455.643 -124 c 1
 464.643 -124 469.793 -128 472.305 -135 c 1
EndSplineSet
Position2: "'cpsp' Versalabstaende 1" dx=2 dy=0 dh=5 dv=0
Substitution2: "'c2sc' Versale nach Kapitaelchen 1" eogonek.sc
Colour: ff9ccc
EndChar

StartChar: eogonek
Encoding: 281 281 45
Width: 447
VWidth: 999
Flags: HW
HStem: -200 38<244.519 327.833> -10 49<195.372 321.672> 248 39<117 314.997> 405 34<173.337 282.104>
VStem: 34 80<137.009 248> 175 62<-155.299 -69.1643> 315 80<259.5 367.016>
AnchorPoint: "unten_punkt" 47.0439 -108 basechar 0
AnchorPoint: "top_akzent" 368.099 645 basechar 0
LayerCount: 2
Fore
SplineSet
344.305 -135 m 1
 305.74 -180 261.488 -200 220.488 -200 c 0
 170.488 -200 136.74 -180 148.218 -126 c 0
 156.763 -85.7998 197.861 -47.7002 253.819 -11.2002 c 1
 247.513 -11.7002 241.05 -12 234.449 -12 c 0
 162.449 -12 120.976 14 95.4785 54 c 0
 70.5557 92 68.0332 146 79.9365 202 c 0
 112.245 354 229.888 437 329.887 437 c 0
 468.887 437 474.757 347 456.902 263 c 0
 454.564 252 446.289 246 434.289 246 c 2
 173.714 248 l 1
 161.386 190 163.608 144 176.594 111 c 0
 196.753 60 233.864 37 269.864 37 c 0
 327.864 37 360.69 55 405.768 93 c 1
 417.556 92 422.492 87 423.367 77 c 1
 394.902 48 363.159 23.7998 327.379 7.90039 c 1
 255.781 -42.9004 221.611 -72.4004 212.556 -115 c 0
 207.029 -141 215.565 -162 252.565 -162 c 0
 281.565 -162 300.967 -146 327.643 -124 c 1
 336.643 -124 341.793 -128 344.305 -135 c 1
185.004 287 m 1
 360.578 285 l 2
 370.578 285 376.642 290 378.555 299 c 0
 396.409 383 360.873 404 322.873 404 c 0
 298.873 404 228.022 400 185.004 287 c 1
EndSplineSet
AlternateSubs2: "'aalt' Alle Alternativen zeigen 1" eogonek.sc
Substitution2: "'smcp' Gemeine nach Kapitaelchen 1" eogonek.sc
Colour: ff00ff
EndChar

StartChar: Ecaron
Encoding: 282 282 46
Width: 549
VWidth: 999
Flags: HW
HStem: -2 29<14 50> 0 39<183.683 419.99> 323 38<182 352.245> 416 20<367 392.5> 605 40<183.485 390.274> 618 28<14 50>
VStem: 101 81<40.3443 323 361 603.225> 361 34<252 316.054 403 436> 438 29<499.793 534.346> 489 31<128.12 166.129>
LayerCount: 2
Fore
SplineSet
416.152 697 m 1
 394.017 734 365.394 764 335.345 792 c 1
 355.596 812 l 1
 390.982 795 420.944 776 448.63 751 c 1
 491.156 777 527.195 796 568.596 812 c 1
 579.345 792 l 1
 535.181 763 496.379 731 459.152 697 c 1
 416.152 697 l 1
349.732 361 m 2
 434.732 361 440.496 374 455.187 429 c 1
 462.462 435 483.462 435 488.187 429 c 1
 480.811 399 475.134 377 467.907 343 c 0
 460.68 309 457.642 290 451.202 255 c 1
 443.927 249 422.927 249 418.202 255 c 1
 424.767 300 426.656 323 341.656 323 c 2
 250.656 323 l 1
 199.43 82 l 2
 193.69 55 204.29 39 226.29 39 c 2
 362.29 39 l 2
 438.29 39 485.83 98 521.135 170 c 1
 534.915 173.2 545.947 171 555.072 165 c 1
 536.231 114 507.203 48 482.575 -2 c 1
 482.575 -2 403 0 355 0 c 2
 140 0 l 1
 140 0 58.7871 -1 9.5752 -2 c 1
 4.85059 4 9.31348 25 16.5889 31 c 1
 87.2266 34 105.29 39 122.932 122 c 2
 208.167 523 l 2
 225.81 606 209.872 611 140.51 614 c 1
 135.785 620 140.249 641 147.524 647 c 1
 197.312 646 276.099 645 276.099 645 c 1
 531.099 645 l 2
 555.099 645 563.312 646 580.949 649 c 0
 583.949 649 584.736 648 584.312 646 c 0
 584.611 638 579.206 542 575.491 501 c 1
 564.691 496.3 553.445 494.2 541.428 496 c 1
 534.095 565 526.597 605 451.597 605 c 2
 346.597 605 l 2
 322.597 605 306.346 585 301.244 561 c 2
 258.732 361 l 1
 349.732 361 l 2
EndSplineSet
Position2: "'cpsp' Versalabstaende 1" dx=2 dy=0 dh=5 dv=0
Substitution2: "'c2sc' Versale nach Kapitaelchen 1" ecaron.sc
Colour: ff00ff
EndChar

StartChar: ecaron
Encoding: 283 283 47
Width: 447
VWidth: 999
Flags: HW
HStem: -10 49<195.372 321.672> 248 39<117 314.997> 405 34<173.337 282.104>
VStem: 34 80<137.009 248> 315 80<259.5 367.016>
LayerCount: 2
Fore
SplineSet
305.491 501 m 1
 286.481 548 259.046 593 232.123 631 c 1
 254.887 644 l 1
 287.723 615 315.408 590 341.756 554 c 1
 386.834 592 426.147 617 468.887 644 c 1
 485.123 631 l 1
 441.834 592 394.269 547 355.491 501 c 1
 305.491 501 l 1
185.004 287 m 1
 360.578 285 l 2
 370.578 285 376.642 290 378.555 299 c 0
 396.409 383 360.873 404 322.873 404 c 0
 298.873 404 228.022 400 185.004 287 c 1
405.768 93 m 1
 417.556 92 422.492 87 423.367 77 c 1
 372.313 25 310.449 -12 234.449 -12 c 0
 162.449 -12 120.976 14 95.4785 54 c 0
 70.5557 92 68.0332 146 79.9365 202 c 0
 112.245 354 229.888 437 329.887 437 c 0
 468.887 437 474.757 347 456.902 263 c 0
 454.564 252 446.289 246 434.289 246 c 2
 173.714 248 l 1
 161.386 190 163.608 144 176.594 111 c 0
 196.753 60 233.864 37 269.864 37 c 0
 327.864 37 360.69 55 405.768 93 c 1
EndSplineSet
AlternateSubs2: "'aalt' Alle Alternativen zeigen 1" ecaron.sc
Substitution2: "'smcp' Gemeine nach Kapitaelchen 1" ecaron.sc
Colour: ff00ff
EndChar

StartChar: Gcircumflex
Encoding: 284 284 48
Width: 695
VWidth: 999
Flags: HW
HStem: -10 36<299.692 489.453> 271 36<453 485 626.062 672> 621 37<278.364 463.377>
VStem: 32 87<215.673 431.42> 540 81<83.4212 262.951> 585 30<457.6 492.683>
LayerCount: 2
Fore
SplineSet
554.746 808 m 1
 577.094 772 606.867 738 637.128 711 c 1
 632.394 701.9 626.571 693.8 616.664 690 c 1
 581.49 708 551.316 726 523.63 751 c 1
 480.891 724 445.277 707 403.664 690 c 1
 395.939 696 394.215 702 394.128 711 c 1
 437.079 739 477.519 774 515.746 808 c 1
 531.531 816.4 540.982 815.7 554.746 808 c 1
516.862 658 m 0
 638.862 658 665.297 613 725.297 613 c 1
 716.993 541 714.491 501 714.563 459 c 1
 679.288 453 l 1
 671.568 539 639.998 621 494.998 621 c 0
 359.998 621 229.703 502 192.506 327 c 0
 164.448 195 222.526 26 400.526 26 c 0
 454.526 26 514.928 42 555.729 74 c 1
 587.4 223 l 2
 595.924 263.1 569.61 266.8 515.603 271 c 1
 510.878 277 515.979 301 523.255 307 c 1
 570.042 306 607.83 305 646.83 305 c 0
 686.83 305 706.042 306 736.255 307 c 1
 740.979 301 735.878 277 728.603 271 c 1
 698.965 268 679.882 258.2 672.4 223 c 2
 648.594 111 l 2
 646.256 100 649.555 92 658.643 83 c 1
 578.313 25 487.874 -10 369.874 -10 c 0
 168.874 -10 60.4824 134 97.2549 307 c 0
 144.018 527 344.862 658 516.862 658 c 0
EndSplineSet
Position2: "'cpsp' Versalabstaende 1" dx=2 dy=0 dh=5 dv=0
Colour: ff00ff
EndChar

StartChar: gcircumflex
Encoding: 285 285 49
Width: 500
VWidth: 999
Flags: HW
HStem: -238 37<152.298 302.696> -12 61<172.809 359.728> 136 31<175.133 272.366> 408 31<167.815 264.598>
VStem: 32 66<-157.965 -57.3985> 59 78<210.052 363.612> 103 253<516 516> 308 76<209.75 368.749> 401 52<-133.448 -47.7496>
LayerCount: 2
Fore
SplineSet
386.075 659 m 1
 405.085 612 437.819 559 465.316 519 c 1
 458.829 512 448.507 503.9 438.703 502 c 1
 405.805 526 376.756 554 353.346 585 c 1
 314.544 553 275.38 524 231.703 502 c 1
 223.129 504 217.404 510 213.316 519 c 1
 257.819 559 315.297 613 354.075 659 c 1
 365.264 661.3 376.013 662 386.075 659 c 1
378.304 279 m 0
 395.945 362 371.723 408 308.723 408 c 0
 253.723 408 221.071 372 206.192 302 c 0
 192.589 238 186.497 167 270.497 167 c 0
 307.497 167 358.535 186 378.304 279 c 0
129.874 -10 m 1
 93.4346 -45 86.1211 -70 78.8945 -104 c 0
 64.4404 -172 142.276 -201 178.276 -201 c 0
 268.276 -201 382.354 -163 397.657 -91 c 0
 403.184 -65 394.159 -51 359.836 -29 c 0
 334.236 -13 292.449 -12 242.449 -12 c 0
 228.449 -12 199.812 -15 168.812 -15 c 0
 155.812 -15 140.236 -13 129.874 -10 c 1
527.472 388 m 0
 510.472 388 502.385 397 500.085 405 c 1
 495.998 414 491.636 417 484.636 417 c 0
 471.636 417 448.66 403 439.535 393 c 1
 462.158 363 470.419 336 460.429 289 c 0
 439.599 191 346.907 136 258.907 136 c 0
 219.907 136 193.396 143 172.371 157 c 1
 156.758 140 146.294 119 142.043 99 c 0
 132.903 56 164.928 42 193.928 42 c 0
 198.928 42 209.14 43 224.353 44 c 0
 248.99 47 274.415 49 292.415 49 c 0
 329.415 49 399.203 48 431.401 16 c 0
 455.3 -8 464.985 -33 458.184 -65 c 0
 435.228 -173 275.411 -238 140.411 -238 c 0
 63.4111 -238 -12.8496 -211 5.64258 -124 c 0
 14.7832 -81 52.5605 -35 113.362 -3 c 1
 90.126 10 76.0771 38 83.7295 74 c 0
 90.9561 108 116.096 151 149.197 175 c 1
 126.937 202 109.525 233 121.004 287 c 0
 140.559 379 235.312 439 324.312 439 c 0
 383.312 439 412.062 419 422.36 411 c 1
 455.588 445 507.201 462 533.201 462 c 0
 560.201 462 575.588 445 571.124 424 c 0
 566.447 402 548.472 388 527.472 388 c 0
EndSplineSet
Colour: ff00ff
EndChar

StartChar: Gbreve
Encoding: 286 286 50
Width: 695
VWidth: 999
Flags: HW
HStem: -10 36<299.692 489.453> 271 36<453 485 626.062 672> 621 37<278.364 463.377> 693 52<293 449>
VStem: 32 87<215.673 431.42> 236 28<766 804> 480 27<768 806> 540 81<83.4212 262.951> 585 30<457.6 492.683>
LayerCount: 2
Fore
SplineSet
679.32 806 m 1
 658.229 735 585.302 693 519.302 693 c 0
 446.302 693 397.441 736 407.32 806 c 1
 435.32 806 l 1
 435.031 767 477.354 745 530.354 745 c 0
 579.354 745 636.031 767 651.32 806 c 1
 679.32 806 l 1
516.862 658 m 0
 638.862 658 665.297 613 725.297 613 c 1
 716.993 541 714.491 501 714.563 459 c 1
 679.288 453 l 1
 671.568 539 639.998 621 494.998 621 c 0
 359.998 621 229.703 502 192.506 327 c 0
 164.448 195 222.526 26 400.526 26 c 0
 454.526 26 514.928 42 555.729 74 c 1
 587.4 223 l 2
 595.924 263.1 569.61 266.8 515.603 271 c 1
 510.878 277 515.979 301 523.255 307 c 1
 570.042 306 607.83 305 646.83 305 c 0
 686.83 305 706.042 306 736.255 307 c 1
 740.979 301 735.878 277 728.603 271 c 1
 698.965 268 679.882 258.2 672.4 223 c 2
 648.594 111 l 2
 646.256 100 649.555 92 658.643 83 c 1
 578.313 25 487.874 -10 369.874 -10 c 0
 168.874 -10 60.4824 134 97.2549 307 c 0
 144.018 527 344.862 658 516.862 658 c 0
EndSplineSet
Position2: "'cpsp' Versalabstaende 1" dx=2 dy=0 dh=5 dv=0
Substitution2: "'c2sc' Versale nach Kapitaelchen 1" gbreve.sc
Colour: ff00ff
EndChar

StartChar: gbreve
Encoding: 287 287 51
Width: 500
VWidth: 999
Flags: HW
HStem: -238 37<152.298 302.696> -12 61<172.809 359.728> 136 31<175.133 272.366> 408 31<167.815 264.598> 497 57<150.968 287.898>
VStem: 32 66<-157.965 -57.3985> 59 78<210.052 363.612> 85 26<603.805 635.769> 308 76<209.75 368.749> 328 27<605.333 635.63> 401 52<-133.448 -47.7496>
LayerCount: 2
Fore
SplineSet
248.887 644 m 1
 248.621 591 283.756 554 337.756 554 c 0
 389.756 554 442.559 586 464.887 644 c 1
 489.336 632 l 1
 459.056 546 384.641 497 325.641 497 c 0
 255.641 497 215.269 547 219.336 632 c 1
 248.887 644 l 1
378.304 279 m 0
 395.945 362 371.723 408 308.723 408 c 0
 253.723 408 221.071 372 206.192 302 c 0
 192.589 238 186.497 167 270.497 167 c 0
 307.497 167 358.535 186 378.304 279 c 0
129.874 -10 m 1
 93.4346 -45 86.1211 -70 78.8945 -104 c 0
 64.4404 -172 142.276 -201 178.276 -201 c 0
 268.276 -201 382.354 -163 397.657 -91 c 0
 403.184 -65 394.159 -51 359.836 -29 c 0
 334.236 -13 292.449 -12 242.449 -12 c 0
 228.449 -12 199.812 -15 168.812 -15 c 0
 155.812 -15 140.236 -13 129.874 -10 c 1
527.472 388 m 0
 510.472 388 502.385 397 500.085 405 c 1
 495.998 414 491.636 417 484.636 417 c 0
 471.636 417 448.66 403 439.535 393 c 1
 462.158 363 470.419 336 460.429 289 c 0
 439.599 191 346.907 136 258.907 136 c 0
 219.907 136 193.396 143 172.371 157 c 1
 156.758 140 146.294 119 142.043 99 c 0
 132.903 56 164.928 42 193.928 42 c 0
 198.928 42 209.14 43 224.353 44 c 0
 248.99 47 274.415 49 292.415 49 c 0
 329.415 49 399.203 48 431.401 16 c 0
 455.3 -8 464.985 -33 458.184 -65 c 0
 435.228 -173 275.411 -238 140.411 -238 c 0
 63.4111 -238 -12.8496 -211 5.64258 -124 c 0
 14.7832 -81 52.5605 -35 113.362 -3 c 1
 90.126 10 76.0771 38 83.7295 74 c 0
 90.9561 108 116.096 151 149.197 175 c 1
 126.937 202 109.525 233 121.004 287 c 0
 140.559 379 235.312 439 324.312 439 c 0
 383.312 439 412.062 419 422.36 411 c 1
 455.588 445 507.201 462 533.201 462 c 0
 560.201 462 575.588 445 571.124 424 c 0
 566.447 402 548.472 388 527.472 388 c 0
EndSplineSet
AlternateSubs2: "'aalt' Alle Alternativen zeigen 1" gbreve.sc
Substitution2: "'smcp' Gemeine nach Kapitaelchen 1" gbreve.sc
Colour: ff00ff
EndChar

StartChar: Gdotaccent
Encoding: 288 288 52
Width: 695
VWidth: 999
Flags: HW
HStem: -10 36<299.692 489.453> 271 36<453 485 626.062 672> 621 37<278.364 463.377> 700 104<334.542 417.458>
VStem: 32 87<215.673 431.42> 324 104<710.542 793.458> 540 81<83.4212 262.951> 585 30<457.6 492.683>
LayerCount: 2
Fore
SplineSet
483.843 752 m 0
 489.794 780 518.896 804 546.896 804 c 0
 574.896 804 593.794 780 587.843 752 c 0
 581.891 724 552.79 700 524.79 700 c 0
 496.79 700 477.891 724 483.843 752 c 0
516.862 658 m 0
 638.862 658 665.297 613 725.297 613 c 1
 716.993 541 714.491 501 714.563 459 c 1
 679.288 453 l 1
 671.568 539 639.998 621 494.998 621 c 0
 359.998 621 229.703 502 192.506 327 c 0
 164.448 195 222.526 26 400.526 26 c 0
 454.526 26 514.928 42 555.729 74 c 1
 587.4 223 l 2
 595.924 263.1 569.61 266.8 515.603 271 c 1
 510.878 277 515.979 301 523.255 307 c 1
 570.042 306 607.83 305 646.83 305 c 0
 686.83 305 706.042 306 736.255 307 c 1
 740.979 301 735.878 277 728.603 271 c 1
 698.965 268 679.882 258.2 672.4 223 c 2
 648.594 111 l 2
 646.256 100 649.555 92 658.643 83 c 1
 578.313 25 487.874 -10 369.874 -10 c 0
 168.874 -10 60.4824 134 97.2549 307 c 0
 144.018 527 344.862 658 516.862 658 c 0
EndSplineSet
Position2: "'cpsp' Versalabstaende 1" dx=2 dy=0 dh=5 dv=0
Colour: ff00ff
EndChar

StartChar: gdotaccent
Encoding: 289 289 53
Width: 500
VWidth: 999
Flags: HW
HStem: -238 37<160 318> -12 61<181 378> 136 31<184 286> 408 31<176 278> 525 98<189.385 270.615>
VStem: 34 69<-158 -57> 62 82<210 364> 181 98<533.385 614.615> 323 80<210 369> 421 55<-133 -48>
LayerCount: 2
Fore
SplineSet
303.008 574 m 0
 308.746 601 335.423 623 362.423 623 c 0
 389.423 623 406.746 601 401.008 574 c 0
 395.269 547 368.592 525 341.592 525 c 0
 314.592 525 297.269 547 303.008 574 c 0
378.304 279 m 0
 395.945 362 371.723 408 308.723 408 c 0
 253.723 408 221.071 372 206.192 302 c 0
 192.589 238 186.497 167 270.497 167 c 0
 307.497 167 358.535 186 378.304 279 c 0
129.874 -10 m 1
 93.4346 -45 86.1211 -70 78.8945 -104 c 0
 64.4404 -172 142.276 -201 178.276 -201 c 0
 268.276 -201 382.354 -163 397.657 -91 c 0
 403.184 -65 394.159 -51 359.836 -29 c 0
 334.236 -13 292.449 -12 242.449 -12 c 0
 228.449 -12 199.812 -15 168.812 -15 c 0
 155.812 -15 140.236 -13 129.874 -10 c 1
527.472 388 m 0
 510.472 388 502.385 397 500.085 405 c 1
 495.998 414 491.636 417 484.636 417 c 0
 471.636 417 448.66 403 439.535 393 c 1
 462.158 363 470.419 336 460.429 289 c 0
 439.599 191 346.907 136 258.907 136 c 0
 219.907 136 193.396 143 172.371 157 c 1
 156.758 140 146.294 119 142.043 99 c 0
 132.903 56 164.928 42 193.928 42 c 0
 198.928 42 209.14 43 224.353 44 c 0
 248.99 47 274.415 49 292.415 49 c 0
 329.415 49 399.203 48 431.401 16 c 0
 455.3 -8 464.985 -33 458.184 -65 c 0
 435.228 -173 275.411 -238 140.411 -238 c 0
 63.4111 -238 -12.8496 -211 5.64258 -124 c 0
 14.7832 -81 52.5605 -35 113.362 -3 c 1
 90.126 10 76.0771 38 83.7295 74 c 0
 90.9561 108 116.096 151 149.197 175 c 1
 126.937 202 109.525 233 121.004 287 c 0
 140.559 379 235.312 439 324.312 439 c 0
 383.312 439 412.062 419 422.36 411 c 1
 455.588 445 507.201 462 533.201 462 c 0
 560.201 462 575.588 445 571.124 424 c 0
 566.447 402 548.472 388 527.472 388 c 0
EndSplineSet
Colour: ff00ff
EndChar

StartChar: Gcommaaccent
Encoding: 290 290 54
Width: 695
VWidth: 999
Flags: HW
HStem: -226 24<326.315 356.976> -123 82<331.324 396.34> -10 36<299.692 489.453> 271 36<453 485 626.062 672> 621 37<278.364 463.377>
VStem: 32 87<215.673 431.42> 398 39<-177.408 -99.958> 540 81<83.4212 262.951> 585 30<457.6 492.683>
LayerCount: 2
Fore
SplineSet
366.285 -41 m 0
 404.285 -41 421.059 -75 410.005 -127 c 0
 397.252 -187 341.875 -217 282.962 -226 c 1
 278.237 -220 278.15 -211 280.063 -202 c 1
 331.401 -191 362.503 -167 366.329 -149 c 0
 370.58 -129 358.431 -125 340.855 -123 c 1
 324.493 -120 301.406 -111 307.146 -84 c 0
 312.247 -60 337.285 -41 366.285 -41 c 0
516.862 658 m 0
 638.862 658 665.297 613 725.297 613 c 1
 716.993 541 714.491 501 714.563 459 c 1
 679.288 453 l 1
 671.568 539 639.998 621 494.998 621 c 0
 359.998 621 229.703 502 192.506 327 c 0
 164.448 195 222.526 26 400.526 26 c 0
 454.526 26 514.928 42 555.729 74 c 1
 587.4 223 l 2
 595.924 263.1 569.61 266.8 515.603 271 c 1
 510.878 277 515.979 301 523.255 307 c 1
 570.042 306 607.83 305 646.83 305 c 0
 686.83 305 706.042 306 736.255 307 c 1
 740.979 301 735.878 277 728.603 271 c 1
 698.965 268 679.882 258.2 672.4 223 c 2
 648.594 111 l 2
 646.256 100 649.555 92 658.643 83 c 1
 578.313 25 487.874 -10 369.874 -10 c 0
 168.874 -10 60.4824 134 97.2549 307 c 0
 144.018 527 344.862 658 516.862 658 c 0
EndSplineSet
Position2: "'cpsp' Versalabstaende 1" dx=2 dy=0 dh=5 dv=0
Colour: ff00ff
EndChar

StartChar: gcommaaccent
Encoding: 291 291 55
Width: 500
VWidth: 999
Flags: HW
HStem: -238 37<152.298 302.696> -12 61<172.809 359.728> 136 31<175.133 272.366> 408 31<167.815 264.598> 511 82<199.561 272.708> 673 17<251.498 273>
VStem: 32 66<-157.965 -57.3985> 59 78<210.052 363.612> 166 32<584 635.93> 308 76<209.75 368.749> 401 52<-133.448 -47.7496>
LayerCount: 2
Fore
SplineSet
336.616 511 m 0
 297.616 511 282.481 548 290.133 584 c 0
 295.234 608 306.91 630 327.162 650 c 0
 348.547 671.1 380.239 688 419.302 693 c 1
 422.451 689 421.538 680 420.051 673 c 1
 360.5 661 333.698 629 328.81 606 c 0
 324.644 586.4 330.846 593 355.046 593 c 0
 395.046 593 399.944 569 396.331 552 c 0
 392.931 536 371.616 511 336.616 511 c 0
378.304 279 m 0
 395.945 362 371.723 408 308.723 408 c 0
 253.723 408 221.071 372 206.192 302 c 0
 192.589 238 186.497 167 270.497 167 c 0
 307.497 167 358.535 186 378.304 279 c 0
129.874 -10 m 1
 93.4346 -45 86.1211 -70 78.8945 -104 c 0
 64.4404 -172 142.276 -201 178.276 -201 c 0
 268.276 -201 382.354 -163 397.657 -91 c 0
 403.184 -65 394.159 -51 359.836 -29 c 0
 334.236 -13 292.449 -12 242.449 -12 c 0
 228.449 -12 199.812 -15 168.812 -15 c 0
 155.812 -15 140.236 -13 129.874 -10 c 1
527.472 388 m 0
 510.472 388 502.385 397 500.085 405 c 1
 495.998 414 491.636 417 484.636 417 c 0
 471.636 417 448.66 403 439.535 393 c 1
 462.158 363 470.419 336 460.429 289 c 0
 439.599 191 346.907 136 258.907 136 c 0
 219.907 136 193.396 143 172.371 157 c 1
 156.758 140 146.294 119 142.043 99 c 0
 132.903 56 164.928 42 193.928 42 c 0
 198.928 42 209.14 43 224.353 44 c 0
 248.99 47 274.415 49 292.415 49 c 0
 329.415 49 399.203 48 431.401 16 c 0
 455.3 -8 464.985 -33 458.184 -65 c 0
 435.228 -173 275.411 -238 140.411 -238 c 0
 63.4111 -238 -12.8496 -211 5.64258 -124 c 0
 14.7832 -81 52.5605 -35 113.362 -3 c 1
 90.126 10 76.0771 38 83.7295 74 c 0
 90.9561 108 116.096 151 149.197 175 c 1
 126.937 202 109.525 233 121.004 287 c 0
 140.559 379 235.312 439 324.312 439 c 0
 383.312 439 412.062 419 422.36 411 c 1
 455.588 445 507.201 462 533.201 462 c 0
 560.201 462 575.588 445 571.124 424 c 0
 566.447 402 548.472 388 527.472 388 c 0
EndSplineSet
Colour: ff00ff
EndChar

StartChar: Hcircumflex
Encoding: 292 292 56
Width: 710
VWidth: 999
Flags: HW
HStem: -2 29<20 52 242 274 427 459 649 682> 321 42<187 513> 618 29<19 52 242 274 426 459 649 681>
VStem: 106 81<35.58 321 363 609.207> 513 81<35.748 321 363 609.203>
LayerCount: 2
Fore
SplineSet
623.932 122 m 2
 606.29 39 622.227 34 691.589 31 c 1
 696.313 25 691.851 4 684.575 -2 c 1
 634.787 -1 606 0 556 0 c 0
 505 0 474.787 -1 425.575 -2 c 1
 420.851 4 425.313 25 432.589 31 c 1
 503.227 34 521.29 39 538.932 122 c 2
 581.23 321 l 1
 259.23 321 l 1
 216.932 122 l 2
 199.29 39 215.227 34 284.589 31 c 1
 289.313 25 284.851 4 277.575 -2 c 1
 227.787 -1 199 0 149 0 c 0
 98 0 67.7871 -1 18.5752 -2 c 1
 13.8506 4 18.3135 25 25.5889 31 c 1
 96.2266 34 114.29 39 131.932 122 c 2
 217.167 523 l 2
 234.81 606 218.872 611 149.51 614 c 1
 144.785 620 149.249 641 156.524 647 c 1
 206.312 646 235.099 645 285.099 645 c 0
 336.099 645 366.312 646 415.524 647 c 1
 420.249 641 415.785 620 408.51 614 c 1
 337.872 611 319.81 606 302.167 523 c 2
 268.158 363 l 1
 590.158 363 l 1
 624.167 523 l 2
 641.81 606 625.872 611 556.51 614 c 1
 551.785 620 556.249 641 563.524 647 c 1
 613.312 646 642.099 645 692.099 645 c 0
 743.099 645 773.312 646 822.524 647 c 1
 827.249 641 822.785 620 815.51 614 c 1
 744.872 611 726.81 606 709.167 523 c 2
 623.932 122 l 2
537.32 806 m 1
 559.669 770 589.441 736 619.702 709 c 1
 614.969 699.9 609.146 691.8 599.239 688 c 1
 564.064 706 533.891 724 506.205 749 c 1
 463.466 722 427.853 705 386.239 688 c 1
 378.515 694 376.79 700 376.702 709 c 1
 419.654 737 460.094 772 498.32 806 c 1
 514.106 814.4 523.558 813.7 537.32 806 c 1
EndSplineSet
Position2: "'cpsp' Versalabstaende 1" dx=2 dy=0 dh=5 dv=0
Colour: ff00ff
EndChar

StartChar: hcircumflex
Encoding: 293 293 57
Width: 526
VWidth: 999
Flags: HW
HStem: -2 33<14.8555 74.8652 177.846 230.145 300.188 352.637 457.435 513.812> 387 52<247.089 343.581> 641 30<20.0654 78.3801> 717 115
VStem: 88 79<40.3963 331.447 358 635.885> 144 243 365 79<40.3691 365.453>
LayerCount: 2
Fore
SplineSet
461.484 835 m 1
 483.833 799 513.605 765 543.867 738 c 1
 539.133 728.9 533.311 720.8 523.403 717 c 1
 488.229 735 458.055 753 430.369 778 c 1
 387.63 751 352.017 734 310.403 717 c 1
 302.679 723 300.954 729 300.867 738 c 1
 343.818 766 384.258 801 422.484 835 c 1
 438.271 843.4 447.722 842.7 461.484 835 c 1
227.77 285.9 m 2
 192.932 122 l 2
 175.29 39 183.439 35 233.39 31 c 1
 238.114 25 233.65 4 226.375 -2 c 1
 184.487 -1 167 0 128 0 c 0
 85 0 59.1875 -1 17.7744 -2 c 1
 13.0498 4 17.5137 25 24.7891 31 c 1
 83.6396 35 96.29 39 113.932 122 c 2
 206.819 559 l 2
 224.674 643 211.611 638 160.249 641 c 1
 155.524 647 156.925 663 160.625 671 c 1
 201.263 674 279.239 688 306.364 698 c 1
 315.364 698 318.727 695 317.239 688 c 2
 317.239 688 304.937 648 290.921 583 c 2
 242.295 358 l 2
 239.319 344 247.888 354.2 252.096 358 c 0
 327.549 426 378.212 439 427.312 439 c 0
 462.312 439 490.962 427 503.085 405 c 0
 519.902 374.5 513.293 326 501.603 271 c 2
 469.932 122 l 2
 452.502 40 462.652 36 517.589 31 c 1
 521.313 25 516.851 4 510.575 -2 c 1
 467.787 -1 446 0 405 0 c 0
 365 0 344.787 -1 302.575 -2 c 1
 298.851 4 303.313 25 309.589 31 c 1
 362.652 36 373.502 40 390.932 122 c 2
 423.24 274 l 2
 429.617 304 433.398 331.2 427.607 351 c 0
 420.875 373.9 402.659 387 382.26 387 c 0
 342.859 387 299.646 365.3 253.719 328 c 0
 243.869 319.3 232.255 307 227.77 285.9 c 2
EndSplineSet
Colour: ff00ff
EndChar

StartChar: Hbar
Encoding: 294 294 58
Width: 710
VWidth: 999
Flags: HW
HStem: -2 29<20 52 242 274 427 459 649 682> 321 42<187 513> 512 34<41 656> 618 29<19 52 242 274 426 459 649 681>
VStem: 106 81<35.58 321 363 609.207> 513 81<35.748 321 363 609.203>
LayerCount: 2
Fore
SplineSet
623.932 122 m 2
 606.29 39 622.227 34 691.589 31 c 1
 696.313 25 691.851 4 684.575 -2 c 1
 634.787 -1 606 0 556 0 c 0
 505 0 474.787 -1 425.575 -2 c 1
 420.851 4 425.313 25 432.589 31 c 1
 503.227 34 521.29 39 538.932 122 c 2
 581.23 321 l 1
 259.23 321 l 1
 216.932 122 l 2
 199.29 39 215.227 34 284.589 31 c 1
 289.313 25 284.851 4 277.575 -2 c 1
 227.787 -1 199 0 149 0 c 0
 98 0 67.7871 -1 18.5752 -2 c 1
 13.8506 4 18.3135 25 25.5889 31 c 1
 96.2266 34 114.29 39 131.932 122 c 2
 214.829 512 l 1
 149.829 512 l 1
 157.056 546 l 1
 221.456 546 l 1
 231.021 607 211.836 611.3 149.51 614 c 1
 144.785 620 149.249 641 156.524 647 c 1
 206.312 646 235.099 645 285.099 645 c 0
 336.099 645 366.312 646 415.524 647 c 1
 420.249 641 415.785 620 408.51 614 c 1
 345.036 611.3 324.021 607 307.656 546 c 1
 628.456 546 l 1
 638.021 607 618.836 611.3 556.51 614 c 1
 551.785 620 556.249 641 563.524 647 c 1
 613.312 646 642.099 645 692.099 645 c 0
 743.099 645 773.312 646 822.524 647 c 1
 827.249 641 822.785 620 815.51 614 c 1
 752.036 611.3 731.021 607 714.656 546 c 1
 772.056 546 l 1
 764.829 512 l 1
 706.829 512 l 1
 623.932 122 l 2
621.829 512 m 1
 299.829 512 l 1
 268.158 363 l 1
 590.158 363 l 1
 621.829 512 l 1
EndSplineSet
Position2: "'cpsp' Versalabstaende 1" dx=2 dy=0 dh=5 dv=0
Colour: ff9ccc
EndChar

StartChar: hbar
Encoding: 295 295 59
Width: 526
VWidth: 999
Flags: HW
HStem: -2 29<21 45 206 231 293 318 479 504> 392 47<245.141 344.739> 530 39<26 341> 678 20<140.465 157.5>
VStem: 88 75<33.5257 337.568 356 639.899> 361 75<33.5163 375.24>
LayerCount: 2
Fore
SplineSet
227.77 285.9 m 2
 192.932 122 l 2
 175.29 39 183.439 35 233.39 31 c 1
 238.114 25 233.65 4 226.375 -2 c 1
 184.487 -1 167 0 128 0 c 0
 85 0 59.1875 -1 17.7744 -2 c 1
 13.0498 4 17.5137 25 24.7891 31 c 1
 83.6396 35 96.29 39 113.932 122 c 2
 200.655 530 l 1
 138.655 530 l 1
 146.944 569 l 1
 208.845 569 l 1
 223.489 642.6 209.433 638.1 160.249 641 c 1
 155.524 647 156.925 663 160.625 671 c 1
 201.263 674 279.239 688 306.364 698 c 1
 315.364 698 318.727 695 317.239 688 c 2
 317.239 688 304.937 648 290.921 583 c 2
 287.944 569 l 1
 461.944 569 l 1
 453.655 530 l 1
 279.455 530 l 1
 242.295 358 l 2
 239.319 344 247.888 354.2 252.096 358 c 0
 327.549 426 378.212 439 427.312 439 c 0
 462.312 439 490.962 427 503.085 405 c 0
 519.902 374.5 513.293 326 501.603 271 c 2
 469.932 122 l 2
 452.502 40 462.652 36 517.589 31 c 1
 521.313 25 516.851 4 510.575 -2 c 1
 467.787 -1 446 0 405 0 c 0
 365 0 344.787 -1 302.575 -2 c 1
 298.851 4 303.313 25 309.589 31 c 1
 362.652 36 373.502 40 390.932 122 c 2
 423.24 274 l 2
 429.617 304 433.398 331.2 427.607 351 c 0
 420.875 373.9 402.659 387 382.26 387 c 0
 342.859 387 299.646 365.3 253.719 328 c 0
 243.869 319.3 232.255 307 227.77 285.9 c 2
EndSplineSet
Colour: ff9ccc
EndChar

StartChar: Itilde
Encoding: 296 296 60
Width: 297
VWidth: 999
Flags: HW
HStem: -2 29<20 52 242 274> 618 29<19 52 242 274> 697 44<162 249> 745 46<44 135> 784 10
VStem: 106 81<35.3322 609.22>
LayerCount: 2
Fore
SplineSet
371.143 744 m 0
 393.143 744 406.268 754 429.195 796 c 1
 440.407 797 449.77 794 454.92 790 c 1
 430.166 730 392.877 691 346.877 691 c 0
 324.877 691 307.702 709 289.679 723 c 0
 274.017 734 256.717 742 239.717 742 c 0
 213.717 742 200.528 727 183.515 694 c 1
 172.089 692 162.302 693 157.577 699 c 1
 184.118 758 215.407 797 258.407 797 c 0
 288.407 797 306.156 777 323.181 763 c 0
 336.63 751 352.143 744 371.143 744 c 0
216.932 122 m 2
 199.29 39 215.227 34 284.589 31 c 1
 289.313 25 284.851 4 277.575 -2 c 1
 227.787 -1 199 0 149 0 c 0
 98 0 67.7871 -1 18.5752 -2 c 1
 13.8506 4 18.3135 25 25.5889 31 c 1
 96.2266 34 114.29 39 131.932 122 c 2
 217.167 523 l 2
 234.81 606 218.872 611 149.51 614 c 1
 144.785 620 149.249 641 156.524 647 c 1
 206.312 646 235.099 645 285.099 645 c 0
 336.099 645 366.312 646 415.524 647 c 1
 420.249 641 415.785 620 408.51 614 c 1
 337.872 611 319.81 606 302.167 523 c 2
 216.932 122 l 2
EndSplineSet
Position2: "'cpsp' Versalabstaende 1" dx=2 dy=0 dh=5 dv=0
Colour: ff00ff
EndChar

StartChar: itilde
Encoding: 297 297 61
Width: 271
VWidth: 999
Flags: HW
HStem: -2 29<34 59 219 245> 422 20<161.75 177.219> 526 44<138.2 216.5> 574 46<32 113.9> 613 10
VStem: 102 75<33.5056 383>
AnchorPoint: "unten_anhang" 141.575 -2 basechar 0
AnchorPoint: "unten_punkt" 112.619 -110 basechar 0
AnchorPoint: "top_akzent" 307.982 795 basechar 0
LayerCount: 2
Fore
SplineSet
305.895 573 m 0
 325.695 573 337.721 583 359.248 625 c 1
 369.36 626 377.723 623 382.272 619 c 1
 358.719 559 324.329 520 282.93 520 c 0
 263.13 520 248.056 538 232.131 552 c 0
 218.27 563 202.87 571 187.569 571 c 0
 164.17 571 151.981 556 135.967 523 c 1
 125.642 521 116.854 522 112.729 528 c 1
 137.871 587 166.86 626 205.561 626 c 0
 232.561 626 248.109 606 263.134 592 c 0
 274.982 580 288.795 573 305.895 573 c 0
206.932 122 m 2
 189.29 39 199.439 35 259.589 31 c 1
 264.313 25 259.851 4 252.575 -2 c 1
 209.787 -1 185 0 142 0 c 0
 98 0 71.7871 -1 29.5752 -2 c 1
 24.8506 4 29.3135 25 36.5889 31 c 1
 98.6523 36 110.29 39 127.932 122 c 2
 169.381 317 l 2
 181.496 374 172.25 379.9 118.834 385 c 1
 118.109 391 119.511 407 122.786 413 c 1
 193.699 422 235.112 431 265.95 442 c 1
 273.95 442 278.312 439 277.462 435 c 2
 277.462 435 259.858 371 249.294 321.3 c 2
 206.932 122 l 2
EndSplineSet
Colour: ff00ff
EndChar

StartChar: Imacron
Encoding: 298 298 62
Width: 297
VWidth: 999
Flags: HW
HStem: -2 29<20 52 242 274> 618 29<19 52 242 274> 733 44<9.0876 287.515>
VStem: 8 281<733.205 777> 106 81<35.3322 609.22>
LayerCount: 2
Fore
SplineSet
413.354 745 m 2
 189.354 745 l 2
 180.354 745 178.692 756 180.181 763 c 0
 182.731 775 197.982 795 208.982 795 c 2
 433.982 795 l 2
 443.982 795 445.645 784 444.369 778 c 0
 441.818 766 426.354 745 413.354 745 c 2
216.932 122 m 2
 199.29 39 215.227 34 284.589 31 c 1
 289.313 25 284.851 4 277.575 -2 c 1
 227.787 -1 199 0 149 0 c 0
 98 0 67.7871 -1 18.5752 -2 c 1
 13.8506 4 18.3135 25 25.5889 31 c 1
 96.2266 34 114.29 39 131.932 122 c 2
 217.167 523 l 2
 234.81 606 218.872 611 149.51 614 c 1
 144.785 620 149.249 641 156.524 647 c 1
 206.312 646 235.099 645 285.099 645 c 0
 336.099 645 366.312 646 415.524 647 c 1
 420.249 641 415.785 620 408.51 614 c 1
 337.872 611 319.81 606 302.167 523 c 2
 216.932 122 l 2
EndSplineSet
Position2: "'cpsp' Versalabstaende 1" dx=2 dy=0 dh=5 dv=0
Colour: ff00ff
EndChar

StartChar: imacron
Encoding: 299 299 63
Width: 271
VWidth: 999
Flags: HW
HStem: -2 33<26.625 88.875 194.125 256.375> 422 20<157.75 176> 518 50<8.30159 239.331>
VStem: 6.6 234.9<518.239 568> 102 79<40.8314 380.346>
LayerCount: 2
Fore
SplineSet
330.004 518 m 2
 128.404 518 l 2
 120.305 518 119.042 529 120.53 536 c 0
 123.081 548 137.232 568 147.132 568 c 2
 349.632 568 l 2
 358.632 568 359.894 557 358.619 551 c 0
 356.068 539 341.704 518 330.004 518 c 2
206.932 122 m 2
 189.29 39 199.439 35 259.589 31 c 1
 264.313 25 259.851 4 252.575 -2 c 1
 209.787 -1 185 0 142 0 c 0
 98 0 71.7871 -1 29.5752 -2 c 1
 24.8506 4 29.3135 25 36.5889 31 c 1
 98.6523 36 110.29 39 127.932 122 c 2
 169.381 317 l 2
 181.496 374 172.25 379.9 118.834 385 c 1
 118.109 391 119.511 407 122.786 413 c 1
 193.699 422 235.112 431 265.95 442 c 1
 273.95 442 278.312 439 277.462 435 c 2
 277.462 435 259.858 371 249.294 321.3 c 2
 206.932 122 l 2
EndSplineSet
Colour: ff00ff
EndChar

StartChar: Ibreve
Encoding: 300 300 64
Width: 297
VWidth: 999
Flags: HW
HStem: -2 29<20 52 242 274> 618 29<19 52 242 274> 692 52<70 226>
VStem: 13 28<765 803> 106 81<35.3322 609.22> 257 27<767 805>
LayerCount: 2
Fore
SplineSet
456.108 805 m 1
 435.017 734 362.089 692 296.089 692 c 0
 223.089 692 174.229 735 184.108 805 c 1
 212.108 805 l 1
 211.818 766 254.142 744 307.143 744 c 0
 356.143 744 412.818 766 428.108 805 c 1
 456.108 805 l 1
216.932 122 m 2
 199.29 39 215.227 34 284.589 31 c 1
 289.313 25 284.851 4 277.575 -2 c 1
 227.787 -1 199 0 149 0 c 0
 98 0 67.7871 -1 18.5752 -2 c 1
 13.8506 4 18.3135 25 25.5889 31 c 1
 96.2266 34 114.29 39 131.932 122 c 2
 217.167 523 l 2
 234.81 606 218.872 611 149.51 614 c 1
 144.785 620 149.249 641 156.524 647 c 1
 206.312 646 235.099 645 285.099 645 c 0
 336.099 645 366.312 646 415.524 647 c 1
 420.249 641 415.785 620 408.51 614 c 1
 337.872 611 319.81 606 302.167 523 c 2
 216.932 122 l 2
EndSplineSet
Position2: "'cpsp' Versalabstaende 1" dx=2 dy=0 dh=5 dv=0
Colour: ff00ff
EndChar

StartChar: ibreve
Encoding: 301 301 65
Width: 271
VWidth: 999
Flags: HW
HStem: -2 29<34 59 219 245> 422 20<161.75 177.219> 503 57<63.2712 186.508>
VStem: 3.9 23.4<609.805 641.769> 102 75<33.5056 383> 222.6 24.3<611.333 641.63>
LayerCount: 2
Fore
SplineSet
166.361 650 m 1
 164.996 597 195.832 560 244.432 560 c 0
 291.231 560 339.434 592 360.762 650 c 1
 382.511 638 l 1
 353.432 552 285.416 503 232.316 503 c 0
 169.316 503 134.044 553 139.511 638 c 1
 166.361 650 l 1
206.932 122 m 2
 189.29 39 199.439 35 259.589 31 c 1
 264.313 25 259.851 4 252.575 -2 c 1
 209.787 -1 185 0 142 0 c 0
 98 0 71.7871 -1 29.5752 -2 c 1
 24.8506 4 29.3135 25 36.5889 31 c 1
 98.6523 36 110.29 39 127.932 122 c 2
 169.381 317 l 2
 181.496 374 172.25 379.9 118.834 385 c 1
 118.109 391 119.511 407 122.786 413 c 1
 193.699 422 235.112 431 265.95 442 c 1
 273.95 442 278.312 439 277.462 435 c 2
 277.462 435 259.858 371 249.294 321.3 c 2
 206.932 122 l 2
EndSplineSet
Colour: ff00ff
EndChar

StartChar: Iogonek
Encoding: 302 302 66
Width: 297
VWidth: 999
Flags: HW
HStem: -200 38<142.519 225.833> -2 17<214.684 241> -2 29<20 52 242 274> 618 29<19 52 242 274>
VStem: 73 62<-155.299 -63.1465> 106 81<35.3322 609.22>
AnchorPoint: "top_akzent" 326.673 850 basechar 0
LayerCount: 2
Fore
SplineSet
242.305 -135 m 1
 203.74 -180 159.488 -200 118.488 -200 c 0
 68.4883 -200 34.7402 -180 46.2178 -126 c 0
 55.0391 -84.5 102.961 -27 169.179 -0.0996094 c 1
 162.778 -0.0996094 156.1 0 149 0 c 0
 98 0 67.7871 -1 18.5752 -2 c 1
 13.8506 4 18.3135 25 25.5889 31 c 1
 96.2266 34 114.29 39 131.932 122 c 2
 217.167 523 l 2
 234.81 606 218.872 611 149.51 614 c 1
 144.785 620 149.249 641 156.524 647 c 1
 206.312 646 235.099 645 285.099 645 c 0
 336.099 645 366.312 646 415.524 647 c 1
 420.249 641 415.785 620 408.51 614 c 1
 337.872 611 319.81 606 302.167 523 c 2
 216.932 122 l 2
 199.29 39 215.227 34 284.589 31 c 1
 289.313 25 284.851 4 277.575 -2 c 1
 269.317 -1.7998 261.639 -1.7002 254.281 -1.5 c 1
 254.575 -2 l 1
 183.575 -2 120.334 -69 110.556 -115 c 0
 105.029 -141 113.565 -162 150.565 -162 c 0
 179.565 -162 198.967 -146 225.643 -124 c 1
 234.643 -124 239.793 -128 242.305 -135 c 1
EndSplineSet
Position2: "'cpsp' Versalabstaende 1" dx=2 dy=0 dh=5 dv=0
Colour: ff9ccc
EndChar

StartChar: iogonek
Encoding: 303 303 67
Width: 271
VWidth: 999
Flags: HW
HStem: -200 38<130.519 213.833> -2 17<202.684 229> -2 29<34 59 219 245> 422 20<161.75 177.219> 522 96<94.332 173.668>
VStem: 61 62<-155.299 -63.1465> 86 96<530.332 609.668> 102 75<33.5056 383>
AnchorPoint: "top_akzent" 296.731 775 basechar 0
LayerCount: 2
Fore
SplineSet
230.305 -135 m 1
 191.74 -180 147.488 -200 106.488 -200 c 0
 56.4883 -200 22.7402 -180 34.2178 -126 c 0
 43.0391 -84.5 91.082 -26.9004 157.3 0 c 1
 152.4 0 147.3 0 142 0 c 0
 98 0 71.7871 -1 29.5752 -2 c 1
 24.8506 4 29.3135 25 36.5889 31 c 1
 98.6523 36 110.29 39 127.932 122 c 2
 169.381 317 l 2
 181.496 374 172.25 379.9 118.834 385 c 1
 118.109 391 119.511 407 122.786 413 c 1
 193.699 422 235.112 431 265.95 442 c 1
 273.95 442 278.312 439 277.462 435 c 2
 277.462 435 259.858 371 249.294 321.3 c 2
 206.932 122 l 2
 189.29 39 199.439 35 259.589 31 c 1
 264.313 25 259.851 4 252.575 -2 c 1
 242.417 -1.7998 l 1
 242.575 -2 l 1
 171.575 -2 108.334 -69 98.5557 -115 c 0
 93.0293 -141 101.565 -162 138.565 -162 c 0
 167.565 -162 186.967 -146 213.643 -124 c 1
 222.643 -124 227.793 -128 230.305 -135 c 1
211.008 574 m 0
 216.746 601 243.423 623 270.423 623 c 0
 297.423 623 314.746 601 309.008 574 c 0
 303.269 547 276.592 525 249.592 525 c 0
 222.592 525 205.269 547 211.008 574 c 0
EndSplineSet
Colour: ff9ccc
EndChar

StartChar: Idotaccent
Encoding: 304 304 68
Width: 297
VWidth: 999
Flags: HW
HStem: -2 29<20 52 242 274> 618 29<19 52 242 274> 698 104<104.542 187.458>
VStem: 94 104<708.542 791.458> 106 81<35.3322 609.22>
LayerCount: 2
Fore
SplineSet
253.417 750 m 0
 259.369 778 288.471 802 316.471 802 c 0
 344.471 802 363.369 778 357.417 750 c 0
 351.466 722 322.364 698 294.364 698 c 0
 266.364 698 247.466 722 253.417 750 c 0
216.932 122 m 2
 199.29 39 215.227 34 284.589 31 c 1
 289.313 25 284.851 4 277.575 -2 c 1
 227.787 -1 199 0 149 0 c 0
 98 0 67.7871 -1 18.5752 -2 c 1
 13.8506 4 18.3135 25 25.5889 31 c 1
 96.2266 34 114.29 39 131.932 122 c 2
 217.167 523 l 2
 234.81 606 218.872 611 149.51 614 c 1
 144.785 620 149.249 641 156.524 647 c 1
 206.312 646 235.099 645 285.099 645 c 0
 336.099 645 366.312 646 415.524 647 c 1
 420.249 641 415.785 620 408.51 614 c 1
 337.872 611 319.81 606 302.167 523 c 2
 216.932 122 l 2
EndSplineSet
Substitution2: "'c2sc' Versale nach Kapitaelchen 1" idotaccent.sc
Position2: "'cpsp' Versalabstaende 1" dx=2 dy=0 dh=5 dv=0
Colour: ff00ff
EndChar

StartChar: afii10057
Encoding: 1032 1032 69
Width: 384
VWidth: 999
Flags: HW
HStem: -7.3 40.3<106.417 176.927> 614 33<109.625 191.5 311 375.375>
VStem: 210 85<100.045 600.635>
LayerCount: 2
Fore
SplineSet
406.167 523 m 2
 342.825 225 l 2
 321.569 125 275.577 58.7002 220.102 24 c 0
 182.749 0.700195 148.148 -7.2998 121.048 -7.2998 c 0
 95.3486 -7.2998 10.9561 4.5 21.4785 54 c 0
 26.1543 76 53.1299 90 67.1299 90 c 0
 98.1299 90 106.497 76.2002 113.391 63 c 0
 118.565 53 121.015 33 135.015 33 c 0
 168.015 33 218.928 42 253.149 203 c 2
 321.167 523 l 2
 338.81 606 322.872 611 243.51 614 c 1
 238.785 620 243.249 641 250.524 647 c 1
 300.312 646 335.099 645 389.099 645 c 0
 436.099 645 460.312 646 509.524 647 c 1
 514.249 641 509.785 620 502.51 614 c 1
 441.872 611 423.81 606 406.167 523 c 2
EndSplineSet
EndChar

StartChar: afii10061
Encoding: 1036 1036 70
Width: 602
VWidth: 999
Flags: HW
HStem: -2 29<20 52 242 274 566 583> 323 43<187 280.713> 590 61<426.699 532.056> 618 29<19 52 242 274> 698 122
VStem: 106 81<35.3322 609.22> 288 201
LayerCount: 2
Fore
SplineSet
601.297 820 m 1
 627.069 806.7 644.071 789.3 652.243 768 c 1
 495.915 710 l 2
 473.002 701 460.364 698 451.364 698 c 0
 442.364 698 437.853 705 439.553 713 c 0
 441.041 720 444.104 725 459.017 734 c 2
 601.297 820 l 1
18 0 m 1
 22.0391 19 l 2
 23.1016 24 26.7393 27 30.7393 27 c 2
 58.1641 29 l 2
 100.823 32.0996 115.14 43 121.092 71 c 2
 228.008 574 l 2
 234.384 604 221.297 613 182.935 616 c 2
 157.36 618 l 2
 153.36 618 149.998 621 151.061 626 c 2
 155.099 645 l 1
 157.524 647 l 1
 207.312 646 233.099 645 283.099 645 c 0
 333.099 645 362.312 646 411.524 647 c 1
 413.099 645 l 1
 409.061 626 l 2
 407.998 621 404.36 618 399.36 618 c 2
 372.935 616 l 2
 332.276 612.9 314.959 602 309.008 574 c 2
 264.796 366 l 1
 300.796 366 346.008 367 372.984 381 c 0
 438.786 413 466.39 477 487.293 533 c 0
 510.471 595 550.374 651 629.374 651 c 0
 682.374 651 694.21 622 689.321 599 c 0
 683.157 570 657.819 559 636.819 559 c 0
 623.819 559 610.882 564 603.008 574 c 0
 594.346 585 587.408 590 574.408 590 c 0
 544.408 590 530.494 557 519.229 528 c 0
 495.052 466 455.771 380 373.82 352 c 1
 372.757 347 l 1
 441.757 347 471.617 304 483.738 234 c 0
 507.144 99 543.589 31 577.951 28 c 2
 593.739 27 l 2
 598.739 27 601.102 24 600.039 19 c 2
 596 0 l 1
 594.575 -2 l 1
 515.787 -1 l 2
 438 0 419.217 81 399.599 191 c 0
 381.754 291 369.868 324 255.868 324 c 1
 202.092 71 l 2
 195.715 41 208.823 32.0996 248.164 29 c 2
 273.739 27 l 2
 277.739 27 281.102 24 280.039 19 c 2
 276 0 l 1
 273.575 -2 l 1
 226 0 197 0 147 0 c 0
 97 0 69 0 19.5752 -2 c 1
 18 0 l 1
EndSplineSet
LCarets2: 1 0 
Colour: ff00ff
EndChar

StartChar: uni040D
Encoding: 1037 1037 71
Width: 710
VWidth: 999
Flags: HW
HStem: -2 29<20 52 242 274 427 459 649 682> 618 28<20 52 242 274 426 459 649 681>
VStem: 106 81<35.9534 78 134 609.354> 514 81<36.3852 505 561 608.905>
DStem2: 187 134 187 78 0.608002 0.793935<0 493.367>
LayerCount: 2
Fore
SplineSet
472.871 818 m 1
 576.017 734 l 2
 585.316 726 588.041 720 586.553 713 c 0
 584.853 705 576.364 698 568.364 698 c 0
 560.364 698 547.002 701 527.915 710 c 2
 387.307 773 l 1
 409.368 790.7 436.206 806.4 472.871 818 c 1
623.932 122 m 2
 606.29 39 622.227 34 691.589 31 c 1
 696.313 25 691.851 4 684.575 -2 c 1
 634.787 -1 606 0 556 0 c 0
 505 0 474.787 -1 425.575 -2 c 1
 420.851 4 425.313 25 432.589 31 c 1
 503.227 34 521.29 39 538.932 122 c 2
 614.602 478 l 1
 606.57 475.5 600.514 471 594.339 465 c 2
 248.97 125 l 2
 234.103 110.1 222.381 102 210.443 78.2998 c 1
 208.765 37 230.278 33.2998 284.589 31 c 1
 289.313 25 284.851 4 277.575 -2 c 1
 227.787 -1 199 0 149 0 c 0
 98 0 67.7871 -1 18.5752 -2 c 1
 13.8506 4 18.3135 25 25.5889 31 c 1
 96.2266 34 114.29 39 131.932 122 c 2
 217.167 523 l 2
 234.81 606 218.872 611 149.51 614 c 1
 144.785 620 149.249 641 156.524 647 c 1
 206.312 646 235.099 645 285.099 645 c 0
 336.099 645 366.312 646 415.524 647 c 1
 420.249 641 415.785 620 408.51 614 c 1
 337.872 611 319.81 606 302.167 523 c 2
 226.497 167 l 1
 231.161 167.3 237.684 170.7 246.535 178 c 1
 594.029 520 l 2
 608.348 534.2 621.495 552.3 630.738 568.5 c 1
 631.756 608.1 610.021 611.7 556.51 614 c 1
 551.785 620 556.249 641 563.524 647 c 1
 613.312 646 642.099 645 692.099 645 c 0
 743.099 645 773.312 646 822.524 647 c 1
 827.249 641 822.785 620 815.51 614 c 1
 744.872 611 726.81 606 709.167 523 c 2
 623.932 122 l 2
EndSplineSet
LCarets2: 1 0 
Colour: ff00ff
EndChar

StartChar: afii10062
Encoding: 1038 1038 72
Width: 580
VWidth: 999
Flags: HW
HStem: -22 62<133 229.447> 618 28<1 51.985 192 235 391 425 520.846 579> 697 31<266.536 357.309>
VStem: 187 70<735.681 802.162> 366 70<734.774 802.125>
DStem2: 170 575 88 559 0.41865 -0.908148<-32.5036 379.947> 283 136 342 161 0.370296 0.928914<-102.293 0 103.423 504.868>
LayerCount: 2
Fore
SplineSet
466.741 728 m 0
 499.741 728 526.354 745 529.968 762 c 0
 531.031 767 531.307 773 531.731 775 c 0
 534.92 790 548.108 805 571.108 805 c 0
 598.108 805 605.132 791 601.094 772 c 0
 590.041 720 526.152 697 460.152 697 c 0
 394.152 697 340.041 720 351.094 772 c 0
 355.132 791 368.108 805 395.108 805 c 0
 418.108 805 424.92 790 421.731 775 c 0
 421.307 773 419.031 767 417.968 762 c 0
 414.354 745 433.741 728 466.741 728 c 0
215.667 523 m 2
 198.037 593.9 191.447 609 135.51 614 c 1
 130.785 620 134.249 641 141.524 647 c 1
 188.312 646 205.099 645 245.099 645 c 0
 284.099 645 319.312 646 366.524 647 c 1
 371.249 641 366.785 620 359.51 614 c 1
 290.021 607 288.063 591.2 301.905 534 c 2
 375.676 229 l 1
 377.676 229 l 1
 550.229 528 l 2
 582.133 584 590.447 609 517.51 614 c 1
 512.785 620 517.249 641 524.524 647 c 1
 571.312 646 610.099 645 633.099 645 c 0
 656.099 645 681.312 646 721.524 647 c 1
 726.249 641 721.785 620 714.51 614 c 1
 646.81 606 623.402 568.8 594.442 521 c 2
 376.222 161 l 2
 310.053 52 239.324 -22 149.324 -22 c 0
 107.324 -22 64.2129 1 71.0146 33 c 0
 76.9658 61 100.217 81 130.217 81 c 0
 144.217 81 164.729 74 172.179 62 c 0
 177.266 53 189.502 40 203.502 40 c 0
 235.502 40 264.966 61 311.907 136 c 1
 215.667 523 l 2
EndSplineSet
LCarets2: 1 0 
Colour: ff00ff
EndChar

StartChar: afii10020
Encoding: 1043 1043 73
Width: 481
VWidth: 999
Flags: HW
HStem: -2 29<14 47 238 270> 605 40<184.437 406.492> 618 28<14 50>
VStem: 102 81<36.3415 603.635> 457 29<488.793 527.352>
LayerCount: 2
Fore
SplineSet
278.099 645 m 1
 483.099 645 l 1
 483.099 645 564.312 646 603.524 647 c 1
 601.84 613.2 598.971 574.3 585.152 490 c 1
 574.539 485.7 564.747 484.8 555.303 486 c 1
 548.969 555 546.597 605 471.597 605 c 2
 348.597 605 l 2
 324.597 605 310.471 595 305.37 571 c 2
 209.932 122 l 2
 192.29 39 208.227 34 277.589 31 c 1
 282.313 25 277.851 4 270.575 -2 c 1
 220.787 -1 192 0 142 0 c 0
 91 0 60.7871 -1 11.5752 -2 c 1
 6.85059 4 11.3135 25 18.5889 31 c 1
 89.2266 34 107.29 39 124.932 122 c 2
 210.167 523 l 2
 227.81 606 211.872 611 142.51 614 c 1
 137.785 620 142.249 641 149.524 647 c 1
 199.312 646 278.099 645 278.099 645 c 1
EndSplineSet
Colour: ff00ff
EndChar

StartChar: afii10021
Encoding: 1044 1044 74
Width: 655
VWidth: 999
Flags: HW
HStem: 0 39<182.009 462.022> 605 40<269.132 462.578> 618 29<151 187 582 617>
VStem: 34 27<-140 -94.0922> 464 81<40.4891 603.884> 595 27<-140 -98.3137>
LayerCount: 2
Fore
SplineSet
121.99 47 m 0
 153.638 73.0996 186.82 145 251.979 301 c 1
 298.211 415 332.104 518 345.495 581 c 0
 349.959 602 343.17 612.4 317.723 615 c 2
 288.36 618 l 2
 283.36 618 280.785 620 281.636 624 c 2
 286.099 645 l 1
 288.524 647 l 1
 288.524 647 358.099 645 388.099 645 c 2
 645.099 645 l 2
 675.099 645 754.524 647 754.524 647 c 1
 756.099 645 l 1
 752.061 626 l 2
 750.785 620 746.424 618.3 742.36 618 c 2
 712.935 616 l 2
 680.268 613.8 672.746 601 665.095 565 c 2
 561.579 78 l 2
 553.715 41 573.877 30 590.739 27 c 0
 611.652 23.2998 618.651 20 616.7 8 c 2
 592.242 -140 l 1
 565.242 -140 565.029 -141 565.029 -141 c 1
 564.933 -85 547 0 467 0 c 2
 181 0 l 2
 98 0 53.082 -89 31.0293 -141 c 1
 4.24219 -140 l 1
 42.7002 8 l 2
 45.8516 20 57.5205 25.5 67.7393 27 c 0
 87.877 30 104.408 32.5 121.99 47 c 0
555.597 605 m 2
 432.597 605 l 2
 405.597 605 392.621 591 385.307 566 c 0
 355.739 465 317.732 361 291.279 293 c 0
 244.41 176 198.367 77 193.903 56 c 0
 191.353 44 203.29 39 217.29 39 c 2
 436.29 39 l 2
 460.29 39 472.928 42 480.792 79 c 2
 584.307 566 l 2
 590.896 597 586.597 605 555.597 605 c 2
EndSplineSet
EndChar

StartChar: afii10024
Encoding: 1046 1046 75
Width: 859
Flags: HW
HStem: -2 29<6 28 303 335 525 557 831 852> 324 42<294.678 389 470 564.322> 590 61<79.7859 169.758 689.242 779.214> 618 29<303 335 525 557>
VStem: 389 81<35.2953 324 366 609.248>
LayerCount: 2
Fore
SplineSet
6 0 m 1
 10.0391 19 l 2
 11.1016 24 13.7393 27 18.7393 27 c 2
 33.9512 28 l 2
 66.5889 31 128.043 99 204.738 234 c 1
 245.617 304 291.757 347 357.757 347 c 1
 358.82 352 l 1
 292.771 380 290.052 466 293.229 528 c 0
 294.394 557 295.408 590 267.408 590 c 0
 255.408 590 246.346 585 234.008 574 c 0
 222.882 564 208.819 559 196.819 559 c 0
 176.819 559 158.157 570 164.321 599 c 0
 169.21 622 192.374 651 242.374 651 c 0
 317.374 651 331.471 595 327.293 533 c 0
 323.489 477 323.786 413 371.984 381 c 1
 391.008 367 432.796 366 466.796 366 c 1
 511.008 574 l 2
 517.384 604 504.297 613 465.935 616 c 2
 440.36 618 l 2
 436.36 618 432.998 621 434.061 626 c 2
 438.099 645 l 1
 440.524 647 l 1
 490.312 646 516.099 645 566.099 645 c 0
 616.099 645 645.312 646 694.524 647 c 1
 696.099 645 l 1
 692.061 626 l 2
 690.998 621 687.36 618 682.36 618 c 2
 655.935 616 l 2
 615.276 612.9 597.959 602 592.008 574 c 2
 547.796 366 l 1
 581.796 366 624.008 367 648.984 381 c 1
 710.786 413 738.289 477 758.293 533 c 0
 780.471 595 818.374 651 893.374 651 c 0
 943.374 651 954.21 622 949.321 599 c 0
 943.157 570 919.819 559 899.819 559 c 0
 887.819 559 875.882 564 869.008 574 c 0
 861.346 585 854.408 590 842.408 590 c 0
 814.408 590 801.394 557 790.229 528 c 0
 767.052 466 727.771 380 649.82 352 c 1
 648.757 347 l 1
 714.757 347 742.617 304 753.738 234 c 1
 773.043 99 805.589 31 836.951 28 c 2
 851.739 27 l 2
 856.739 27 858.102 24 857.039 19 c 2
 853 0 l 1
 851.575 -2 l 1
 777.787 -1 l 2
 704 0 687.217 81 669.599 191 c 1
 654.854 291 643.868 324 538.868 324 c 1
 485.092 71 l 2
 478.715 41 491.823 32.0996 531.164 29 c 2
 556.739 27 l 2
 560.739 27 564.102 24 563.039 19 c 2
 559 0 l 1
 556.575 -2 l 1
 509 0 480 0 430 0 c 0
 380 0 352 0 302.575 -2 c 1
 301 0 l 1
 305.039 19 l 2
 306.102 24 309.739 27 313.739 27 c 2
 341.164 29 l 2
 383.823 32.0996 398.14 43 404.092 71 c 2
 457.868 324 l 1
 352.868 324 327.854 291 270.599 191 c 1
 206.217 81 155 0 80.7871 -1 c 2
 5.5752 -2 l 1
 6 0 l 1
EndSplineSet
Colour: ff9ccc
EndChar

StartChar: afii10025
Encoding: 1047 1047 76
Width: 578
Flags: HW
HStem: -12 36<200.078 368.458> 317 49<169.194 379.155> 624 34<212.7 364.797>
VStem: 68 30<465.533 503.865> 421 88<427.266 574.759> 445 92<91.578 257.488>
LayerCount: 2
Fore
SplineSet
68.4443 115 m 0
 73.5449 139 89.9463 155 109.946 155 c 0
 137.946 155 147.42 129 154.894 103 c 0
 169.903 56 214.102 24 292.102 24 c 0
 391.102 24 463.067 85 482.41 176 c 0
 497.927 249 476.656 323 355.656 323 c 0
 322.656 323 292.381 317 265.381 317 c 0
 253.381 317 237.443 322 241.694 342 c 0
 245.945 362 263.796 366 275.796 366 c 0
 302.796 366 337.521 360 364.521 360 c 0
 470.521 360 512.187 429 526.854 498 c 0
 541.732 568 514.636 624 428.636 624 c 0
 314.636 624 241.331 552 196.626 464 c 1
 167.052 466 l 1
 225.061 626 l 1
 297.548 633 368.862 658 443.862 658 c 0
 582.862 658 633.771 587 616.341 505 c 0
 598.486 421 527.071 372 452.82 352 c 1
 451.545 346 l 1
 542.356 331 592.689 262 574.622 177 c 0
 546.777 46 412.449 -12 285.449 -12 c 0
 185.449 -12 122.672 12.0996 98.29 39 c 0
 76.5127 63.0996 61.4297 82 68.4443 115 c 0
EndSplineSet
EndChar

StartChar: afii10026
Encoding: 1048 1048 77
Width: 710
VWidth: 999
Flags: HW
HStem: -2 33<15.625 88.75 208.25 281.375 422.625 495.75 615.25 688.375> 558 20G<510.373 513> 614 33<15.625 88.75 208.25 281.375 422.625 495.75 615.25 688.375>
VStem: 106 85<43.3808 601.619> 191 0 513 0 513 85<43.3808 601.619>
DStem2: 208.693 178 222.351 125 0.626329 0.779559<-19.5065 424.152>
LayerCount: 2
Fore
SplineSet
623.932 122 m 2
 606.29 39 622.227 34 691.589 31 c 1
 696.313 25 691.851 4 684.575 -2 c 1
 634.787 -1 606 0 556 0 c 0
 505 0 474.787 -1 425.575 -2 c 1
 420.851 4 425.313 25 432.589 31 c 1
 503.227 34 521.29 39 538.932 122 c 2
 614.602 478 l 1
 606.57 475.5 600.514 471 594.339 465 c 2
 248.97 125 l 2
 234.103 110.1 222.381 102 210.443 78.2998 c 1
 208.765 37 230.278 33.2998 284.589 31 c 1
 289.313 25 284.851 4 277.575 -2 c 1
 227.787 -1 199 0 149 0 c 0
 98 0 67.7871 -1 18.5752 -2 c 1
 13.8506 4 18.3135 25 25.5889 31 c 1
 96.2266 34 114.29 39 131.932 122 c 2
 217.167 523 l 2
 234.81 606 218.872 611 149.51 614 c 1
 144.785 620 149.249 641 156.524 647 c 1
 206.312 646 235.099 645 285.099 645 c 0
 336.099 645 366.312 646 415.524 647 c 1
 420.249 641 415.785 620 408.51 614 c 1
 337.872 611 319.81 606 302.167 523 c 2
 226.497 167 l 1
 231.161 167.3 237.684 170.7 246.535 178 c 1
 594.029 520 l 2
 608.348 534.2 621.495 552.3 630.738 568.5 c 1
 631.756 608.1 610.021 611.7 556.51 614 c 1
 551.785 620 556.249 641 563.524 647 c 1
 613.312 646 642.099 645 692.099 645 c 0
 743.099 645 773.312 646 822.524 647 c 1
 827.249 641 822.785 620 815.51 614 c 1
 744.872 611 726.81 606 709.167 523 c 2
 623.932 122 l 2
EndSplineSet
EndChar

StartChar: afii10027
Encoding: 1049 1049 78
Width: 710
VWidth: 999
Flags: HW
HStem: -2 33<15.625 88.75 208.25 281.375 422.625 495.75 615.25 688.375> 558 20<510.373 513> 614 33<15.625 88.75 208.25 281.375 422.625 495.75 615.25 688.375> 697 31<305.585 396.415>
VStem: 106 85<43.3808 601.619> 191 0 226 69<734.873 803.004> 407 69<736.589 803.004> 513 0 513 85<43.3808 601.619>
DStem2: 208.693 178 222.351 125 0.626329 0.779559<-19.5065 424.152>
LayerCount: 2
Fore
SplineSet
505.741 728 m 0
 538.741 728 565.354 745 568.968 762 c 0
 570.031 767 570.307 773 570.731 775 c 0
 573.92 790 587.108 805 610.108 805 c 0
 637.108 805 644.132 791 640.094 772 c 0
 629.041 720 565.152 697 499.152 697 c 0
 433.152 697 379.041 720 390.094 772 c 0
 394.132 791 407.108 805 434.108 805 c 0
 457.108 805 463.92 790 460.731 775 c 0
 460.307 773 458.031 767 456.968 762 c 0
 453.354 745 472.741 728 505.741 728 c 0
623.932 122 m 2
 606.29 39 622.227 34 691.589 31 c 1
 696.313 25 691.851 4 684.575 -2 c 1
 634.787 -1 606 0 556 0 c 0
 505 0 474.787 -1 425.575 -2 c 1
 420.851 4 425.313 25 432.589 31 c 1
 503.227 34 521.29 39 538.932 122 c 2
 614.602 478 l 1
 606.57 475.5 600.514 471 594.339 465 c 2
 248.97 125 l 2
 234.103 110.1 222.381 102 210.443 78.2998 c 1
 208.765 37 230.278 33.2998 284.589 31 c 1
 289.313 25 284.851 4 277.575 -2 c 1
 227.787 -1 199 0 149 0 c 0
 98 0 67.7871 -1 18.5752 -2 c 1
 13.8506 4 18.3135 25 25.5889 31 c 1
 96.2266 34 114.29 39 131.932 122 c 2
 217.167 523 l 2
 234.81 606 218.872 611 149.51 614 c 1
 144.785 620 149.249 641 156.524 647 c 1
 206.312 646 235.099 645 285.099 645 c 0
 336.099 645 366.312 646 415.524 647 c 1
 420.249 641 415.785 620 408.51 614 c 1
 337.872 611 319.81 606 302.167 523 c 2
 226.497 167 l 1
 231.161 167.3 237.684 170.7 246.535 178 c 1
 594.029 520 l 2
 608.348 534.2 621.495 552.3 630.738 568.5 c 1
 631.756 608.1 610.021 611.7 556.51 614 c 1
 551.785 620 556.249 641 563.524 647 c 1
 613.312 646 642.099 645 692.099 645 c 0
 743.099 645 773.312 646 822.524 647 c 1
 827.249 641 822.785 620 815.51 614 c 1
 744.872 611 726.81 606 709.167 523 c 2
 623.932 122 l 2
EndSplineSet
LCarets2: 1 0 
Colour: ff00ff
EndChar

StartChar: afii10033
Encoding: 1055 1055 79
Width: 667
VWidth: 999
Flags: HW
HStem: -2 29<19 51 241 269 398 426 616 648> 604 41<188.871 477.86> 618 29<19 55 613 648>
VStem: 106 81<36.6226 602.463> 480 81<36.4035 602.445>
LayerCount: 2
Fore
SplineSet
658.099 645 m 2
 685.099 645 737.312 646 787.524 647 c 1
 792.249 641 787.785 620 780.51 614 c 1
 709.872 611 691.81 606 674.167 523 c 2
 588.932 122 l 2
 571.29 39 587.227 34 656.589 31 c 1
 661.313 25 656.851 4 649.575 -2 c 1
 600.787 -1 571 0 520 0 c 0
 470 0 440.787 -1 390.575 -2 c 1
 385.851 4 390.313 25 397.589 31 c 1
 468.227 34 486.29 39 503.932 122 c 2
 590.867 531 l 2
 604.046 593 584.597 605 560.597 605 c 2
 363.597 605 l 2
 339.597 605 315.046 593 301.867 531 c 2
 214.932 122 l 2
 197.29 39 213.227 34 282.589 31 c 1
 287.313 25 282.851 4 275.575 -2 c 1
 225.787 -1 197 0 147 0 c 0
 96 0 65.7871 -1 16.5752 -2 c 1
 11.8506 4 16.3135 25 23.5889 31 c 1
 94.2266 34 112.29 39 129.932 122 c 2
 215.167 523 l 2
 232.81 606 216.872 611 147.51 614 c 1
 142.785 620 147.249 641 154.524 647 c 1
 204.312 646 260.099 645 283.099 645 c 2
 658.099 645 l 2
EndSplineSet
Colour: ff00ff
EndChar

StartChar: afii10034
Encoding: 1056 1056 80
Width: 531
VWidth: 999
Flags: HW
HStem: -2 33<13.625 86.75 206.25 279.375> 282 34<189.785 347.54> 618 34<15.7036 82.8593 179.305 354.075>
VStem: 104 85<43.3808 292 318.199 600.635> 414 93<395.93 561.649>
LayerCount: 2
Fore
SplineSet
306.756 554 m 2
 257.23 321 l 1
 267.593 318 307.168 316 332.168 316 c 0
 429.168 316 490.521 360 513.477 468 c 0
 540.471 595 476.36 618 407.36 618 c 0
 335.36 618 312.921 583 306.756 554 c 2
215.167 523 m 2
 232.81 606 216.872 611 147.51 614 c 1
 142.785 620 147.249 641 154.524 647 c 1
 204.312 646 233.099 645 283.099 645 c 0
 323.099 645 395.587 652 421.587 652 c 0
 606.587 652 622.844 545 610.303 486 c 0
 592.235 401 511.941 282 329.941 282 c 0
 294.941 282 271.578 285 251.066 292 c 1
 214.932 122 l 2
 197.29 39 220.439 35 297.589 31 c 1
 302.313 25 297.851 4 290.575 -2 c 1
 240.787 -1 203 0 147 0 c 0
 96 0 65.7871 -1 16.5752 -2 c 1
 11.8506 4 16.3135 25 23.5889 31 c 1
 94.2266 34 112.29 39 129.932 122 c 2
 215.167 523 l 2
EndSplineSet
Colour: ff00ff
EndChar

StartChar: afii10035
Encoding: 1057 1057 81
Width: 646
VWidth: 999
Flags: HW
HStem: -12 42<270 460> 621 37<278 443>
VStem: 37 87<204 436>
LayerCount: 2
Fore
SplineSet
354.874 -10 m 0
 139.874 -10 69.7334 154 103.955 315 c 0
 126.125 419.3 185.472 512.2 264.795 573 c 0
 335.273 627 412.862 658 497.862 658 c 0
 620.862 658 657.36 618 707.297 613 c 1
 704.606 558 702.404 510 696.351 458 c 1
 683.775 452 673.438 449 662.288 453 c 1
 654.568 539 616.998 621 478.998 621 c 0
 426.998 621 363.046 593 300.48 532 c 0
 254.437 487.1 217.338 420.3 198.994 334 c 0
 167.961 188 207.589 31 362.589 31 c 0
 455.589 31 530.179 62 617.758 140 c 1
 628.758 140 634.482 134 637.569 125 c 1
 550.652 36 451.874 -10 354.874 -10 c 0
EndSplineSet
Colour: ff00ff
EndChar

StartChar: afii10036
Encoding: 1058 1058 82
Width: 567
VWidth: 999
Flags: HW
HStem: -2 29<171 247.597 347.774 426> 606 39<65.5576 254.216 341.115 506.744>
VStem: 257 81<32.7827 603.107>
LayerCount: 2
Fore
SplineSet
365.932 122 m 2
 348.29 39 364.227 34 443.589 31 c 1
 448.313 25 443.851 4 436.575 -2 c 1
 386.787 -1 352 0 298 0 c 0
 243 0 206.787 -1 157.575 -2 c 1
 152.851 4 157.313 25 164.589 31 c 1
 245.227 34 263.29 39 280.932 122 c 2
 371.269 547 l 2
 377.857 578 363.81 606 326.81 606 c 2
 257.81 606 l 2
 202.81 606 187.046 593 150.042 513 c 1
 137.499 512.8 126.133 513.9 117.104 518 c 1
 140.37 571 157.423 623 171.838 672 c 1
 187.778 673.6 194.783 670.8 201.987 668 c 1
 200.713 662 197.099 645 218.099 645 c 2
 633.099 645 l 2
 654.099 645 658.713 662 659.988 668 c 1
 670.625 671 680.816 671.9 690.838 672 c 1
 680.423 623 673.944 569 671.104 518 c 1
 658.514 512.4 647.405 513.3 636.041 513 c 1
 635.408 590 631.81 606 576.81 606 c 2
 524.81 606 l 2
 488.81 606 462.857 578 455.631 544 c 2
 365.932 122 l 2
EndSplineSet
Colour: ff00ff
EndChar

StartChar: afii10037
Encoding: 1059 1059 83
Width: 580
VWidth: 999
Flags: HW
HStem: -22 62<133 229.447> 618 28<1 51.985 192 235 391 425 520.846 579>
DStem2: 170 575 88 559 0.41865 -0.908148<-32.5036 379.947> 283 136 342 161 0.370296 0.928914<-102.293 0 103.423 504.868>
LayerCount: 2
Fore
SplineSet
215.667 523 m 2
 198.037 593.9 191.447 609 135.51 614 c 1
 130.785 620 134.249 641 141.524 647 c 1
 188.312 646 205.099 645 245.099 645 c 0
 284.099 645 319.312 646 366.524 647 c 1
 371.249 641 366.785 620 359.51 614 c 1
 290.021 607 288.063 591.2 301.905 534 c 2
 375.676 229 l 1
 377.676 229 l 1
 550.229 528 l 2
 582.133 584 590.447 609 517.51 614 c 1
 512.785 620 517.249 641 524.524 647 c 1
 571.312 646 610.099 645 633.099 645 c 0
 656.099 645 681.312 646 721.524 647 c 1
 726.249 641 721.785 620 714.51 614 c 1
 646.81 606 623.402 568.8 594.442 521 c 2
 376.222 161 l 2
 310.053 52 239.324 -22 149.324 -22 c 0
 107.324 -22 64.2129 1 71.0146 33 c 0
 76.9658 61 100.217 81 130.217 81 c 0
 144.217 81 164.729 74 172.179 62 c 0
 177.266 53 189.502 40 203.502 40 c 0
 235.502 40 264.966 61 311.907 136 c 1
 215.667 523 l 2
EndSplineSet
EndChar

StartChar: afii10039
Encoding: 1061 1061 84
Width: 655
VWidth: 999
Flags: HW
HStem: -2 29<4 64.0181 178 200 420 443 600.782 650> 618 29<17 64.6875 433 468 565.231 629>
DStem2: 129 104 163 77 0.593199 0.805056<-37.1488 242.53 346.726 618.122> 201 572 262 344 0.578967 -0.815351<-37.4198 228.231 307.823 589.683>
LayerCount: 2
Fore
SplineSet
145.848 625 m 2
 149.887 644 l 1
 153.524 647 l 1
 193.312 646 232.099 645 256.099 645 c 0
 280.099 645 331.312 646 378.524 647 c 1
 378.524 647 378.887 644 379.887 644 c 1
 375.848 625 l 2
 374.785 620 372.103 618.2 369.36 618 c 2
 336.935 616 l 2
 304.01 614 308.942 599.1 322.582 572 c 2
 404.173 396 l 2
 407.685 389 410.834 385 413.834 385 c 0
 416.834 385 421.685 389 429.385 397 c 2
 595.582 572 l 2
 619.324 597.6 627.91 614 598.935 616 c 2
 569.36 618 l 2
 565.424 618.3 562.785 620 563.848 625 c 2
 568.099 645 l 1
 570.524 647 l 1
 610.312 646 646.099 645 669.099 645 c 0
 692.099 645 726.312 646 766.524 647 c 1
 769.099 645 l 1
 764.848 625 l 2
 764.21 622 762.424 618.3 754.36 618 c 0
 693.371 615.7 664.983 588 630.331 552 c 2
 461.709 375 l 2
 450.236 362.9 444.245 354 442.332 345 c 0
 440.206 335 444.081 325 451.317 312 c 2
 560.681 102 l 1
 579.391 63 606.877 30 650.739 27 c 0
 655.675 26.7002 656.889 23 656.251 20 c 2
 652 0 l 1
 649.575 -2 l 1
 609.787 -1 568 0 545 0 c 0
 522 0 466.787 -1 419.575 -2 c 1
 417 0 l 1
 421.251 20 l 2
 422.102 24 424.654 26.5996 428.739 27 c 2
 449.164 29 l 2
 490.114 33 489.189 39 471.517 73 c 2
 379.478 261 l 2
 375.178 269 371.815 272 367.815 272 c 0
 364.815 272 357.54 266 349.84 258 c 2
 179.367 77 l 2
 157.665 53 145.936 33.0996 184.164 29 c 2
 202.739 27 l 2
 207.732 26.5 207.889 23 207.251 20 c 2
 203 0 l 1
 199.575 -2 l 1
 152.787 -1 127 0 88 0 c 0
 58 0 33.7871 -1 3.5752 -2 c 1
 3 0 l 1
 7.25098 20 l 2
 8.31348 25 13.6748 26.7002 19.7393 27 c 0
 78.377 30 122.729 74 151.105 104 c 2
 327.854 291 l 2
 335.555 299 341.468 308 342.743 314 c 0
 344.868 324 341.781 333 335.119 344 c 1
 234.693 549 l 2
 206.021 607 177.223 615 160.36 618 c 0
 150.821 619.7 144.998 621 145.848 625 c 2
EndSplineSet
Colour: ff00ff
EndChar

StartChar: afii10040
Encoding: 1062 1062 85
Width: 649
VWidth: 487
Flags: HW
HStem: -2 33<-1.375 71.75> 0 39<182.443 457.051> 614 33<-1.375 71.75 191.25 264.375 370.625 443.75 563.25 636.375>
VStem: 89 85<45.451 601.619> 461 85<39.9611 601.619> 597 33<-144.75 -92.9922>
LayerCount: 2
Fore
SplineSet
657.167 523 m 2
 571.932 122 l 2
 554.29 39 577.227 34 600.589 31 c 0
 624.73 27.9004 627.251 20 626.338 11 c 0
 620.136 -37 610.87 -90 600.029 -141 c 1
 589.521 -148.1 574.329 -149 566.817 -142 c 1
 567.908 -71 535 0 458 0 c 2
 132 0 l 2
 112 0 50.7871 -1 1.5752 -2 c 1
 -3.14941 4 1.31348 25 8.58887 31 c 1
 79.2266 34 97.29 39 114.932 122 c 2
 200.167 523 l 2
 217.81 606 201.872 611 132.51 614 c 1
 127.785 620 132.249 641 139.524 647 c 1
 189.312 646 218.099 645 268.099 645 c 0
 319.099 645 349.312 646 398.524 647 c 1
 403.249 641 398.785 620 391.51 614 c 1
 320.872 611 302.81 606 285.167 523 c 2
 192.918 89 l 2
 186.328 58 200.29 39 229.29 39 c 2
 432.29 39 l 2
 464.29 39 470.353 44 486.932 122 c 2
 572.167 523 l 2
 589.81 606 573.872 611 504.51 614 c 1
 499.785 620 504.249 641 511.524 647 c 1
 561.312 646 590.099 645 640.099 645 c 0
 691.099 645 721.312 646 770.524 647 c 1
 775.249 641 770.785 620 763.51 614 c 1
 692.872 611 674.81 606 657.167 523 c 2
EndSplineSet
EndChar

StartChar: afii10041
Encoding: 1063 1063 86
Width: 650
VWidth: 999
Flags: HW
HStem: -2 33<362.625 435.75 555.25 628.375> 250 58<220.92 371.066> 614 33<11.625 84.75 204.25 277.375 362.625 435.75 555.25 628.375>
VStem: 102 85<340.483 601.619> 453 85<43.3808 314.922 340.808 601.619>
LayerCount: 2
Fore
SplineSet
213.167 523 m 2
 230.81 606 214.872 611 145.51 614 c 1
 140.785 620 145.249 641 152.524 647 c 1
 202.312 646 231.099 645 281.099 645 c 0
 332.099 645 362.312 646 411.524 647 c 1
 416.249 641 411.785 620 404.51 614 c 1
 333.872 611 315.81 606 298.167 523 c 2
 275.636 417 l 2
 258.206 335 292.468 308 364.468 308 c 0
 392.968 308 456.297 311.9 528.032 353 c 1
 564.167 523 l 2
 581.81 606 565.872 611 496.51 614 c 1
 491.785 620 496.249 641 503.524 647 c 1
 553.312 646 582.099 645 632.099 645 c 0
 683.099 645 713.312 646 762.524 647 c 1
 767.249 641 762.785 620 755.51 614 c 1
 684.872 611 666.81 606 649.167 523 c 2
 563.932 122 l 2
 546.29 39 562.227 34 631.589 31 c 1
 636.313 25 631.851 4 624.575 -2 c 1
 574.787 -1 546 0 496 0 c 0
 445 0 414.787 -1 365.575 -2 c 1
 360.851 4 365.313 25 372.589 31 c 1
 443.227 34 461.29 39 478.932 122 c 2
 519.934 314.9 l 1
 437.534 265.5 367.339 250 310.139 250 c 0
 196.139 250 171.931 329 192.975 428 c 2
 213.167 523 l 2
EndSplineSet
EndChar

StartChar: afii10042
Encoding: 1064 1064 87
Width: 969
VWidth: 487
Flags: HW
HStem: 0 37<18.1958 95.1693 200.678 431.849 534.377 768.806 873.831 950.804> 614 33<15.625 88.75 208.25 281.375 349.625 422.75 542.25 615.375 687.625 760.75 880.25 953.375>
VStem: 106 85<43.3808 601.619> 440 85<41.6898 601.619> 778 85<43.3808 601.619>
LayerCount: 2
Fore
SplineSet
820 0 m 2
 149 0 l 1
 149 0 67.7871 -1 18.5752 -2 c 1
 13.8506 4 18.3135 25 25.5889 31 c 1
 96.2266 34 114.29 39 131.932 122 c 2
 217.167 523 l 2
 234.81 606 218.872 611 149.51 614 c 1
 144.785 620 149.249 641 156.524 647 c 1
 206.312 646 235.099 645 285.099 645 c 0
 336.099 645 366.312 646 415.524 647 c 1
 420.249 641 415.785 620 408.51 614 c 1
 337.872 611 319.81 606 302.167 523 c 2
 216.932 122 l 2
 199.502 40 215.864 37 257.864 37 c 2
 396.864 37 l 2
 433.864 37 448.502 40 465.932 122 c 2
 551.167 523 l 2
 568.81 606 552.872 611 483.51 614 c 1
 478.785 620 483.249 641 490.524 647 c 1
 540.312 646 569.099 645 619.099 645 c 0
 670.099 645 700.312 646 749.524 647 c 1
 754.249 641 749.785 620 742.51 614 c 1
 671.872 611 653.81 606 636.167 523 c 2
 550.932 122 l 2
 533.502 40 549.864 37 587.864 37 c 2
 716.864 37 l 2
 772.864 37 786.502 40 803.932 122 c 2
 889.167 523 l 2
 906.81 606 890.872 611 821.51 614 c 1
 816.785 620 821.249 641 828.524 647 c 1
 877.312 646 907.099 645 958.099 645 c 0
 1008.1 645 1037.31 646 1087.52 647 c 1
 1092.25 641 1087.79 620 1080.51 614 c 1
 1009.87 611 991.81 606 974.167 523 c 2
 888.932 122 l 2
 871.29 39 887.227 34 956.589 31 c 1
 961.313 25 956.851 4 949.575 -2 c 1
 900.787 -1 868 0 820 0 c 2
EndSplineSet
EndChar

StartChar: afii10043
Encoding: 1065 1065 88
Width: 979
VWidth: 487
Flags: HW
HStem: 0 37<18.1958 95.1693 200.678 431.849 534.377 768.806> 614 33<15.625 88.75 208.25 281.375 349.625 422.75 542.25 615.375 687.625 760.75 880.25 953.375>
VStem: 106 85<43.3808 601.619> 440 85<41.6898 601.619> 778 85<43.3808 601.619> 914 33<-144.75 -92.9922>
LayerCount: 2
Fore
SplineSet
775 0 m 2
 149 0 l 1
 149 0 67.7871 -1 18.5752 -2 c 1
 13.8506 4 18.3135 25 25.5889 31 c 1
 96.2266 34 114.29 39 131.932 122 c 2
 217.167 523 l 2
 234.81 606 218.872 611 149.51 614 c 1
 144.785 620 149.249 641 156.524 647 c 1
 206.312 646 235.099 645 285.099 645 c 0
 336.099 645 366.312 646 415.524 647 c 1
 420.249 641 415.785 620 408.51 614 c 1
 337.872 611 319.81 606 302.167 523 c 2
 216.932 122 l 2
 199.502 40 215.864 37 257.864 37 c 2
 396.864 37 l 2
 433.864 37 448.502 40 465.932 122 c 2
 551.167 523 l 2
 568.81 606 552.872 611 483.51 614 c 1
 478.785 620 483.249 641 490.524 647 c 1
 540.312 646 569.099 645 619.099 645 c 0
 670.099 645 700.312 646 749.524 647 c 1
 754.249 641 749.785 620 742.51 614 c 1
 671.872 611 653.81 606 636.167 523 c 2
 550.932 122 l 2
 533.502 40 549.864 37 587.864 37 c 2
 716.864 37 l 2
 772.864 37 786.502 40 803.932 122 c 2
 889.167 523 l 2
 906.81 606 890.872 611 821.51 614 c 1
 816.785 620 821.249 641 828.524 647 c 1
 877.312 646 907.099 645 958.099 645 c 0
 1008.1 645 1037.31 646 1087.52 647 c 1
 1092.25 641 1087.79 620 1080.51 614 c 1
 1009.87 611 991.81 606 974.167 523 c 2
 888.932 122 l 2
 871.29 39 894.227 34 917.589 31 c 0
 941.73 27.9004 944.251 20 943.338 11 c 0
 937.136 -37 927.87 -90 917.029 -141 c 1
 906.521 -148.1 891.329 -149 883.817 -142 c 1
 884.908 -71 852 0 775 0 c 2
EndSplineSet
EndChar

StartChar: afii10044
Encoding: 1066 1066 89
Width: 723
VWidth: 999
Flags: HW
HStem: -2 33<174.625 247.75 371.537 520.434> 333 40<350 518.724> 605 40<115.773 256.866> 614 33<367.25 440.375>
VStem: 26 30<470.148 516.776> 265 85<46.5258 333 373 599.457> 594 93<87.5271 266.225>
LayerCount: 2
Fore
SplineSet
439.589 31 m 0
 591.589 31 619.72 121 632.897 183 c 0
 645.651 243 636.781 333 507.781 333 c 2
 420.781 333 l 1
 370.83 98 l 2
 363.816 65 369.589 31 439.589 31 c 0
453.575 -2 m 0
 364.575 -2 351 0 308 0 c 0
 257 0 226.787 -1 177.575 -2 c 1
 172.851 4 177.313 25 184.589 31 c 1
 255.227 34 273.29 39 290.932 122 c 2
 376.167 523 l 2
 392.108 598 381.597 605 334.597 605 c 2
 292.597 605 l 2
 226.597 605 172.829 512 155.689 469 c 1
 141.052 466 133.283 468.5 126.752 474 c 1
 142.655 530 159.708 582 179.099 645 c 1
 266.099 645 444.099 645 444.099 645 c 2
 494.099 645 525.312 646 574.524 647 c 1
 579.249 641 574.785 620 567.51 614 c 1
 496.872 611 478.81 606 461.167 523 c 2
 429.283 373 l 1
 489.283 373 l 2
 735.283 373 744.815 272 725.897 183 c 0
 690.4 16 574.575 -2 453.575 -2 c 0
EndSplineSet
EndChar

StartChar: afii10045
Encoding: 1067 1067 90
Width: 796
VWidth: 999
Flags: HW
HStem: -2 33<13.625 86.75 203.821 338.719> -1 33<517.625 590.75 710.25 783.375> 333 40<189 350.404> 614 33<13.625 86.75 206.25 279.375> 615 33<517.625 590.75 710.25 783.375>
VStem: 104 85<43.498 333 373 601.619> 429 93<101.953 262.707> 608 85<44.3808 602.619>
LayerCount: 2
Fore
SplineSet
719.145 123 m 2
 701.502 40 717.439 35 786.802 32 c 1
 791.526 26 787.062 5 779.787 -1 c 1
 730 0 701.213 1 651.213 1 c 0
 600.213 1 570 0 520.787 -1 c 1
 516.062 5 520.526 26 527.802 32 c 1
 598.439 35 616.502 40 634.145 123 c 2
 719.38 524 l 2
 737.021 607 721.085 612 651.723 615 c 1
 646.998 621 651.461 642 658.736 648 c 1
 708.524 647 737.312 646 787.312 646 c 0
 838.312 646 868.524 647 917.736 648 c 1
 922.461 642 917.998 621 910.723 615 c 1
 840.085 612 822.021 607 804.38 524 c 2
 719.145 123 l 2
252.589 31 m 0
 404.589 31 454.72 121 467.897 183 c 0
 480.651 243 462.781 333 334.781 333 c 2
 259.781 333 l 1
 209.83 98 l 2
 202.816 65 204.589 31 252.589 31 c 0
129.932 122 m 2
 215.167 523 l 2
 232.81 606 216.872 611 147.51 614 c 1
 142.785 620 147.249 641 154.524 647 c 1
 204.312 646 233.099 645 283.099 645 c 0
 334.099 645 364.312 646 413.524 647 c 1
 418.249 641 413.785 620 406.51 614 c 1
 335.872 611 317.81 606 300.167 523 c 2
 268.283 373 l 1
 356.283 373 l 2
 575.283 373 579.815 272 560.897 183 c 0
 532.606 49.9004 435.075 -2 243.575 -2 c 0
 207.575 -2 176 0 147 0 c 0
 96 0 65.7871 -1 16.5752 -2 c 1
 11.8506 4 16.3135 25 23.5889 31 c 1
 94.2266 34 112.29 39 129.932 122 c 2
EndSplineSet
Colour: ff00ff
EndChar

StartChar: afii10046
Encoding: 1068 1068 91
Width: 558
VWidth: 999
Flags: HW
HStem: -2 33<13.625 86.75 203.821 338.719> 333 40<189 350.404> 614 33<13.625 86.75 206.25 279.375>
VStem: 104 85<43.498 333 373 601.619> 429 93<101.953 262.707>
LayerCount: 2
Fore
SplineSet
252.589 31 m 0
 404.589 31 454.72 121 467.897 183 c 0
 480.651 243 462.781 333 334.781 333 c 2
 259.781 333 l 1
 209.83 98 l 2
 202.816 65 204.589 31 252.589 31 c 0
129.932 122 m 2
 215.167 523 l 2
 232.81 606 216.872 611 147.51 614 c 1
 142.785 620 147.249 641 154.524 647 c 1
 204.312 646 233.099 645 283.099 645 c 0
 334.099 645 364.312 646 413.524 647 c 1
 418.249 641 413.785 620 406.51 614 c 1
 335.872 611 317.81 606 300.167 523 c 2
 268.283 373 l 1
 356.283 373 l 2
 575.283 373 579.815 272 560.897 183 c 0
 532.606 49.9004 435.075 -2 243.575 -2 c 0
 207.575 -2 176 0 147 0 c 0
 96 0 65.7871 -1 16.5752 -2 c 1
 11.8506 4 16.3135 25 23.5889 31 c 1
 94.2266 34 112.29 39 129.932 122 c 2
EndSplineSet
EndChar

StartChar: afii10047
Encoding: 1069 1069 92
Width: 622
Flags: HMW
HStem: -10 35<188.603 354.115> 291 50<151.594 280.008> 323 56<306.833 443.595> 621 37<205.922 372.452>
VStem: 46 91<72.2243 143.539> 53 30<457.067 493.656> 498 87<334 461.696>
LayerCount: 2
Fore
SplineSet
268.874 -10 m 0
 171.874 -10 56.6279 50 72.3574 124 c 0
 76.6084 144 89.6465 163 114.646 163 c 0
 143.646 163 152.907 136 158.043 99 c 0
 163.541 59 196.313 25 272.313 25 c 0
 420.313 25 517.396 143 560.979 301 c 1
 531.168 316 503.656 323 465.656 323 c 0
 407.656 323 371.854 291 304.854 291 c 0
 245.854 291 189.019 320 194.332 345 c 0
 196.032 353 201.883 357 205.883 357 c 0
 213.883 357 226.481 341 264.481 341 c 0
 323.481 341 374.559 379 437.559 379 c 0
 450.559 379 514.008 367 567.781 333 c 1
 568.994 334 l 1
 614.269 547 514.998 621 435.998 621 c 0
 297.998 621 223.78 540 179.501 454 c 1
 150.351 458 l 1
 171.404 510 189.819 559 205.297 613 c 1
 262.935 616 311.862 658 438.862 658 c 0
 604.862 658 698.505 534 654.081 325 c 0
 614.758 140 483.874 -10 268.874 -10 c 0
EndSplineSet
EndChar

StartChar: afii10048
Encoding: 1070 1070 93
Width: 905
VWidth: 999
Flags: HW
HStem: -10 38<517.016 661.795> -2 33<15.625 88.75 208.25 281.375> 305 39<187 285> 614 33<15.625 88.75 208.25 281.375> 619 39<495.06 647.995>
VStem: 106 85<43.3808 601.619> 285 93<192.404 305 344 446.869> 773 93<191.039 458.298>
LayerCount: 2
Fore
SplineSet
693.572 619 m 0
 609.572 619 492.143 537 447.506 327 c 0
 406.695 135 489.951 28 597.951 28 c 0
 700.951 28 800.845 131 838.893 310 c 0
 883.104 518 818.572 619 693.572 619 c 0
216.932 122 m 2
 199.29 39 215.227 34 284.589 31 c 1
 289.313 25 284.851 4 277.575 -2 c 1
 227.787 -1 199 0 149 0 c 0
 98 0 67.7871 -1 18.5752 -2 c 1
 13.8506 4 18.3135 25 25.5889 31 c 1
 96.2266 34 114.29 39 131.932 122 c 2
 217.167 523 l 2
 234.81 606 218.872 611 149.51 614 c 1
 144.785 620 149.249 641 156.524 647 c 1
 206.312 646 235.099 645 285.099 645 c 0
 336.099 645 366.312 646 415.524 647 c 1
 420.249 641 415.785 620 408.51 614 c 1
 337.872 611 319.81 606 302.167 523 c 2
 264.119 344 l 1
 359.119 344 l 1
 410.167 523 556.862 658 712.862 658 c 0
 880.862 658 978.018 527 935.931 329 c 0
 893.42 129 749.874 -10 571.874 -10 c 0
 413.874 -10 310.594 111 349.83 305 c 1
 255.83 305 l 1
 216.932 122 l 2
EndSplineSet
EndChar

StartChar: afii10049
Encoding: 1071 1071 94
Width: 580
Flags: HW
HStem: -2 29<7 22 305 337 527 560> 329 33<233.803 237 311.619 392> 611 35<218.954 390.324> 618 28<526 563>
VStem: 88 81<416.839 570.598> 392 81<35.8445 324 362 607.704>
LayerCount: 2
Fore
SplineSet
275.703 502 m 0
 253.173 396 307.945 362 390.945 362 c 2
 468.945 362 l 1
 514.22 575 l 2
 521.234 608 517.872 611 430.872 611 c 0
 374.872 611 295.471 595 275.703 502 c 0
6 0 m 1
 10.0391 19 l 2
 11.1016 24 14.7393 27 18.7393 27 c 2
 27.9512 28 l 2
 60.8018 32 121.965 86.4004 201.763 220 c 0
 240.578 285 275.893 310 306.293 326 c 1
 306.931 329 l 1
 241.057 339 170.685 389 192.365 491 c 0
 207.031 560 259.312 646 445.312 646 c 0
 480.312 646 539.099 645 572.099 645 c 0
 603.099 645 700.312 646 700.312 646 c 1
 695.848 625 l 2
 694.998 621 692.36 618 687.36 618 c 2
 656.935 616 l 2
 614.297 613 601.81 606 594.582 572 c 2
 488.517 73 l 2
 482.14 43 492.802 32 533.164 29 c 2
 559.739 27 l 2
 563.739 27 567.102 24 566.039 19 c 2
 562 0 l 1
 559.575 -2 l 1
 559.575 -2 473 0 434 0 c 0
 398 0 304.575 -2 304.575 -2 c 1
 303 0 l 1
 307.039 19 l 2
 308.102 24 311.739 27 316.739 27 c 2
 343.164 29 l 2
 385.845 32.2002 401.565 45 407.517 73 c 2
 460.868 324 l 1
 354.868 324 328.704 295 264.173 189 c 0
 198.11 80.5 144.021 0.0996094 72.7871 -1 c 2
 6.5752 -2 l 1
 6 0 l 1
EndSplineSet
EndChar

StartChar: afii10089
Encoding: 1095 1095 95
Width: 510
VWidth: 999
Flags: HW
HStem: -2 29<274 294 450 470> 146 35<165.488 293.187> 402 29<18 30 186 206 275 294 415.352 480>
VStem: 71 75<194.637 397.49> 335 75<32.4718 189 207.909 398.291>
LayerCount: 2
Fore
SplineSet
410.032 353 m 2
 418.322 392 413.546 398.7 379.235 401 c 2
 364.447 402 l 2
 360.512 402.3 358.66 403 359.511 407 c 2
 364.187 429 l 1
 366.612 431 l 1
 366.612 431 422.887 429 459.187 429 c 0
 502.887 429 571.612 431 571.612 431 c 1
 572.187 429 l 1
 567.511 407 l 2
 566.873 404 564.469 402.1 561.447 402 c 2
 535.235 401 l 2
 504.08 399.8 493.747 394 485.032 353 c 2
 426.579 78 l 2
 418.502 40 420.479 33.2998 456.164 29 c 2
 472.739 27 l 2
 475.654 26.5996 477.313 25 476.676 22 c 2
 472 0 l 1
 469.575 -2 l 1
 469.575 -2 411 0 374 0 c 0
 333 0 273.575 -2 273.575 -2 c 1
 272 0 l 1
 276.464 21 l 2
 277.313 25 279.633 26.5 283.739 27 c 2
 300.164 29 l 2
 337.32 33.5 343.29 39 351.579 78 c 2
 375.173 189 l 1
 330.009 160 295.033 146 235.033 146 c 0
 137.033 146 111.599 191 134.129 297 c 2
 146.245 354 l 2
 154.322 392 148.621 396.7 115.235 401 c 2
 107.447 402 l 2
 104.533 402.4 102.66 403 103.511 407 c 2
 108.187 429 l 1
 109.612 431 l 1
 109.612 431 162.887 429 197.187 429 c 0
 236.187 429 297.612 431 297.612 431 c 1
 298.187 429 l 1
 293.723 408 l 2
 292.873 404 290.512 402.3 286.447 402 c 2
 271.235 401 l 2
 237.968 398.8 229.109 391 222.308 359 c 2
 208.279 293 l 2
 191.699 215 191.473 181 253.473 181 c 0
 302.473 181 344.023 193 382.825 225 c 1
 410.032 353 l 2
EndSplineSet
EndChar

StartChar: afii10090
Encoding: 1096 1096 96
Width: 818
VWidth: 999
Flags: HW
HStem: -2 29<33 63 750 784> 0 34<182.117 365.221 449.273 630.268> 402 29<33 63 219 242 305 329 484 513 565 594 750 775>
VStem: 103 75<35.9712 397.122> 369 75<36.284 396.916> 635 75<36.4002 397.278>
CounterMasks: 1 1c
LayerCount: 2
Fore
SplineSet
785.032 353 m 2
 725.092 71 l 2
 717.439 35 723.711 31.0996 756.164 29 c 2
 786.739 27 l 2
 790.675 26.7002 792.102 24 791.464 21 c 2
 787 0 l 1
 783.575 -2 l 1
 783.575 -2 700 0 670 0 c 2
 137 0 l 2
 107 0 32.5752 -2 32.5752 -2 c 1
 32 0 l 1
 36.6758 22 l 2
 37.3135 25 38.6328 26.5 42.7393 27 c 2
 69.1641 29 l 2
 104.538 31.7002 111.29 39 118.304 72 c 2
 178.032 353 l 2
 186.109 391 183.327 397.2 148.022 400 c 2
 122.447 402 l 2
 119.49 402.2 117.66 403 118.511 407 c 2
 123.187 429 l 1
 124.612 431 l 1
 232.187 429 l 1
 333.612 431 l 1
 335.187 429 l 1
 330.723 408 l 2
 329.873 404 327.533 402.4 323.447 402 c 2
 304.022 400 l 2
 269.879 396.5 261.747 394 253.032 353 c 2
 196.067 85 l 2
 187.565 45 191.227 34 226.227 34 c 2
 336.227 34 l 2
 371.227 34 378.99 47 386.854 84 c 2
 443.82 352 l 2
 452.109 391 446.121 396.7 414.022 400 c 2
 394.447 402 l 2
 391.512 402.3 389.66 403 390.511 407 c 2
 395.187 429 l 1
 396.612 431 l 1
 496.187 429 l 1
 604.612 431 l 1
 605.187 429 l 1
 600.511 407 l 2
 599.873 404 597.512 402.3 593.447 402 c 2
 569.022 400 l 2
 537.87 397.4 527.535 393 518.82 352 c 2
 462.067 85 l 2
 453.14 43 463.227 34 491.227 34 c 2
 602.227 34 l 2
 639.227 34 646.479 54 653.067 85 c 2
 710.032 353 l 2
 718.109 391 714.985 397 679.022 400 c 2
 655.447 402 l 2
 651.512 402.3 649.66 403 650.511 407 c 2
 655.187 429 l 1
 656.612 431 l 1
 760.187 429 l 1
 866.612 431 l 1
 867.187 429 l 1
 862.723 408 l 2
 861.873 404 859.512 402.3 856.447 402 c 2
 835.022 400 l 2
 802.785 397 793.747 394 785.032 353 c 2
EndSplineSet
EndChar

StartChar: afii10091
Encoding: 1097 1097 97
Width: 809
VWidth: 999
Flags: HMW
HStem: -2 29<33 63> 0 34<181.744 365.221 448.881 630.687> 402 29<33 63 219 242 305 329 484 513 565 594 750 775>
VStem: 104 74<35.7845 397.151> 369 75<36.1619 397.035> 635 74<36.5977 397.021>
CounterMasks: 1 1c
LayerCount: 2
Fore
SplineSet
784.032 353 m 2
 724.729 74 l 2
 719.415 49 729.377 30 751.739 27 c 0
 764.277 25.2998 777.889 23 775.062 5 c 2
 752.793 -128 l 1
 727.58 -129 l 1
 725.995 -80 716 0 636 0 c 2
 137 0 l 2
 107 0 32.5752 -2 32.5752 -2 c 1
 32 0 l 1
 36.4639 21 l 2
 37.3135 25 38.6328 26.5 42.7393 27 c 2
 69.1641 29 l 2
 103.117 31.5996 111.864 37 119.304 72 c 2
 179.032 353 l 2
 187.109 391 182.349 397.3 148.022 400 c 2
 122.447 402 l 2
 119.49 402.2 117.66 403 118.511 407 c 2
 123.187 429 l 1
 124.612 431 l 1
 231.187 429 l 1
 333.612 431 l 1
 335.187 429 l 1
 330.723 408 l 2
 329.873 404 327.533 402.4 323.447 402 c 2
 304.022 400 l 2
 269.879 396.5 261.747 394 253.032 353 c 2
 195.643 83 l 2
 187.353 44 191.227 34 226.227 34 c 2
 336.227 34 l 2
 371.227 34 378.777 46 386.643 83 c 2
 443.82 352 l 2
 452.109 391 446.821 396.7 414.022 400 c 2
 394.447 402 l 2
 391.512 402.3 389.66 403 390.511 407 c 2
 395.187 429 l 1
 396.612 431 l 1
 497.187 429 l 1
 604.612 431 l 1
 605.187 429 l 1
 600.511 407 l 2
 599.873 404 597.512 402.3 593.447 402 c 2
 569.022 400 l 2
 533.406 397.1 527.535 393 518.82 352 c 2
 461.643 83 l 2
 452.928 42 463.227 34 492.227 34 c 2
 601.227 34 l 2
 638.227 34 645.841 51 652.854 84 c 2
 710.032 353 l 2
 718.109 391 711.049 397.3 679.022 400 c 2
 655.447 402 l 2
 651.512 402.3 649.66 403 650.511 407 c 2
 655.187 429 l 1
 656.612 431 l 1
 758.187 429 l 1
 866.612 431 l 1
 867.187 429 l 1
 862.723 408 l 2
 861.873 404 859.512 402.3 856.447 402 c 2
 835.022 400 l 2
 799.421 396.7 792.747 394 784.032 353 c 2
EndSplineSet
EndChar

StartChar: afii10092
Encoding: 1098 1098 98
Width: 537
VWidth: 999
Flags: HMW
HStem: -2 31<128 153 280.978 394.853> 224 32<271 396.312> 392 37<95.6091 193.705> 402 29<311 345>
VStem: 196 75<35.7372 224 256 391.315> 431 75<61.062 196.916>
LayerCount: 2
Fore
SplineSet
211.729 74 m 2
 269.757 347 l 2
 277.622 384 272.322 392 250.322 392 c 0
 168.322 392 145.883 357 111.453 275 c 1
 85.5156 280 l 1
 102.293 326 115.858 371 129.187 429 c 1
 325.187 429 l 1
 436.612 431 l 1
 438.187 429 l 1
 433.511 407 l 2
 432.66 403 430.49 402.2 427.447 402 c 2
 396.022 400 l 2
 359.634 397.7 354.322 392 346.883 357 c 2
 325.414 256 l 1
 382.414 256 l 2
 478.414 256 554.888 230 534.908 136 c 0
 517.053 52 444.575 -2 332.575 -2 c 1
 332.575 -2 270.8 0 231 0 c 0
 190.8 0 127.575 -2 127.575 -2 c 1
 126 0 l 1
 130.039 19 l 2
 131.102 24 134.633 26.5 139.739 27 c 2
 159.164 29 l 2
 195.771 32.7998 205.565 45 211.729 74 c 2
457.782 126 m 0
 469.048 179 456.612 224 385.612 224 c 2
 318.612 224 l 1
 287.579 78 l 2
 279.928 42 294.164 29 340.164 29 c 0
 390.164 29 440.353 44 457.782 126 c 0
EndSplineSet
EndChar

StartChar: afii10093
Encoding: 1099 1099 99
Width: 681
VWidth: 999
Flags: HW
HStem: -2 29<440 465 625 651> -2 31<38 63 188.805 304.466> 224 32<181 306.312> 401 29<38 63 224 249> 402 29<440 465 625 651>
VStem: 106 75<34.4717 224 256 394.233> 341 75<61.062 196.916> 508 75<33.7869 395.199>
LayerCount: 2
Fore
SplineSet
652.255 307 m 2
 612.932 122 l 2
 595.29 39 605.439 35 665.589 31 c 1
 670.313 25 665.851 4 658.575 -2 c 1
 615.787 -1 591 0 548 0 c 0
 504 0 477.787 -1 435.575 -2 c 1
 430.851 4 435.313 25 442.589 31 c 1
 504.652 36 516.29 39 533.932 122 c 2
 573.255 307 l 2
 590.897 390 580.747 394 520.598 398 c 1
 515.873 404 520.337 425 527.612 431 c 1
 570.399 430 595.187 429 638.187 429 c 0
 682.187 429 708.399 430 750.612 431 c 1
 755.337 425 750.873 404 743.598 398 c 1
 681.535 393 669.897 390 652.255 307 c 2
367.782 126 m 0
 379.048 179 366.612 224 295.612 224 c 2
 228.612 224 l 1
 196.729 74 l 2
 189.29 39 204.164 29 250.164 29 c 0
 300.164 29 350.353 44 367.782 126 c 0
121.729 74 m 2
 181.458 355 l 2
 187.622 384 182.624 395.3 147.811 399 c 2
 129.235 401 l 2
 124.342 401.5 121.873 404 123.148 410 c 2
 126.975 428 l 1
 129.399 430 l 1
 129.399 430 197.187 429 233.187 429 c 0
 272.187 429 340.399 430 340.399 430 c 1
 341.975 428 l 1
 338.148 410 l 2
 336.873 404 332.32 401.4 328.235 401 c 2
 308.811 399 l 2
 275.388 395.6 262.622 384 256.458 355 c 2
 235.414 256 l 1
 292.414 256 l 2
 388.414 256 464.888 230 444.907 136 c 0
 427.053 52 353.575 -2 242.575 -2 c 0
 203.175 -2 181.4 0 142 0 c 0
 101.4 0 37.5752 -2 37.5752 -2 c 1
 36 0 l 1
 40.0391 19 l 2
 41.1016 24 44.6328 26.5 49.7393 27 c 2
 69.1641 29 l 2
 106.372 32.7998 115.565 45 121.729 74 c 2
EndSplineSet
Colour: ff00ff
EndChar

StartChar: afii10094
Encoding: 1100 1100 100
Width: 447
VWidth: 999
Flags: HW
HStem: -2 31<38 63 188.805 304.466> 224 32<181 306.312> 401 29<38 63 224 249>
VStem: 106 75<34.4717 224 256 394.233> 341 75<61.062 196.916>
LayerCount: 2
Fore
SplineSet
367.782 126 m 0
 379.048 179 366.612 224 295.612 224 c 2
 228.612 224 l 1
 196.729 74 l 2
 189.29 39 204.164 29 250.164 29 c 0
 300.164 29 350.353 44 367.782 126 c 0
121.729 74 m 2
 181.458 355 l 2
 187.622 384 182.624 395.3 147.811 399 c 2
 129.235 401 l 2
 124.342 401.5 121.873 404 123.148 410 c 2
 126.975 428 l 1
 129.399 430 l 1
 129.399 430 197.187 429 233.187 429 c 0
 272.187 429 340.399 430 340.399 430 c 1
 341.975 428 l 1
 338.148 410 l 2
 336.873 404 332.32 401.4 328.235 401 c 2
 308.811 399 l 2
 275.388 395.6 262.622 384 256.458 355 c 2
 235.414 256 l 1
 292.414 256 l 2
 388.414 256 464.888 230 444.907 136 c 0
 427.053 52 353.575 -2 242.575 -2 c 0
 203.175 -2 181.4 0 142 0 c 0
 101.4 0 37.5752 -2 37.5752 -2 c 1
 36 0 l 1
 40.0391 19 l 2
 41.1016 24 44.6328 26.5 49.7393 27 c 2
 69.1641 29 l 2
 106.372 32.7998 115.565 45 121.729 74 c 2
EndSplineSet
EndChar

StartChar: afii10095
Encoding: 1101 1101 101
Width: 432
Flags: HMW
HStem: -10 33<135.868 248.983> 188 40<96.8259 189.858> 210 46<168.145 303.228> 408 31<137.092 253.245>
VStem: 35 72<45.2656 105.438> 51 25<298.88 331.675> 315 81<106.985 208.09 230 333.791>
LayerCount: 2
Fore
SplineSet
52.4297 82 m 0
 55.8301 98 69.5938 111 87.5938 111 c 0
 104.594 111 115.31 105.9 122.729 74 c 0
 128.99 47 150.889 23 190.889 23 c 0
 274.889 23 332.43 82 357.724 201 c 1
 346.787 206 334.637 210 321.637 210 c 0
 283.637 210 260.961 188 215.961 188 c 0
 172.961 188 130.787 206 133.763 220 c 0
 134.612 224 138.738 234 144.738 234 c 0
 151.738 234 162.463 228 175.463 228 c 0
 210.463 228 243.414 256 286.414 256 c 0
 315.414 256 339.864 244 362.463 228 c 1
 365.888 230 l 1
 385.443 322 373.723 408 284.723 408 c 0
 210.723 408 169.521 360 138.917 296 c 1
 114.767 300 l 1
 134.97 348 147.196 382 158.273 420 c 1
 207.911 423 252.312 439 299.312 439 c 0
 432.312 439 468.694 342 442.975 221 c 0
 408.753 60 293.874 -10 194.874 -10 c 0
 103.874 -10 41.1641 29 52.4297 82 c 0
EndSplineSet
EndChar

StartChar: afii10096
Encoding: 1102 1102 102
Width: 686
VWidth: 999
Flags: HW
HStem: -10 35<422.78 523.403> -2 29<29 54 214 240> 198 39<171 268> 402 29<29 54 214 240> 406 33<403.08 503.112>
VStem: 97 74<33.7976 198 237 394.785> 268 80<113.871 198 237 323.327> 569 80<107.111 329.997>
LayerCount: 2
Fore
SplineSet
535.298 406 m 0
 461.298 406 414.53 313 396.038 226 c 0
 379.671 149 386.313 25 480.313 25 c 0
 521.313 25 580.266 53 608.323 185 c 0
 639.356 331 613.298 406 535.298 406 c 0
319.376 237 m 1
 354.67 356 437.312 439 552.312 439 c 0
 696.312 439 717.23 321 695.125 217 c 0
 673.869 117 594.874 -10 455.874 -10 c 0
 327.874 -10 290.618 97 310.086 198 c 1
 213.086 198 l 1
 186.729 74 l 2
 180.565 45 188.487 32.4004 220.164 29 c 2
 238.739 27 l 2
 243.633 26.5 247.102 24 246.039 19 c 2
 242 0 l 1
 239.575 -2 l 1
 239.575 -2 171 0 132 0 c 0
 97 0 28.5752 -2 28.5752 -2 c 1
 27 0 l 1
 31.0391 19 l 2
 32.1016 24 35.6328 26.5 40.7393 27 c 2
 60.1641 29 l 2
 93.2871 32.4004 106.565 45 112.729 74 c 2
 172.67 356 l 2
 178.622 384 171.079 396.5 139.022 400 c 2
 120.447 402 l 2
 115.554 402.5 113.085 405 114.148 410 c 2
 118.187 429 l 1
 120.612 431 l 1
 120.612 431 188.187 429 223.187 429 c 0
 262.187 429 331.612 431 331.612 431 c 1
 333.187 429 l 1
 329.148 410 l 2
 328.085 405 323.554 402.5 318.447 402 c 2
 299.022 400 l 2
 267.542 396.8 252.622 384 246.67 356 c 2
 221.376 237 l 1
 319.376 237 l 1
EndSplineSet
EndChar

StartChar: afii10097
Encoding: 1103 1103 103
Width: 439
Flags: HW
HStem: -2 29<17 32 224 245 360.133 408> 196 34<214.641 280> 204 26<167.232 185> 402 29<162.408 277.495 380 406>
VStem: 57 75<253.842 376.353> 280 75<29.6205 196 230 399.607>
LayerCount: 2
Fore
SplineSet
14 0 m 1
 18.0391 19 l 2
 19.5264 26 25.7393 27 29.7393 27 c 2
 37.9512 28 l 2
 65.5889 31 111.701 94.0996 134.845 131 c 0
 160.56 172 198.661 196 227.724 201 c 1
 228.361 204 l 1
 173.361 204 107.801 239 122.893 310 c 0
 129.057 339 157.612 431 328.612 431 c 0
 404.612 431 378.187 429 410.187 429 c 0
 444.187 429 497.612 431 497.612 431 c 1
 499.187 429 l 1
 494.085 405 l 2
 493.66 403 492.447 402 490.447 402 c 2
 465.022 400 l 2
 446.811 399 438.109 391 433.646 370 c 2
 371.367 77 l 2
 365.841 51 366.164 29 381.951 28 c 2
 403.739 27 l 2
 411.739 27 412.251 20 411.826 18 c 2
 407.575 -2 l 1
 407.575 -2 352 0 317 0 c 0
 281 0 223.575 -2 223.575 -2 c 1
 228.251 20 l 2
 229.102 24 231.739 27 235.739 27 c 2
 250.951 28 l 2
 284.419 30.2002 288.077 38 296.367 77 c 2
 321.661 196 l 1
 296.661 196 l 2
 256.661 196 220.125 154.9 181.918 89 c 0
 153.502 40 112 0 79.7871 -1 c 2
 16.5752 -2 l 1
 14 0 l 1
200.23 321 m 0
 189.603 271 204.888 230 261.888 230 c 2
 328.888 230 l 1
 357.796 366 l 2
 364.598 398 358.447 402 319.447 402 c 0
 233.447 402 210.221 368 200.23 321 c 0
EndSplineSet
EndChar

StartChar: uni04AE
Encoding: 1198 1198 104
Width: 575
VWidth: 999
Flags: HW
HStem: -2 29<167 199 389 422> 618 29<2 22 164.594 221 395 428 544 573>
VStem: 254 80<35.8626 320.834>
DStem2: 312 335 99.6655 547 0.510948 -0.859612<-312.467 0> 314 335 341.265 310 0.483796 0.875181<0 305.726>
LayerCount: 2
Fore
SplineSet
362.932 122 m 2
 345.29 39 361.227 34 440.589 31 c 1
 445.313 25 440.851 4 433.575 -2 c 1
 383.787 -1 349 0 295 0 c 0
 240 0 203.787 -1 154.575 -2 c 1
 149.851 4 154.313 25 161.589 31 c 1
 242.227 34 260.29 39 277.932 122 c 2
 307.052 259 l 2
 314.917 296 311.523 296.5 300.293 326 c 2
 215.969 547 l 2
 189.907 615.4 177.872 611 136.51 614 c 1
 131.785 620 135.249 641 142.524 647 c 1
 172.312 646 205.099 645 244.099 645 c 0
 284.099 645 318.312 646 358.524 647 c 1
 363.249 641 358.785 620 351.51 614 c 1
 294.872 611 282.287 618.6 297.433 576 c 2
 376.445 354 l 2
 381.844 338 385.206 335 397.82 352 c 2
 564.433 576 l 2
 595.682 618.1 569.172 611 525.51 614 c 1
 520.785 620 525.036 640 532.312 646 c 1
 572.099 645 600.099 645 623.099 645 c 0
 646.099 645 676.099 645 706.312 646 c 1
 711.036 640 706.785 620 699.51 614 c 1
 653.896 609.7 641.171 615.7 602.295 565 c 2
 425.494 334 l 2
 397.535 297.5 402.361 307.5 393.901 267.7 c 2
 362.932 122 l 2
EndSplineSet
Colour: ff00ff
EndChar

StartChar: uni04C0
Encoding: 1216 1216 105
Width: 297
VWidth: 999
Flags: HW
HStem: -2 29<20 52 242 274> 618 29<19 52 242 274>
VStem: 106 81<35.3322 609.22>
LayerCount: 2
Fore
SplineSet
216.932 122 m 2
 199.29 39 215.227 34 284.589 31 c 1
 289.313 25 284.851 4 277.575 -2 c 1
 227.787 -1 199 0 149 0 c 0
 98 0 67.7871 -1 18.5752 -2 c 1
 13.8506 4 18.3135 25 25.5889 31 c 1
 96.2266 34 114.29 39 131.932 122 c 2
 217.167 523 l 2
 234.81 606 218.872 611 149.51 614 c 1
 144.785 620 149.249 641 156.524 647 c 1
 206.312 646 235.099 645 285.099 645 c 0
 336.099 645 366.312 646 415.524 647 c 1
 420.249 641 415.785 620 408.51 614 c 1
 337.872 611 319.81 606 302.167 523 c 2
 216.932 122 l 2
EndSplineSet
Colour: ff00ff
EndChar

StartChar: uni04D0
Encoding: 1232 1232 106
Width: 695
VWidth: 999
Flags: HW
HStem: -2 29<4 63.4383 192 227 438 472 669 687> 241 42<240.956 437> 638 20<355.667 370> 698 31<313.536 404.309>
VStem: 234 70<736.681 803.162> 413 70<735.774 803.125>
DStem2: 106.983 102 152 79 0.392949 0.91956<-35.5134 182.05 227.744 482.534> 329.333 622.333 338 550 0.392949 0.91956<-557.738 -393.648 -343.43 -63.1089> 390 628 340 550 0.35377 -0.935333<55.2675 339.317 384.261 592.374>
LayerCount: 2
Fore
SplineSet
513.954 729 m 0
 546.954 729 573.567 746 577.181 763 c 0
 578.243 768 578.519 774 578.944 776 c 0
 582.132 791 595.32 806 618.32 806 c 0
 645.32 806 652.345 792 648.307 773 c 0
 637.253 721 573.364 698 507.364 698 c 0
 441.364 698 387.253 721 398.307 773 c 0
 402.345 792 415.32 806 442.32 806 c 0
 465.32 806 472.132 791 468.944 776 c 0
 468.519 774 466.243 768 465.181 763 c 0
 461.567 746 480.954 729 513.954 729 c 0
323.153 283 m 2
 497.153 283 l 1
 456.906 550 l 1
 454.906 550 l 1
 300.78 296.3 l 2
 294.285 285.5 300.953 283 323.153 283 c 2
168.792 79 m 2
 143.534 37.7998 193.542 33.5996 230.589 31 c 1
 235.313 25 230.851 4 223.575 -2 c 1
 186.787 -1 137 0 96 0 c 0
 57 0 43.7871 -1 6.5752 -2 c 1
 1.85059 4 6.31348 25 13.5889 31 c 1
 57.7266 34 89.1445 40.2002 128.681 102 c 2
 461.574 622.3 l 2
 478.671 649.1 488.162 658 502.862 658 c 0
 516.862 658 520.288 647.3 523.485 628 c 2
 613.28 86 l 2
 620.833 34.5 653.533 34.5 691.589 31 c 1
 696.313 25 691.851 4 684.575 -2 c 1
 647.787 -1 612 0 571 0 c 0
 532 0 476.787 -1 439.575 -2 c 1
 434.851 4 439.313 25 446.589 31 c 1
 494.912 34.4004 535.447 30.7998 529.304 72 c 2
 504.227 241 l 1
 296.227 241 l 2
 272.227 241 265.391 236.6 257.612 224 c 2
 168.792 79 l 2
EndSplineSet
LCarets2: 1 0 
Colour: ff00ff
EndChar

StartChar: uni04D1
Encoding: 1233 1233 107
Width: 457
VWidth: 999
Flags: HW
HStem: -10 41<139.654 240.143 343.315 429.949> 406 33<144.709 258.364> 503 31<171.971 246.548>
VStem: 36 83<50.144 160.39> 55 74<295.655 377.387> 88 73<540.553 619.612> 257 73<541.079 620.243> 293 78<68.9033 233 264.049 372.119>
DStem2: 201 243 214 212 0.971457 0.237216<-61.6983 87.0019>
LayerCount: 2
Fore
SplineSet
455.408 590 m 0
 443.718 535 378.916 503 314.916 503 c 0
 249.916 503 201.931 536 213.408 590 c 0
 217.234 608 236.423 623 259.423 623 c 0
 281.423 623 290.447 609 287.046 593 c 0
 286.408 590 285.983 588 284.346 585 c 0
 282.708 582 282.07 579 281.646 577 c 0
 276.969 555 292.505 534 322.505 534 c 0
 351.505 534 376.756 554 381.433 576 c 0
 382.07 579 382.708 582 382.346 585 c 0
 381.771 587 382.195 589 382.834 592 c 0
 386.447 609 406.423 623 424.423 623 c 0
 448.423 623 459.447 609 455.408 590 c 0
342.525 233 m 1
 259.062 212 l 2
 181.096 192.4 150.246 147 140.681 102 c 0
 134.092 71 147.589 31 197.589 31 c 0
 225.589 31 264.266 53 294.729 74 c 0
 304.005 80 311.492 87 314.256 100 c 2
 342.525 233 l 1
303.203 48 m 1
 301.203 48 l 1
 277.802 32 l 2
 226.575 -2 205.874 -10 159.874 -10 c 0
 89.874 -10 40.0391 19 56.8301 98 c 0
 71.2842 166 151.55 219 252.651 243 c 2
 343.115 264 l 2
 346.327 265 350.178 269 351.666 276 c 0
 375.685 389 332.298 406 298.298 406 c 0
 260.298 406 212.96 395 206.37 364 c 0
 204.032 353 203.757 347 204.119 344 c 0
 205.27 340 204.781 333 203.293 326 c 0
 200.53 313 181.279 293 152.279 293 c 0
 129.279 293 119.617 304 124.719 328 c 0
 136.196 382 231.312 439 313.312 439 c 0
 386.312 439 458.573 412 428.391 270 c 2
 396.72 121 l 2
 386.941 75 379.652 36 418.652 36 c 0
 439.652 36 447.253 52 453.053 52 c 0
 457.053 52 463.928 42 462.439 35 c 0
 461.377 30 416.874 -10 367.874 -10 c 0
 314.475 -10 304.739 27 303.203 48 c 1
EndSplineSet
LCarets2: 1 0 
Colour: ff00ff
EndChar

StartChar: uni04D2
Encoding: 1234 1234 108
Width: 695
VWidth: 999
Flags: HW
HStem: -2 29<4 63.4383 192 227 438 472 669 687> 241 42<240.956 437> 638 20<355.667 370> 712 92<238.347 315.653 398.347 475.653>
VStem: 231 92<719.347 796.653> 391 92<719.347 796.653>
DStem2: 106.983 102 152 79 0.392949 0.91956<-35.5134 182.05 227.744 482.534> 329.333 622.333 338 550 0.392949 0.91956<-557.738 -393.648 -343.43 -63.1089> 390 628 340 550 0.35377 -0.935333<55.2675 339.317 384.261 592.374>
LayerCount: 2
Fore
SplineSet
388.118 758 m 0
 393.645 784 419.32 806 445.32 806 c 0
 471.32 806 487.645 784 482.118 758 c 0
 476.592 732 451.128 711 425.128 711 c 0
 399.128 711 382.592 732 388.118 758 c 0
557.118 758 m 0
 562.645 784 588.32 806 614.32 806 c 0
 640.32 806 656.645 784 651.118 758 c 0
 645.592 732 620.128 711 594.128 711 c 0
 568.128 711 551.592 732 557.118 758 c 0
323.153 283 m 2
 497.153 283 l 1
 456.906 550 l 1
 454.906 550 l 1
 300.78 296.3 l 2
 294.285 285.5 300.953 283 323.153 283 c 2
168.792 79 m 2
 143.534 37.7998 193.542 33.5996 230.589 31 c 1
 235.313 25 230.851 4 223.575 -2 c 1
 186.787 -1 137 0 96 0 c 0
 57 0 43.7871 -1 6.5752 -2 c 1
 1.85059 4 6.31348 25 13.5889 31 c 1
 57.7266 34 89.1445 40.2002 128.681 102 c 2
 461.574 622.3 l 2
 478.671 649.1 488.162 658 502.862 658 c 0
 516.862 658 520.288 647.3 523.485 628 c 2
 613.28 86 l 2
 620.833 34.5 653.533 34.5 691.589 31 c 1
 696.313 25 691.851 4 684.575 -2 c 1
 647.787 -1 612 0 571 0 c 0
 532 0 476.787 -1 439.575 -2 c 1
 434.851 4 439.313 25 446.589 31 c 1
 494.912 34.4004 535.447 30.7998 529.304 72 c 2
 504.227 241 l 1
 296.227 241 l 2
 272.227 241 265.391 236.6 257.612 224 c 2
 168.792 79 l 2
EndSplineSet
LCarets2: 1 0 
Colour: ff00ff
EndChar

StartChar: uni04D3
Encoding: 1235 1235 109
Width: 457
VWidth: 999
Flags: HW
HStem: -10 41<137.258 238.143 339.315 425.041> 409 30<147.012 252.929> 527 92<94.3474 171.653 254.347 331.653>
VStem: 36 79<52.097 160.39> 53 74<295.655 377.485> 87 92<534.347 611.653> 247 92<534.347 611.653> 291 74<68.1358 233 264.049 375.745>
DStem2: 199 243 212 212 0.971457 0.237216<-65.5494 87.0019>
LayerCount: 2
Fore
SplineSet
205.22 575 m 0
 210.746 601 236.423 623 262.423 623 c 0
 288.423 623 304.746 601 299.22 575 c 0
 293.693 549 268.229 528 242.229 528 c 0
 216.229 528 199.693 549 205.22 575 c 0
374.22 575 m 0
 379.746 601 405.423 623 431.423 623 c 0
 457.423 623 473.746 601 468.22 575 c 0
 462.693 549 437.229 528 411.229 528 c 0
 385.229 528 368.693 549 374.22 575 c 0
342.525 233 m 1
 259.062 212 l 2
 181.096 192.4 150.246 147 140.681 102 c 0
 134.092 71 147.589 31 197.589 31 c 0
 225.589 31 264.266 53 294.729 74 c 0
 304.005 80 311.492 87 314.256 100 c 2
 342.525 233 l 1
303.203 48 m 1
 301.203 48 l 1
 277.802 32 l 2
 226.575 -2 205.874 -10 159.874 -10 c 0
 89.874 -10 40.0391 19 56.8301 98 c 0
 71.2842 166 151.55 219 252.651 243 c 2
 343.115 264 l 2
 346.327 265 350.178 269 351.666 276 c 0
 375.685 389 332.298 406 298.298 406 c 0
 260.298 406 212.96 395 206.37 364 c 0
 204.032 353 203.757 347 204.119 344 c 0
 205.27 340 204.781 333 203.293 326 c 0
 200.53 313 181.279 293 152.279 293 c 0
 129.279 293 119.617 304 124.719 328 c 0
 136.196 382 231.312 439 313.312 439 c 0
 386.312 439 458.573 412 428.391 270 c 2
 396.72 121 l 2
 386.941 75 379.652 36 418.652 36 c 0
 439.652 36 447.253 52 453.053 52 c 0
 457.053 52 463.928 42 462.439 35 c 0
 461.377 30 416.874 -10 367.874 -10 c 0
 314.475 -10 304.739 27 303.203 48 c 1
EndSplineSet
LCarets2: 1 0 
Colour: ff00ff
EndChar

StartChar: uni04D4
Encoding: 1236 1236 110
Width: 865
VWidth: 999
Flags: HW
HStem: -2 29<4 35 167 201 342 374> 0 39<514.23 740.226> 266 39<271 429> 329 34<512 654.005> 605 40<517.062 711.984> 618 28<296 333>
VStem: 429 83<40.8651 266 305 329 363 597.745> 671 33<247 312.081 407 445>
DStem2: 102.87 85 148 68 0.46188 0.886943<-25.6807 228.955 272.783 581.116>
LayerCount: 2
Fore
SplineSet
335.83 305 m 1
 493.83 305 l 1
 551.22 575 l 2
 553.771 587 554.684 596 551.108 598 c 1
 335.83 305 l 1
471 0 m 2
 435 0 341.575 -2 341.575 -2 c 1
 340 0 l 1
 343.826 18 l 2
 344.889 23 348.654 26.5996 353.739 27 c 2
 380.164 29 l 2
 422.645 32.2002 438.777 46 444.729 74 c 2
 485.54 266 l 1
 307.54 266 l 1
 162.454 68 l 2
 135.98 31.9004 137.695 31.5 173.164 29 c 2
 201.739 27 l 2
 205.675 26.7002 206.889 23 206.464 21 c 2
 202 0 l 1
 200.575 -2 l 1
 200.575 -2 133 0 94 0 c 0
 59 0 3.5752 -2 3.5752 -2 c 1
 2 0 l 1
 6.03906 19 l 2
 7.10156 24 11.6328 26.5 17.7393 27 c 2
 41.1641 29 l 2
 79.5654 32.2998 87.9658 40.2998 120.968 85 c 2
 483.646 577 l 2
 500.868 601.1 483.158 614.7 463.935 616 c 2
 433.36 618 l 2
 427.445 618.4 425.998 621 426.848 625 c 2
 431.099 645 l 1
 433.312 646 l 1
 609.099 645 l 1
 686.099 645 l 1
 908.099 645 l 1
 901.621 591 898.08 532 896.365 491 c 1
 866.303 486 l 1
 858.969 555 852.597 605 776.597 605 c 2
 676.597 605 l 2
 652.597 605 636.133 584 631.244 561 c 2
 589.158 363 l 1
 691.158 363 l 2
 726.158 363 738.559 379 751.511 407 c 1
 763.887 437 l 2
 765.737 441 769.588 445 773.588 445 c 2
 795.588 445 l 2
 797.588 445 798.162 443 797.737 441 c 0
 789.424 416 776.559 379 769.545 346 c 0
 762.317 312 758.753 267 757.139 250 c 1
 754.502 247 l 1
 731.502 247 l 2
 725.502 247 724.139 250 723.989 254 c 2
 725.578 285 l 1
 725.53 313 717.931 329 683.931 329 c 2
 581.931 329 l 1
 527.729 74 l 2
 521.99 47 534.29 39 556.29 39 c 2
 687.29 39 l 2
 763.29 39 806.256 100 841.56 172 c 1
 870.497 167 l 1
 848.444 115 824.903 56 809 0 c 1
 471 0 l 2
EndSplineSet
Colour: ff00ff
EndChar

StartChar: uni04D5
Encoding: 1237 1237 111
Width: 687
VWidth: 999
Flags: HW
HStem: -10 42<130.239 246.095> -10 49<441.951 572.545> 218 35<217.563 298 372 518.524> 409 30<145.729 252.328 445.807 530.397>
VStem: 39 72<49.3331 157.224> 50 73<295.734 386.882> 298 73<118.736 215> 572 76<285.698 379.656>
AnchorPoint: "top_akzent" 478.099 645 basechar 0
LayerCount: 2
Fore
SplineSet
346.622 384 m 0
 335.174 399.3 307.298 406 286.298 406 c 0
 247.298 406 206.322 392 200.158 363 c 0
 198.032 353 197.545 346 198.907 343 c 0
 200.057 339 199.568 332 198.081 325 c 0
 194.68 309 177.066 292 152.066 292 c 0
 121.066 292 117.381 317 121.632 337 c 0
 133.96 395 221.312 439 303.312 439 c 0
 327.312 439 403.675 436 426.434 369 c 1
 468.998 414 526.312 439 583.312 439 c 0
 697.312 439 727.283 373 720.057 339 c 0
 702.84 258 648.975 221 417.337 218 c 1
 398.207 128 438.29 39 513.29 39 c 0
 567.29 39 607.604 64 645.043 99 c 1
 653.573 98.2002 659.469 88.2998 661.643 83 c 1
 621.164 29 554.874 -10 488.874 -10 c 0
 397.874 -10 368.761 35.0996 352.541 59 c 0
 346.454 68 341.524 64.0996 327.053 52 c 0
 270.984 5.09961 216.975 -10 179.874 -10 c 0
 143.874 -10 108.943 -4.5 89.7002 8 c 0
 59.3662 27.5996 51.8389 60.4004 60.6807 102 c 0
 69.1826 142 105.11 184 145.616 205.2 c 0
 194.115 230.6 263.043 243.9 351.139 250 c 1
 366.931 329 364.521 360 346.622 384 c 0
343.699 215 m 1
 273.23 209.5 219.639 192.6 184.113 169.9 c 0
 155.545 151.7 138.568 129.7 133.743 107 c 0
 124.604 64 144.802 32 200.802 32 c 0
 232.802 32 293.517 73 317.019 113 c 1
 325.058 132 333.072 165 343.699 215 c 1
425.776 253 m 1
 579.202 255 630.453 275 643.419 336 c 0
 650.221 368 623.298 406 575.298 406 c 0
 507.298 406 451.844 338 425.776 253 c 1
EndSplineSet
Colour: ff00ff
EndChar

StartChar: uni04D6
Encoding: 1238 1238 112
Width: 549
VWidth: 999
Flags: HW
HStem: -2 29<14 50> 0 39<183.683 419.99> 323 38<182 352.245> 416 20<367 392.5> 605 40<183.485 390.274> 618 28<14 50> 698 31<228.536 319.309>
VStem: 101 81<40.3443 323 361 603.225> 149 70<736.681 803.162> 328 70<735.774 803.125> 361 34<252 316.054 403 436> 438 29<499.793 534.346> 489 31<128.12 166.129>
LayerCount: 2
Fore
SplineSet
428.954 729 m 0
 461.954 729 488.567 746 492.181 763 c 0
 493.243 768 493.519 774 493.944 776 c 0
 497.132 791 510.32 806 533.32 806 c 0
 560.32 806 567.345 792 563.307 773 c 0
 552.253 721 488.364 698 422.364 698 c 0
 356.364 698 302.253 721 313.307 773 c 0
 317.345 792 330.32 806 357.32 806 c 0
 380.32 806 387.132 791 383.944 776 c 0
 383.519 774 381.243 768 380.181 763 c 0
 376.567 746 395.954 729 428.954 729 c 0
349.732 361 m 2
 434.732 361 440.496 374 455.187 429 c 1
 462.462 435 483.462 435 488.187 429 c 1
 480.811 399 475.134 377 467.907 343 c 0
 460.68 309 457.642 290 451.202 255 c 1
 443.927 249 422.927 249 418.202 255 c 1
 424.767 300 426.656 323 341.656 323 c 2
 250.656 323 l 1
 199.43 82 l 2
 193.69 55 204.29 39 226.29 39 c 2
 362.29 39 l 2
 438.29 39 485.83 98 521.135 170 c 1
 534.915 173.2 545.947 171 555.072 165 c 1
 536.231 114 507.203 48 482.575 -2 c 1
 482.575 -2 403 0 355 0 c 2
 140 0 l 1
 140 0 58.7871 -1 9.5752 -2 c 1
 4.85059 4 9.31348 25 16.5889 31 c 1
 87.2266 34 105.29 39 122.932 122 c 2
 208.167 523 l 2
 225.81 606 209.872 611 140.51 614 c 1
 135.785 620 140.249 641 147.524 647 c 1
 197.312 646 276.099 645 276.099 645 c 1
 531.099 645 l 2
 555.099 645 563.312 646 580.949 649 c 0
 583.949 649 584.736 648 584.312 646 c 0
 584.611 638 579.206 542 575.491 501 c 1
 564.691 496.3 553.445 494.2 541.428 496 c 1
 534.095 565 526.597 605 451.597 605 c 2
 346.597 605 l 2
 322.597 605 306.346 585 301.244 561 c 2
 258.732 361 l 1
 349.732 361 l 2
EndSplineSet
LCarets2: 1 0 
Colour: ff00ff
EndChar

StartChar: uni04D7
Encoding: 1239 1239 113
Width: 447
VWidth: 999
Flags: HW
HStem: -10 49<195.372 321.672> 248 39<117 314.997> 405 34<173.337 282.104> 489 31<186.971 261.548>
VStem: 34 80<137.009 248> 103 73<526.553 605.612> 272 73<526.548 606.379> 315 80<259.5 367.016>
LayerCount: 2
Fore
SplineSet
470.408 590 m 0
 458.718 535 393.916 503 329.916 503 c 0
 264.916 503 216.931 536 228.408 590 c 0
 232.234 608 251.423 623 274.423 623 c 0
 296.423 623 305.447 609 302.046 593 c 0
 301.408 590 300.983 588 299.346 585 c 0
 297.708 582 297.07 579 296.646 577 c 0
 291.969 555 307.505 534 337.505 534 c 0
 366.505 534 391.756 554 396.433 576 c 0
 397.07 579 397.708 582 397.346 585 c 0
 396.771 587 397.195 589 397.834 592 c 0
 401.447 609 421.423 623 439.423 623 c 0
 463.423 623 474.447 609 470.408 590 c 0
185.004 287 m 1
 360.578 285 l 2
 370.578 285 376.642 290 378.555 299 c 0
 396.409 383 360.873 404 322.873 404 c 0
 298.873 404 228.022 400 185.004 287 c 1
405.768 93 m 1
 417.556 92 422.492 87 423.367 77 c 1
 372.313 25 310.449 -12 234.449 -12 c 0
 162.449 -12 120.976 14 95.4785 54 c 0
 70.5557 92 68.0332 146 79.9365 202 c 0
 112.245 354 229.888 437 329.887 437 c 0
 468.887 437 474.757 347 456.902 263 c 0
 454.564 252 446.289 246 434.289 246 c 2
 173.714 248 l 1
 161.386 190 163.608 144 176.594 111 c 0
 196.753 60 233.864 37 269.864 37 c 0
 327.864 37 360.69 55 405.768 93 c 1
EndSplineSet
LCarets2: 1 0 
Colour: ff00ff
EndChar

StartChar: uni04D8
Encoding: 1240 1240 114
Width: 644
VWidth: 999
Flags: HW
HStem: -12 34<246.269 393.278> 216 44<122 511> 624 34<207.892 368.818>
VStem: 521 90<221.919 443.038>
LayerCount: 2
Fore
SplineSet
208.167 523 m 1
 190.269 547 l 1
 284.998 621 339.862 658 449.862 658 c 0
 664.862 658 714.09 485 680.293 326 c 0
 638.845 131 506.449 -12 313.449 -12 c 0
 121.449 -12 78.082 118 97.2646 260 c 1
 575.265 260 l 1
 578.603 271 581.153 283 584.129 297 c 0
 623.665 483 561.636 624 426.636 624 c 0
 333.636 624 272.22 575 208.167 523 c 1
167.912 216 m 1
 171.28 86 229.676 22 327.676 22 c 0
 433.676 22 517.656 116 556.912 216 c 1
 167.912 216 l 1
EndSplineSet
Colour: ff00ff
EndChar

StartChar: afii10846
Encoding: 1241 1241 115
Width: 447
VWidth: 999
Flags: HW
HStem: -11 34<145.896 254.663> 141 39<113.003 311> 389 49<106.328 232.628>
VStem: 33 80<60.984 168.5> 314 80<180 290.991>
AnchorPoint: "top_akzent" 348.099 645 basechar 0
LayerCount: 2
Fore
SplineSet
333.971 141 m 1
 158.396 143 l 2
 148.396 143 142.333 138 140.42 129 c 0
 122.565 45 158.102 24 196.102 24 c 0
 220.102 24 290.951 28 333.971 141 c 1
113.206 335 m 1
 101.419 336 96.4814 341 95.6074 351 c 1
 146.66 403 208.524 440 284.524 440 c 0
 356.524 440 397.998 414 423.496 374 c 0
 448.419 336 450.941 282 439.038 226 c 0
 406.729 74 289.087 -9 189.087 -9 c 0
 50.0869 -9 44.2168 81 62.0723 165 c 0
 64.4102 176 72.6855 182 84.6855 182 c 2
 345.26 180 l 1
 357.589 238 355.366 284 342.381 317 c 0
 322.221 368 285.109 391 249.109 391 c 0
 191.109 391 158.283 373 113.206 335 c 1
EndSplineSet
Colour: ff00ff
EndChar

StartChar: uni04DA
Encoding: 1242 1242 116
Width: 644
VWidth: 999
Flags: HW
HStem: -12 34<246.269 393.278> 216 44<122 511> 624 34<207.892 368.818> 704 96<191.332 270.668 380.332 459.668>
VStem: 183 96<712.332 791.668> 372 96<712.332 791.668> 521 90<221.919 443.038>
LayerCount: 2
Fore
SplineSet
531.843 752 m 0
 537.369 778 564.045 800 590.045 800 c 0
 616.045 800 633.369 778 627.843 752 c 0
 622.316 726 595.64 704 569.64 704 c 0
 543.64 704 526.316 726 531.843 752 c 0
342.843 752 m 0
 348.369 778 375.045 800 401.045 800 c 0
 427.045 800 444.369 778 438.843 752 c 0
 433.316 726 406.64 704 380.64 704 c 0
 354.64 704 337.316 726 342.843 752 c 0
208.167 523 m 1
 190.269 547 l 1
 284.998 621 339.862 658 449.862 658 c 0
 664.862 658 714.09 485 680.293 326 c 0
 638.845 131 506.449 -12 313.449 -12 c 0
 121.449 -12 78.082 118 97.2646 260 c 1
 575.265 260 l 1
 578.603 271 581.153 283 584.129 297 c 0
 623.665 483 561.636 624 426.636 624 c 0
 333.636 624 272.22 575 208.167 523 c 1
167.912 216 m 1
 171.28 86 229.676 22 327.676 22 c 0
 433.676 22 517.656 116 556.912 216 c 1
 167.912 216 l 1
EndSplineSet
LCarets2: 1 0 
Colour: ff00ff
EndChar

StartChar: uni04DB
Encoding: 1243 1243 117
Width: 447
VWidth: 999
Flags: HW
HStem: -11 34<145.896 254.663> 141 39<113.003 311> 389 49<106.328 232.628> 527 92<94.3474 171.653 254.347 331.653>
VStem: 33 80<60.984 168.5> 87 92<534.347 611.653> 247 92<534.347 611.653> 314 80<180 290.991>
LayerCount: 2
Fore
SplineSet
204.795 573 m 0
 210.321 599 235.998 621 261.998 621 c 0
 287.998 621 304.321 599 298.795 573 c 0
 293.269 547 267.805 526 241.805 526 c 0
 215.805 526 199.269 547 204.795 573 c 0
373.795 573 m 0
 379.321 599 404.998 621 430.998 621 c 0
 456.998 621 473.321 599 467.795 573 c 0
 462.269 547 436.805 526 410.805 526 c 0
 384.805 526 368.269 547 373.795 573 c 0
333.971 141 m 1
 158.396 143 l 2
 148.396 143 142.333 138 140.42 129 c 0
 122.565 45 158.102 24 196.102 24 c 0
 220.102 24 290.951 28 333.971 141 c 1
113.206 335 m 1
 101.419 336 96.4814 341 95.6074 351 c 1
 146.66 403 208.524 440 284.524 440 c 0
 356.524 440 397.998 414 423.496 374 c 0
 448.419 336 450.941 282 439.038 226 c 0
 406.729 74 289.087 -9 189.087 -9 c 0
 50.0869 -9 44.2168 81 62.0723 165 c 0
 64.4102 176 72.6855 182 84.6855 182 c 2
 345.26 180 l 1
 357.589 238 355.366 284 342.381 317 c 0
 322.221 368 285.109 391 249.109 391 c 0
 191.109 391 158.283 373 113.206 335 c 1
EndSplineSet
LCarets2: 1 0 
Colour: ff00ff
EndChar

StartChar: uni04E0
Encoding: 1248 1248 118
Width: 608
VWidth: 999
Flags: HW
HStem: -211 37<215 357> 605 39<141 167 167 446>
VStem: 475 89<-42 146>
DStem2: 250 252 367 288 0.48636 0.873758<88.8042 404.592>
LayerCount: 2
Fore
SplineSet
304.099 645 m 2
 659.099 645 l 2
 680.099 645 685.823 639 684.123 631 c 0
 681.998 621 672.597 605 660.408 590 c 2
 428.216 288 l 1
 556.478 261 598.435 162 574.841 51 c 0
 545.295 -88 387.15 -211 227.15 -211 c 0
 147.15 -211 4.58984 -176 18.6191 -110 c 0
 23.5078 -87 39.2471 -60 73.2471 -60 c 0
 100.247 -60 125.271 -74 133.807 -95 c 0
 155.392 -144 199.016 -174 254.016 -174 c 0
 341.016 -174 463.734 -53 483.928 42 c 0
 517.724 201 414.202 255 345.202 255 c 0
 329.202 255 318.202 255 303.564 252 c 1
 574.597 605 l 1
 325.597 605 l 1
 251.384 604 204.742 521 191.39 477 c 1
 165.814 479 l 1
 226.775 667 l 1
 248.713 662 280.099 645 304.099 645 c 2
EndSplineSet
Colour: ff00ff
EndChar

StartChar: uni04E1
Encoding: 1249 1249 119
Width: 416
VWidth: 999
Flags: HW
HStem: -235 35<149 244> 103 34<216 268> 395 34<107 295>
VStem: 40 27<303 337> 312 81<-120 61>
DStem2: 127 107 216 137 0.505072 0.863077<70.4402 332.658>
LayerCount: 2
Fore
SplineSet
149.743 107 m 1
 378.96 395 l 1
 233.96 395 l 2
 203.96 395 165.496 374 129.979 301 c 1
 104.617 304 l 1
 123.032 353 138.385 397 148.95 442 c 1
 173.95 442 l 1
 174.675 436 182.187 429 197.187 429 c 2
 400.187 429 l 2
 429.187 429 466.462 435 468.462 435 c 0
 475.462 435 481.037 433 480.187 429 c 0
 479.337 425 470.998 414 449.26 387 c 2
 245.12 137 l 1
 341.12 137 410.854 84 388.324 -22 c 0
 363.029 -141 258.049 -235 135.049 -235 c 0
 50.0488 -235 5.01562 -174 11.8174 -142 c 0
 15.6426 -124 29.4688 -106 51.4688 -106 c 0
 74.4688 -106 85.3438 -116 88.2422 -140 c 0
 91.5654 -162 110.488 -200 150.488 -200 c 0
 200.488 -200 280.967 -146 303.923 -38 c 0
 325.391 63 302.894 103 224.894 103 c 0
 213.894 103 182.405 96 163.556 92 c 1
 149.743 107 l 1
EndSplineSet
Colour: ff00ff
EndChar

StartChar: uni04E6
Encoding: 1254 1254 120
Width: 702
VWidth: 999
Flags: HW
HStem: -10 34<291.757 439.305> 624 34<260.807 413.377> 704 96<212.332 291.668 401.332 480.668>
VStem: 37 92<199.09 439.608> 204 96<712.332 791.668> 393 96<712.332 791.668> 570 92<197.944 451.367>
LayerCount: 2
Fore
SplineSet
552.843 752 m 0
 558.369 778 585.045 800 611.045 800 c 0
 637.045 800 654.369 778 648.843 752 c 0
 643.316 726 616.64 704 590.64 704 c 0
 564.64 704 547.316 726 552.843 752 c 0
363.843 752 m 0
 369.369 778 396.045 800 422.045 800 c 0
 448.045 800 465.369 778 459.843 752 c 0
 454.316 726 427.64 704 401.64 704 c 0
 375.64 704 358.316 726 363.843 752 c 0
463.636 624 m 0
 372.636 624 247.143 537 202.506 327 c 0
 161.695 135 255.102 24 375.102 24 c 0
 489.102 24 597.845 131 635.893 310 c 0
 680.104 518 599.636 624 463.636 624 c 0
735.931 329 m 0
 693.42 129 538.874 -10 347.874 -10 c 0
 175.874 -10 61.0186 113 102.893 310 c 0
 144.554 506 304.862 658 483.862 658 c 0
 658.862 658 778.018 527 735.931 329 c 0
EndSplineSet
LCarets2: 1 0 
Colour: ff00ff
EndChar

StartChar: uni04E7
Encoding: 1255 1255 121
Width: 504
VWidth: 999
Flags: HW
HStem: -10 33<213.4 322.075> 406 33<188.61 301.402> 528 95<129.016 206.984 298.016 375.984>
VStem: 41 86<119.996 315.414> 121 94<535.394 615.312> 290 94<535.394 615.312> 377 86<113.472 321.738>
LayerCount: 2
Fore
SplineSet
243.22 575 m 0
 248.746 601 274.423 623 300.423 623 c 0
 326.423 623 342.746 601 337.22 575 c 0
 331.693 549 306.229 528 280.229 528 c 0
 254.229 528 237.693 549 243.22 575 c 0
412.22 575 m 0
 417.746 601 443.423 623 469.423 623 c 0
 495.423 623 511.746 601 506.22 575 c 0
 500.693 549 475.229 528 449.229 528 c 0
 423.229 528 406.693 549 412.22 575 c 0
84.5742 205 m 0
 111.568 332 211.312 439 346.312 439 c 0
 501.312 439 530.593 318 508.487 214 c 0
 487.231 114 397.874 -10 248.874 -10 c 0
 107.874 -10 62.8936 103 84.5742 205 c 0
328.298 406 m 0
 244.298 406 193.955 315 175.463 228 c 0
 159.096 151 169.889 23 273.889 23 c 0
 320.889 23 387.628 50 415.686 182 c 0
 446.931 329 414.298 406 328.298 406 c 0
EndSplineSet
LCarets2: 1 0 
Colour: ff00ff
EndChar

StartChar: uni04E8
Encoding: 1256 1256 122
Width: 702
VWidth: 999
Flags: HW
HStem: -10 34<291.757 439.305> 266 57<382.324 529.392> 312 58<172.336 335.102> 624 34<260.807 413.377>
VStem: 37 92<199.09 439.608> 570 92<197.944 451.367>
LayerCount: 2
Fore
SplineSet
463.636 624 m 0
 372.636 624 247.143 537 202.506 327 c 2
 202.464 326.8 l 1
 248.055 356.4 310.346 370 346.646 370 c 0
 444.646 370 464.656 323 527.656 323 c 0
 558.855 323 606.928 335.1 644.152 357.8 c 1
 666.947 534.2 588.835 624 463.636 624 c 0
735.931 329 m 0
 693.42 129 538.874 -10 347.874 -10 c 0
 175.874 -10 61.0186 113 102.893 310 c 0
 144.554 506 304.862 658 483.862 658 c 0
 658.862 658 778.018 527 735.931 329 c 0
637.02 315.3 m 1
 587.142 277.3 535.14 266 497.54 266 c 0
 405.54 266 391.317 312 316.317 312 c 0
 287.617 312 234.997 307.2 195.563 285.4 c 1
 175.815 119.1 264.102 24 375.102 24 c 0
 489.102 24 597.845 131 635.893 310 c 0
 636.275 311.8 636.637 313.5 637.02 315.3 c 1
EndSplineSet
Colour: ff00ff
EndChar

StartChar: uni04E9
Encoding: 1257 1257 123
Width: 504
VWidth: 999
Flags: HW
HStem: -10 33<213.4 322.075> 179 50<214.959 359.048> 207 42<127.26 244.294> 406 33<188.61 301.402>
VStem: 41 86<119.996 315.414> 377 86<113.472 321.738>
AnchorPoint: "unten_punkt" 223.257 -107 basechar 0
AnchorPoint: "top_akzent" 373.099 645 basechar 0
LayerCount: 2
Fore
SplineSet
84.5742 205 m 0
 111.568 332 211.312 439 346.312 439 c 0
 501.312 439 530.593 318 508.487 214 c 0
 487.231 114 397.874 -10 248.874 -10 c 0
 107.874 -10 62.8936 103 84.5742 205 c 0
328.298 406 m 0
 244.298 406 193.955 315 175.463 228 c 0
 175.335 227.4 175.187 226.7 175.059 226.1 c 1
 198.967 237.9 244.727 249 275.927 249 c 0
 320.927 249 338.676 229 376.676 229 c 0
 393.075 229 410.411 233.4 425.016 238.6 c 1
 437.019 348.7 402.498 406 328.298 406 c 0
421.101 210.3 m 1
 395.41 196.7 355.248 179 322.048 179 c 0
 279.048 179 250.999 207 215.999 207 c 0
 206.299 207 183.243 202.5 171.061 200.7 c 1
 162.578 124.1 181.489 23 273.889 23 c 0
 320.889 23 387.628 50 415.686 182 c 0
 417.747 191.7 419.566 201.2 421.101 210.3 c 1
EndSplineSet
Colour: ff9ccc
EndChar

StartChar: uni04EA
Encoding: 1258 1258 124
Width: 702
VWidth: 999
Flags: HW
HStem: -10 34<291.757 439.305> 266 57<382.324 529.392> 312 58<172.336 335.102> 624 34<260.807 413.377> 706 96<209.332 288.668 398.332 477.668>
VStem: 37 92<199.09 439.608> 201 96<714.332 793.668> 390 96<714.332 793.668> 570 92<197.944 451.367>
LayerCount: 2
Fore
SplineSet
550.268 754 m 0
 555.794 780 582.471 802 608.471 802 c 0
 634.471 802 651.794 780 646.268 754 c 0
 640.741 728 614.064 706 588.064 706 c 0
 562.064 706 544.741 728 550.268 754 c 0
361.268 754 m 0
 366.794 780 393.471 802 419.471 802 c 0
 445.471 802 462.794 780 457.268 754 c 0
 451.741 728 425.064 706 399.064 706 c 0
 373.064 706 355.741 728 361.268 754 c 0
463.636 624 m 0
 372.636 624 247.143 537 202.506 327 c 2
 202.464 326.8 l 1
 248.055 356.4 310.346 370 346.646 370 c 0
 444.646 370 464.656 323 527.656 323 c 0
 558.855 323 606.928 335.1 644.152 357.8 c 1
 666.947 534.2 588.835 624 463.636 624 c 0
735.931 329 m 0
 693.42 129 538.874 -10 347.874 -10 c 0
 175.874 -10 61.0186 113 102.893 310 c 0
 144.554 506 304.862 658 483.862 658 c 0
 658.862 658 778.018 527 735.931 329 c 0
637.02 315.3 m 1
 587.142 277.3 535.14 266 497.54 266 c 0
 405.54 266 391.317 312 316.317 312 c 0
 287.617 312 234.997 307.2 195.563 285.4 c 1
 175.815 119.1 264.102 24 375.102 24 c 0
 489.102 24 597.845 131 635.893 310 c 0
 636.275 311.8 636.637 313.5 637.02 315.3 c 1
EndSplineSet
LCarets2: 1 0 
Colour: ff00ff
EndChar

StartChar: uni04EB
Encoding: 1259 1259 125
Width: 504
VWidth: 999
Flags: HW
HStem: -10 33<213.4 322.075> 179 50<214.959 359.048> 207 42<127.26 244.294> 406 33<188.61 301.402> 526 95<124.016 201.984 293.016 370.984>
VStem: 41 86<119.996 315.414> 116 94<533.394 613.312> 285 94<533.394 613.312> 377 86<113.472 321.738>
LayerCount: 2
Fore
SplineSet
84.5742 205 m 0
 111.568 332 211.312 439 346.312 439 c 0
 501.312 439 530.593 318 508.487 214 c 0
 487.231 114 397.874 -10 248.874 -10 c 0
 107.874 -10 62.8936 103 84.5742 205 c 0
328.298 406 m 0
 244.298 406 193.955 315 175.463 228 c 0
 175.335 227.4 175.187 226.7 175.059 226.1 c 1
 198.967 237.9 244.727 249 275.927 249 c 0
 320.927 249 338.676 229 376.676 229 c 0
 393.075 229 410.411 233.4 425.016 238.6 c 1
 437.019 348.7 402.498 406 328.298 406 c 0
237.795 573 m 0
 243.321 599 268.998 621 294.998 621 c 0
 320.998 621 337.321 599 331.795 573 c 0
 326.269 547 300.805 526 274.805 526 c 0
 248.805 526 232.269 547 237.795 573 c 0
406.795 573 m 0
 412.321 599 437.998 621 463.998 621 c 0
 489.998 621 506.321 599 500.795 573 c 0
 495.269 547 469.805 526 443.805 526 c 0
 417.805 526 401.269 547 406.795 573 c 0
421.101 210.3 m 1
 395.41 196.7 355.248 179 322.048 179 c 0
 279.048 179 250.999 207 215.999 207 c 0
 206.299 207 183.243 202.5 171.061 200.7 c 1
 162.578 124.1 181.489 23 273.889 23 c 0
 320.889 23 387.628 50 415.686 182 c 0
 417.747 191.7 419.566 201.2 421.101 210.3 c 1
EndSplineSet
LCarets2: 1 0 
Colour: ff00ff
EndChar

StartChar: uni04EF
Encoding: 1263 1263 126
Width: 519
VWidth: 999
Flags: HW
HStem: -232 55<89.5 154.725> 402 29<10 58.2034 152.914 203 331 382.132 452.185 494> 538 44<129.088 407.515>
VStem: 128 281<538.205 582>
DStem2: 157 357 79 353 0.395054 -0.918658<-33.6182 280.47> 214 -28 238 -74 0.395374 0.91852<-166.96 31.2484 137.607 450.173>
LayerCount: 2
Fore
SplineSet
173.991 -160 m 0
 124.388 -224 82.6865 -232 61.6865 -232 c 0
 34.6865 -232 18.7256 -213 23.1895 -192 c 0
 26.5898 -176 44.6914 -152 75.6914 -152 c 0
 86.6914 -152 90.0537 -155 104.054 -155 c 0
 129.054 -155 144.967 -146 160.218 -126 c 1
 181.807 -95 199.773 -67.4004 218.773 -34 c 0
 234.725 -6 229.181 39.9004 224.753 60 c 2
 167.556 323 l 2
 153.695 386.7 147.348 394 104.598 398 c 1
 99.873 404 104.337 425 111.612 431 c 1
 131.399 430 158.187 429 192.187 429 c 0
 228.187 429 268.399 430 305.612 431 c 1
 310.337 425 305.873 404 298.598 398 c 1
 236.277 393.2 242.951 375.2 251.981 333 c 2
 296.47 125 l 2
 300.761 105.2 309.734 107.9 320.157 124 c 2
 468.032 353 l 2
 491.427 389.2 460.56 395 429.598 398 c 1
 424.873 404 429.337 425 436.612 431 c 1
 473.399 430 492.187 429 527.187 429 c 0
 555.187 429 573.399 430 598.612 431 c 1
 603.337 425 598.873 404 591.598 398 c 1
 553.96 395 517.158 363 496.994 334 c 0
 420.188 222 354.673 118.9 233.271 -74 c 0
 214.679 -103.6 195.5 -132.2 173.991 -160 c 0
485.104 518 m 2
 261.104 518 l 2
 252.104 518 250.442 529 251.931 536 c 0
 254.481 548 269.732 568 280.732 568 c 2
 505.732 568 l 2
 515.732 568 517.394 557 516.119 551 c 0
 513.568 539 498.104 518 485.104 518 c 2
EndSplineSet
LCarets2: 1 0 
Colour: ff00ff
EndChar

StartChar: uni04F1
Encoding: 1265 1265 127
Width: 519
VWidth: 999
Flags: HW
HStem: -232 80<69.4626 167.025> 398 33<16.625 66.5342 168.928 217.375 341.625 393.171 465.975 510.375> 526 95<157.016 234.984 326.016 403.984>
VStem: 149 94<533.394 613.312> 318 94<533.394 613.312>
DStem2: 181.233 333 98.9014 323 0.395053 -0.918658<-54.1669 236.484> 226 -34 249 -74 0.397404 0.917644<-98.3122 43.0767 162.026 450.625>
LayerCount: 2
Fore
SplineSet
173.991 -160 m 0
 124.388 -224 82.6865 -232 61.6865 -232 c 0
 34.6865 -232 18.7256 -213 23.1895 -192 c 0
 26.5898 -176 44.6914 -152 75.6914 -152 c 0
 86.6914 -152 90.0537 -155 104.054 -155 c 0
 129.054 -155 144.967 -146 160.218 -126 c 1
 181.807 -95 199.773 -67.4004 218.773 -34 c 0
 234.725 -6 229.181 39.9004 224.753 60 c 2
 167.556 323 l 2
 153.695 386.7 147.348 394 104.598 398 c 1
 99.873 404 104.337 425 111.612 431 c 1
 131.399 430 158.187 429 192.187 429 c 0
 228.187 429 268.399 430 305.612 431 c 1
 310.337 425 305.873 404 298.598 398 c 1
 236.277 393.2 242.951 375.2 251.981 333 c 2
 296.47 125 l 2
 300.761 105.2 309.734 107.9 320.157 124 c 2
 468.032 353 l 2
 491.427 389.2 460.56 395 429.598 398 c 1
 424.873 404 429.337 425 436.612 431 c 1
 473.399 430 492.187 429 527.187 429 c 0
 555.187 429 573.399 430 598.612 431 c 1
 603.337 425 598.873 404 591.598 398 c 1
 553.96 395 517.158 363 496.994 334 c 0
 420.188 222 354.673 118.9 233.271 -74 c 0
 214.679 -103.6 195.5 -132.2 173.991 -160 c 0
270.795 573 m 0
 276.321 599 301.998 621 327.998 621 c 0
 353.998 621 370.321 599 364.795 573 c 0
 359.269 547 333.805 526 307.805 526 c 0
 281.805 526 265.269 547 270.795 573 c 0
439.795 573 m 0
 445.321 599 470.998 621 496.998 621 c 0
 522.998 621 539.321 599 533.795 573 c 0
 528.269 547 502.805 526 476.805 526 c 0
 450.805 526 434.269 547 439.795 573 c 0
EndSplineSet
LCarets2: 1 0 
Colour: ff00ff
EndChar

StartChar: uni04F3
Encoding: 1267 1267 128
Width: 519
VWidth: 999
Flags: HW
HStem: -232 55<89.5 154.725> 402 29<10 58.2034 152.914 203 331 382.132 452.185 494>
DStem2: 157 357 79 353 0.395054 -0.918658<-33.6182 280.47> 214 -28 238 -74 0.395374 0.91852<-166.96 31.2484 137.607 450.173>
LayerCount: 2
Fore
SplineSet
173.991 -160 m 0
 124.388 -224 82.6865 -232 61.6865 -232 c 0
 34.6865 -232 18.7256 -213 23.1895 -192 c 0
 26.5898 -176 44.6914 -152 75.6914 -152 c 0
 86.6914 -152 90.0537 -155 104.054 -155 c 0
 129.054 -155 144.967 -146 160.218 -126 c 1
 181.807 -95 199.773 -67.4004 218.773 -34 c 0
 234.725 -6 229.181 39.9004 224.753 60 c 2
 167.556 323 l 2
 153.695 386.7 147.348 394 104.598 398 c 1
 99.873 404 104.337 425 111.612 431 c 1
 131.399 430 158.187 429 192.187 429 c 0
 228.187 429 268.399 430 305.612 431 c 1
 310.337 425 305.873 404 298.598 398 c 1
 236.277 393.2 242.951 375.2 251.981 333 c 2
 296.47 125 l 2
 300.761 105.2 309.734 107.9 320.157 124 c 2
 468.032 353 l 2
 491.427 389.2 460.56 395 429.598 398 c 1
 424.873 404 429.337 425 436.612 431 c 1
 473.399 430 492.187 429 527.187 429 c 0
 555.187 429 573.399 430 598.612 431 c 1
 603.337 425 598.873 404 591.598 398 c 1
 553.96 395 517.158 363 496.994 334 c 0
 420.188 222 354.673 118.9 233.271 -74 c 0
 214.679 -103.6 195.5 -132.2 173.991 -160 c 0
592.723 615 m 0
 591.447 609 588.959 602 581.684 596 c 2
 444.303 486 l 2
 441.877 484 439.877 484 437.877 484 c 0
 432.877 484 424.94 489 426.641 497 c 0
 426.854 498 427.278 500 428.491 501 c 2
 536.036 640 l 2
 542.949 649 550.587 652 562.587 652 c 0
 583.587 652 596.676 633.6 592.723 615 c 0
461.998 621 m 0
 460.935 616 458.659 610 453.597 605 c 2
 325.877 484 l 2
 323.452 482 320.239 481 317.239 481 c 0
 311.239 481 304.303 486 306.003 494 c 0
 306.216 495 306.428 496 307.641 497 c 2
 402.674 643 l 2
 411.438 656 427.649 657 431.649 657 c 0
 452.55 657 466.355 641.5 461.998 621 c 0
EndSplineSet
LCarets2: 1 0 
Colour: ff00ff
EndChar

StartChar: uni1E00
Encoding: 7680 7680 129
Width: 695
VWidth: 999
Flags: HW
HStem: -215 27<301.794 369.684> -76 27<301.294 370.499> -2 29<4 63.4383 192 227 438 472 669 687> 241 42<240.956 437> 638 20<355.667 370>
VStem: 251 31<-170.178 -93.447> 390 31<-169.958 -93.519>
DStem2: 106.983 102 152 79 0.392949 0.91956<-35.5134 182.05 227.744 482.534> 329.333 622.333 338 550 0.392949 0.91956<-557.738 -393.648 -343.43 -63.1089> 390 628 340 550 0.35377 -0.935333<55.2675 339.317 384.261 592.374>
LayerCount: 2
Fore
SplineSet
319.208 -79 m 0
 288.208 -79 266.319 -102 259.942 -132 c 0
 253.991 -160 265.677 -185 296.677 -185 c 0
 327.677 -185 349.991 -160 355.942 -132 c 0
 362.532 -101 349.208 -79 319.208 -79 c 0
219.942 -132 m 0
 229.72 -86 280.01 -47 326.01 -47 c 0
 372.01 -47 405.933 -85 395.942 -132 c 0
 386.378 -177 337.875 -217 289.875 -217 c 0
 243.875 -217 210.165 -178 219.942 -132 c 0
323.153 283 m 2
 497.153 283 l 1
 456.906 550 l 1
 454.906 550 l 1
 300.78 296.3 l 2
 294.285 285.5 300.953 283 323.153 283 c 2
168.792 79 m 2
 143.534 37.7998 193.542 33.5996 230.589 31 c 1
 235.313 25 230.851 4 223.575 -2 c 1
 186.787 -1 137 0 96 0 c 0
 57 0 43.7871 -1 6.5752 -2 c 1
 1.85059 4 6.31348 25 13.5889 31 c 1
 57.7266 34 89.1445 40.2002 128.681 102 c 2
 461.574 622.3 l 2
 478.671 649.1 488.162 658 502.862 658 c 0
 516.862 658 520.288 647.3 523.485 628 c 2
 613.28 86 l 2
 620.833 34.5 653.533 34.5 691.589 31 c 1
 696.313 25 691.851 4 684.575 -2 c 1
 647.787 -1 612 0 571 0 c 0
 532 0 476.787 -1 439.575 -2 c 1
 434.851 4 439.313 25 446.589 31 c 1
 494.912 34.4004 535.447 30.7998 529.304 72 c 2
 504.227 241 l 1
 296.227 241 l 2
 272.227 241 265.391 236.6 257.612 224 c 2
 168.792 79 l 2
EndSplineSet
LCarets2: 1 0 
Colour: ff00ff
EndChar

StartChar: uni1E01
Encoding: 7681 7681 130
Width: 457
VWidth: 999
Flags: HW
HStem: -216 27<189.794 257.684> -77 27<189.294 258.499> -10 41<137.258 238.143 339.315 425.041> 409 30<147.012 252.929>
VStem: 36 79<52.097 160.39> 53 74<295.655 377.485> 139 31<-171.178 -94.447> 278 31<-170.958 -94.519> 291 74<68.1358 233 264.049 375.745>
DStem2: 199 243 212 212 0.971457 0.237216<-65.5494 87.0019>
LayerCount: 2
Fore
SplineSet
206.995 -80 m 0
 175.995 -80 154.106 -103 147.73 -133 c 0
 141.778 -161 153.465 -186 184.465 -186 c 0
 215.465 -186 237.778 -161 243.73 -133 c 0
 250.319 -102 236.995 -80 206.995 -80 c 0
107.73 -133 m 0
 117.508 -87 167.797 -48 213.797 -48 c 0
 259.797 -48 293.72 -86 283.73 -133 c 0
 274.165 -178 225.663 -218 177.663 -218 c 0
 131.663 -218 97.9521 -179 107.73 -133 c 0
342.525 233 m 1
 259.062 212 l 2
 181.096 192.4 150.246 147 140.681 102 c 0
 134.092 71 147.589 31 197.589 31 c 0
 225.589 31 264.266 53 294.729 74 c 0
 304.005 80 311.492 87 314.256 100 c 2
 342.525 233 l 1
303.203 48 m 1
 301.203 48 l 1
 277.802 32 l 2
 226.575 -2 205.874 -10 159.874 -10 c 0
 89.874 -10 40.0391 19 56.8301 98 c 0
 71.2842 166 151.55 219 252.651 243 c 2
 343.115 264 l 2
 346.327 265 350.178 269 351.666 276 c 0
 375.685 389 332.298 406 298.298 406 c 0
 260.298 406 212.96 395 206.37 364 c 0
 204.032 353 203.757 347 204.119 344 c 0
 205.27 340 204.781 333 203.293 326 c 0
 200.53 313 181.279 293 152.279 293 c 0
 129.279 293 119.617 304 124.719 328 c 0
 136.196 382 231.312 439 313.312 439 c 0
 386.312 439 458.573 412 428.391 270 c 2
 396.72 121 l 2
 386.941 75 379.652 36 418.652 36 c 0
 439.652 36 447.253 52 453.053 52 c 0
 457.053 52 463.928 42 462.439 35 c 0
 461.377 30 416.874 -10 367.874 -10 c 0
 314.475 -10 304.739 27 303.203 48 c 1
EndSplineSet
LCarets2: 1 0 
Colour: ff00ff
EndChar

StartChar: uni1E02
Encoding: 7682 7682 131
Width: 588
VWidth: 999
Flags: HW
HStem: -2 33<15.625 88.75 212.537 377.943> 332 34<191 351.927> 613 34<15.9238 91.0861 194.534 342.51> 702 104<234.542 317.458>
VStem: 106 85<46.5258 332 366 601.619> 224 104<712.542 795.458> 407 81<427.388 560.634> 454 93<98.7984 251.316>
LayerCount: 2
Fore
SplineSet
384.268 754 m 0
 390.219 782 419.32 806 447.32 806 c 0
 475.32 806 494.219 782 488.268 754 c 0
 482.316 726 453.215 702 425.215 702 c 0
 397.215 702 378.316 726 384.268 754 c 0
312.157 570 m 2
 268.796 366 l 1
 342.796 366 l 2
 425.796 366 491.173 396 509.239 481 c 0
 530.921 583 464.297 613 408.297 613 c 0
 321.297 613 319.172 603 312.157 570 c 2
261.568 332 m 1
 211.83 98 l 2
 204.816 65 210.589 31 280.589 31 c 0
 432.589 31 473.556 92 489.072 165 c 0
 508.202 255 467.568 332 330.568 332 c 2
 261.568 332 l 1
285.099 645 m 0
 328.099 645 375.524 647 410.524 647 c 0
 596.524 647 607.031 560 592.79 493 c 0
 581.248 438.7 525.444 387.4 469.945 362 c 1
 469.521 360 l 1
 551.206 335 606.516 280 586.11 184 c 0
 567.83 98 493.575 -2 294.575 -2 c 0
 205.575 -2 192 0 149 0 c 0
 98 0 67.7871 -1 18.5752 -2 c 1
 13.8506 4 18.3135 25 25.5889 31 c 1
 96.2266 34 114.29 39 131.932 122 c 2
 217.167 523 l 2
 234.81 606 218.872 611 149.51 614 c 1
 144.785 620 149.249 641 156.524 647 c 1
 206.312 646 235.099 645 285.099 645 c 0
EndSplineSet
LCarets2: 1 0 
Colour: ff00ff
EndChar

StartChar: uni1E03
Encoding: 7683 7683 132
Width: 493
VWidth: 999
Flags: HW
HStem: -12 21<89.25 98.75> -10 34<181.746 288.02> 395 44<193.784 307.52> 523 96<225.332 304.668> 678 20<130.465 147.5>
VStem: 78 75<47.054 370.44 384 639.899> 217 96<531.332 610.668> 365 85<133.468 325.831>
LayerCount: 2
Fore
SplineSet
341.008 574 m 0
 346.746 601 373.423 623 400.423 623 c 0
 427.423 623 444.746 601 439.008 574 c 0
 433.269 547 406.592 525 379.592 525 c 0
 352.592 525 335.269 547 341.008 574 c 0
251.158 363 m 0
 235.835 351.6 229.694 342 225.23 321 c 2
 172.092 71 l 1
 186.777 46 203.102 24 234.102 24 c 0
 329.102 24 393.381 110 417.612 224 c 0
 438.23 321 403.96 395 342.96 395 c 0
 313.96 395 282.047 386 251.158 363 c 0
250.747 394 m 0
 287.699 422 329.412 439 372.312 439 c 0
 459.312 439 533.371 364 507.438 242 c 0
 473.643 83 334.874 -10 232.874 -10 c 0
 197.574 -10 169.064 -4.40039 150.146 14.7998 c 0
 141.102 24 135.102 24 122.251 12 c 0
 112.659 3.09961 100.782 -6.2002 93.4492 -12 c 1
 81.4492 -12 77.2998 -8 74 0 c 1
 82.834 21.7998 84.8018 32 93.0918 71 c 2
 196.819 559 l 2
 214.674 643 201.611 638 150.249 641 c 1
 145.524 647 146.925 663 150.625 671 c 1
 191.263 674 269.239 688 296.364 698 c 1
 305.364 698 308.727 695 307.239 688 c 2
 307.239 688 294.736 648 280.921 583 c 2
 241.811 399 l 2
 239.897 390 243.235 388.3 250.747 394 c 0
EndSplineSet
LCarets2: 1 0 
Colour: ff00ff
EndChar

StartChar: uni1E04
Encoding: 7684 7684 133
Width: 588
VWidth: 999
Flags: HW
HStem: -163 96<230.332 309.668> -2 34<19 54 194.805 379.143> 332 34<187 348.649> 613 34<19 54 190.534 342.72>
VStem: 106 81<39.6512 332 366 608.096> 222 96<-154.668 -75.332> 405 77<424.289 559.02> 452 89<97.5427 249.544>
LayerCount: 2
Fore
SplineSet
182.527 -181 m 0
 188.267 -154 214.942 -132 241.942 -132 c 0
 268.942 -132 286.267 -154 280.527 -181 c 0
 274.788 -208 248.112 -230 221.112 -230 c 0
 194.112 -230 176.788 -208 182.527 -181 c 0
312.157 570 m 2
 268.796 366 l 1
 342.796 366 l 2
 425.796 366 491.173 396 509.239 481 c 0
 530.921 583 464.297 613 408.297 613 c 0
 321.297 613 319.172 603 312.157 570 c 2
261.568 332 m 1
 211.83 98 l 2
 204.816 65 210.589 31 280.589 31 c 0
 432.589 31 473.556 92 489.072 165 c 0
 508.202 255 467.568 332 330.568 332 c 2
 261.568 332 l 1
285.099 645 m 0
 328.099 645 375.524 647 410.524 647 c 0
 596.524 647 607.031 560 592.79 493 c 0
 581.248 438.7 525.444 387.4 469.945 362 c 1
 469.521 360 l 1
 551.206 335 606.516 280 586.11 184 c 0
 567.83 98 493.575 -2 294.575 -2 c 0
 205.575 -2 192 0 149 0 c 0
 98 0 67.7871 -1 18.5752 -2 c 1
 13.8506 4 18.3135 25 25.5889 31 c 1
 96.2266 34 114.29 39 131.932 122 c 2
 217.167 523 l 2
 234.81 606 218.872 611 149.51 614 c 1
 144.785 620 149.249 641 156.524 647 c 1
 206.312 646 235.099 645 285.099 645 c 0
EndSplineSet
LCarets2: 1 0 
Colour: ff00ff
EndChar

StartChar: uni1E05
Encoding: 7685 7685 134
Width: 493
VWidth: 999
Flags: HW
HStem: -163 96<185.332 264.668> -12 21<89.25 98.75> -10 34<181.746 288.02> 395 44<193.784 307.52> 678 20<130.465 147.5>
VStem: 78 75<47.054 370.44 384 639.899> 177 96<-154.668 -75.332> 365 85<133.468 325.831>
LayerCount: 2
Fore
SplineSet
137.527 -181 m 0
 143.267 -154 169.942 -132 196.942 -132 c 0
 223.942 -132 241.267 -154 235.527 -181 c 0
 229.788 -208 203.112 -230 176.112 -230 c 0
 149.112 -230 131.788 -208 137.527 -181 c 0
251.158 363 m 0
 235.835 351.6 229.694 342 225.23 321 c 2
 172.092 71 l 1
 186.777 46 203.102 24 234.102 24 c 0
 329.102 24 393.381 110 417.612 224 c 0
 438.23 321 403.96 395 342.96 395 c 0
 313.96 395 282.047 386 251.158 363 c 0
250.747 394 m 0
 287.699 422 329.412 439 372.312 439 c 0
 459.312 439 533.371 364 507.438 242 c 0
 473.643 83 334.874 -10 232.874 -10 c 0
 197.574 -10 169.064 -4.40039 150.146 14.7998 c 0
 141.102 24 135.102 24 122.251 12 c 0
 112.659 3.09961 100.782 -6.2002 93.4492 -12 c 1
 81.4492 -12 77.2998 -8 74 0 c 1
 82.834 21.7998 84.8018 32 93.0918 71 c 2
 196.819 559 l 2
 214.674 643 201.611 638 150.249 641 c 1
 145.524 647 146.925 663 150.625 671 c 1
 191.263 674 269.239 688 296.364 698 c 1
 305.364 698 308.727 695 307.239 688 c 2
 307.239 688 294.736 648 280.921 583 c 2
 241.811 399 l 2
 239.897 390 243.235 388.3 250.747 394 c 0
EndSplineSet
LCarets2: 1 0 
Colour: ff00ff
EndChar

StartChar: uni1E06
Encoding: 7686 7686 135
Width: 588
VWidth: 999
Flags: HW
HStem: -106 44<137 148 148 415> -2 34<19 54 194.805 379.143> 332 34<187 348.649> 613 34<19 54 190.534 342.72>
VStem: 106 81<39.6512 332 366 608.096> 405 77<424.289 559.02> 452 89<97.5427 249.544>
LayerCount: 2
Fore
SplineSet
345.155 -131 m 2
 140.155 -131 l 2
 132.155 -131 129.855 -123 131.344 -116 c 0
 133.895 -104 147.508 -87 159.508 -87 c 2
 364.508 -87 l 2
 373.508 -87 376.02 -94 374.532 -101 c 0
 371.981 -113 358.155 -131 345.155 -131 c 2
312.157 570 m 2
 268.796 366 l 1
 342.796 366 l 2
 425.796 366 491.173 396 509.239 481 c 0
 530.921 583 464.297 613 408.297 613 c 0
 321.297 613 319.172 603 312.157 570 c 2
261.568 332 m 1
 211.83 98 l 2
 204.816 65 210.589 31 280.589 31 c 0
 432.589 31 473.556 92 489.072 165 c 0
 508.202 255 467.568 332 330.568 332 c 2
 261.568 332 l 1
285.099 645 m 0
 328.099 645 375.524 647 410.524 647 c 0
 596.524 647 607.031 560 592.79 493 c 0
 581.248 438.7 525.444 387.4 469.945 362 c 1
 469.521 360 l 1
 551.206 335 606.516 280 586.11 184 c 0
 567.83 98 493.575 -2 294.575 -2 c 0
 205.575 -2 192 0 149 0 c 0
 98 0 67.7871 -1 18.5752 -2 c 1
 13.8506 4 18.3135 25 25.5889 31 c 1
 96.2266 34 114.29 39 131.932 122 c 2
 217.167 523 l 2
 234.81 606 218.872 611 149.51 614 c 1
 144.785 620 149.249 641 156.524 647 c 1
 206.312 646 235.099 645 285.099 645 c 0
EndSplineSet
LCarets2: 1 0 
Colour: ff00ff
EndChar

StartChar: uni1E07
Encoding: 7687 7687 136
Width: 493
VWidth: 999
Flags: HW
HStem: -110 44<107 118 118 385> -12 21<89.25 98.75> -10 34<181.746 288.02> 395 44<193.784 307.52> 678 20<130.465 147.5>
VStem: 78 75<47.054 370.44 384 639.899> 365 85<133.468 325.831>
LayerCount: 2
Fore
SplineSet
315.155 -131 m 2
 110.155 -131 l 2
 102.155 -131 99.8555 -123 101.344 -116 c 0
 103.895 -104 117.508 -87 129.508 -87 c 2
 334.508 -87 l 2
 343.508 -87 346.02 -94 344.532 -101 c 0
 341.981 -113 328.155 -131 315.155 -131 c 2
251.158 363 m 0
 235.835 351.6 229.694 342 225.23 321 c 2
 172.092 71 l 1
 186.777 46 203.102 24 234.102 24 c 0
 329.102 24 393.381 110 417.612 224 c 0
 438.23 321 403.96 395 342.96 395 c 0
 313.96 395 282.047 386 251.158 363 c 0
250.747 394 m 0
 287.699 422 329.412 439 372.312 439 c 0
 459.312 439 533.371 364 507.438 242 c 0
 473.643 83 334.874 -10 232.874 -10 c 0
 197.574 -10 169.064 -4.40039 150.146 14.7998 c 0
 141.102 24 135.102 24 122.251 12 c 0
 112.659 3.09961 100.782 -6.2002 93.4492 -12 c 1
 81.4492 -12 77.2998 -8 74 0 c 1
 82.834 21.7998 84.8018 32 93.0918 71 c 2
 196.819 559 l 2
 214.674 643 201.611 638 150.249 641 c 1
 145.524 647 146.925 663 150.625 671 c 1
 191.263 674 269.239 688 296.364 698 c 1
 305.364 698 308.727 695 307.239 688 c 2
 307.239 688 294.736 648 280.921 583 c 2
 241.811 399 l 2
 239.897 390 243.235 388.3 250.747 394 c 0
EndSplineSet
LCarets2: 1 0 
Colour: ff00ff
EndChar

StartChar: uni1E08
Encoding: 7688 7688 137
Width: 646
VWidth: 999
Flags: HW
HStem: -200 29<290.047 390.231> -96 32<365.31 395.355> -12 42<270 460> 621 37<278 443> 697 122
VStem: 37 87<204 436> 269 201 400 62<-165.259 -97.4563>
DStem2: 316 -96 365 -67 0.384615 0.923077<45.6154 104>
LayerCount: 2
Fore
SplineSet
582.084 819 m 1
 607.856 805.7 624.858 788.3 633.031 767 c 1
 476.702 709 l 2
 453.79 700 441.152 697 432.152 697 c 0
 423.152 697 418.64 704 420.34 712 c 0
 421.828 719 424.891 724 439.804 733 c 2
 582.084 819 l 1
346.595 -96 m 0
 327.595 -96 317.382 -97 300.319 -102 c 1
 295.595 -96 l 1
 349.675 -10 l 1
 138.728 -7.40039 70.0098 155.3 103.955 315 c 0
 126.125 419.3 185.472 512.2 264.795 573 c 0
 335.273 627 412.862 658 497.862 658 c 0
 620.862 658 657.36 618 707.297 613 c 1
 704.606 558 702.404 510 696.351 458 c 1
 683.775 452 673.438 449 662.288 453 c 1
 654.568 539 616.998 621 478.998 621 c 0
 426.998 621 363.046 593 300.48 532 c 0
 254.437 487.1 217.338 420.3 198.994 334 c 0
 167.961 188 207.589 31 362.589 31 c 0
 455.589 31 530.179 62 617.758 140 c 1
 628.758 140 634.482 134 637.569 125 c 1
 559.607 45.2002 472.2 0 384.993 -8.5 c 1
 350.759 -67 l 1
 359.184 -65 368.396 -64 377.396 -64 c 0
 417.396 -64 443.295 -88 435.218 -126 c 0
 426.078 -169 373.488 -200 312.488 -200 c 0
 280.488 -200 264.764 -194 242.103 -183 c 1
 244.652 -171 249.141 -164 257.629 -157 c 1
 282.503 -167 292.652 -171 312.652 -171 c 0
 342.652 -171 366.629 -157 372.155 -131 c 0
 376.619 -110 369.595 -96 346.595 -96 c 0
EndSplineSet
LCarets2: 1 0 
Colour: ff00ff
EndChar

StartChar: uni1E09
Encoding: 7689 7689 138
Width: 417
VWidth: 999
Flags: HW
HStem: -200 29<151.047 251.231> -96 32<226.31 256.355> -10 44<191.859 321.109> 405 34<184.96 286.704>
VStem: 37 85<118.042 314.991> 261 62<-165.259 -97.4563> 310 83<300.625 386.29>
DStem2: 177 -96 226 -67 0.384615 0.923077<45.6154 104>
LayerCount: 2
Fore
SplineSet
428.625 671 m 1
 431.838 672 438.051 673 443.051 673 c 0
 449.45 673 474.838 672 493.162 650 c 1
 493.823 639 l 1
 355.655 530 l 2
 337.467 515 328.616 511 321.616 511 c 0
 314.616 511 308.892 517 310.38 524 c 0
 312.761 535.2 316.91 539.2 327.731 552 c 2
 428.625 671 l 1
207.595 -96 m 0
 188.595 -96 178.382 -97 161.319 -102 c 1
 156.595 -96 l 1
 211.266 -9.09961 l 1
 100.827 0.599609 55.4072 86.5996 81.2119 208 c 0
 111.395 350 231.312 439 339.312 439 c 0
 435.312 439 483.811 399 472.119 344 c 0
 465.53 313 434.767 300 413.767 300 c 0
 392.767 300 380.78 309 383.419 336 c 0
 386.858 371 386.298 406 327.298 406 c 0
 261.298 406 195.27 340 171.888 230 c 0
 147.019 113 188.29 39 265.29 39 c 0
 308.29 39 355.966 61 399.318 105 c 1
 408.105 104 415.256 100 417.343 91 c 1
 354.625 14.7002 300.891 -7.09961 245.338 -9.7002 c 1
 211.759 -67 l 1
 220.184 -65 229.396 -64 238.396 -64 c 0
 278.396 -64 304.295 -88 296.218 -126 c 0
 287.078 -169 234.488 -200 173.488 -200 c 0
 141.488 -200 125.764 -194 103.103 -183 c 1
 105.652 -171 110.141 -164 118.629 -157 c 1
 143.503 -167 153.652 -171 173.652 -171 c 0
 203.652 -171 227.629 -157 233.155 -131 c 0
 237.619 -110 230.595 -96 207.595 -96 c 0
EndSplineSet
LCarets2: 1 0 
Colour: ff00ff
EndChar

StartChar: uni1E0A
Encoding: 7690 7690 139
Width: 701
VWidth: 999
Flags: HW
HStem: -2 34<19 54 193.238 414.496> 613 34<19 54 194.838 370.214> 697 96<256.332 335.668>
VStem: 106 81<39.3746 605.565> 248 96<705.332 784.668> 562 92<179.249 418.917>
LayerCount: 2
Fore
SplineSet
404.268 754 m 0
 410.219 782 439.32 806 467.32 806 c 0
 495.32 806 514.219 782 508.268 754 c 0
 502.316 726 473.215 702 445.215 702 c 0
 417.215 702 398.316 726 404.268 754 c 0
208.643 83 m 2
 201.841 51 208.802 32 306.802 32 c 0
 447.802 32 579.43 82 622.366 284 c 0
 655.1 438 621.297 613 405.297 613 c 0
 356.297 613 318.321 599 310.882 564 c 2
 208.643 83 l 2
285.099 645 m 0
 324.099 645 386.524 647 450.524 647 c 0
 642.524 647 763.003 494 723.468 308 c 0
 671.179 62 471.575 -2 330.575 -2 c 0
 227.575 -2 186 0 149 0 c 0
 98 0 67.7871 -1 18.5752 -2 c 1
 13.8506 4 18.3135 25 25.5889 31 c 1
 96.2266 34 114.29 39 131.932 122 c 2
 217.167 523 l 2
 234.81 606 218.872 611 149.51 614 c 1
 144.785 620 149.249 641 156.524 647 c 1
 206.312 646 235.099 645 285.099 645 c 0
EndSplineSet
LCarets2: 1 0 
Colour: ff00ff
EndChar

StartChar: uni1E0B
Encoding: 7691 7691 140
Width: 505
VWidth: 999
Flags: HW
HStem: -10 47<180.902 274.468> 404 35<185.076 305.022> 523 96<141.332 220.668> 678 20<395.466 412.5>
VStem: 39 85<106.314 313> 133 96<531.332 610.668> 343 75<78.2465 372.939 417 639.899>
LayerCount: 2
Fore
SplineSet
251.008 574 m 0
 256.746 601 283.423 623 310.423 623 c 0
 337.423 623 354.746 601 349.008 574 c 0
 343.269 547 316.592 525 289.592 525 c 0
 262.592 525 245.269 547 251.008 574 c 0
371.357 124 m 2
 411.743 314 l 2
 418.332 345 416.82 352 406.221 368 c 0
 391.109 391 368.873 404 332.873 404 c 0
 312.873 404 270.235 401 229.245 354 c 0
 209.781 333 187.279 293 171.975 221 c 0
 145.405 96 188.864 37 242.864 37 c 0
 267.864 37 303.266 53 347.067 85 c 0
 363.761 97.2002 367.318 105 371.357 124 c 2
344.691 50.2998 m 0
 286.989 10.2998 245.874 -10 206.874 -10 c 0
 98.874 -10 56.0049 80 82.1494 203 c 0
 97.8779 277 136.419 336 188.559 379 c 1
 236.636 417 285.312 439 351.312 439 c 0
 384.312 439 421.699 422 425.699 422 c 0
 432.699 422 435.124 424 436.612 431 c 2
 463.819 559 l 2
 481.674 643 468.611 638 417.249 641 c 1
 412.524 647 413.925 663 417.625 671 c 1
 458.263 674 535.239 688 562.364 698 c 1
 571.364 698 574.727 695 573.239 688 c 2
 573.239 688 560.736 648 546.921 583 c 2
 450.633 130 l 2
 440.217 81 445.179 62 508.115 57 c 1
 512.841 51 509.652 36 502.377 30 c 1
 439.889 23 391.7 8 365.874 -10 c 1
 357.449 -12 350.236 -13 342.874 -10 c 1
 342.874 -10 354.29 39 356.415 49 c 0
 357.903 56 350.32 54.2002 344.691 50.2998 c 0
EndSplineSet
LCarets2: 1 0 
Colour: ff00ff
EndChar

StartChar: uni1E0C
Encoding: 7692 7692 141
Width: 701
VWidth: 999
Flags: HW
HStem: -163 96<250.332 329.668> -2 34<19 54 193.238 414.496> 613 34<19 54 194.838 370.214>
VStem: 106 81<39.3746 605.565> 242 96<-154.668 -75.332> 562 92<179.249 418.917>
LayerCount: 2
Fore
SplineSet
202.527 -181 m 0
 208.267 -154 234.942 -132 261.942 -132 c 0
 288.942 -132 306.267 -154 300.527 -181 c 0
 294.788 -208 268.112 -230 241.112 -230 c 0
 214.112 -230 196.788 -208 202.527 -181 c 0
208.643 83 m 2
 201.841 51 208.802 32 306.802 32 c 0
 447.802 32 579.43 82 622.366 284 c 0
 655.1 438 621.297 613 405.297 613 c 0
 356.297 613 318.321 599 310.882 564 c 2
 208.643 83 l 2
285.099 645 m 0
 324.099 645 386.524 647 450.524 647 c 0
 642.524 647 763.003 494 723.468 308 c 0
 671.179 62 471.575 -2 330.575 -2 c 0
 227.575 -2 186 0 149 0 c 0
 98 0 67.7871 -1 18.5752 -2 c 1
 13.8506 4 18.3135 25 25.5889 31 c 1
 96.2266 34 114.29 39 131.932 122 c 2
 217.167 523 l 2
 234.81 606 218.872 611 149.51 614 c 1
 144.785 620 149.249 641 156.524 647 c 1
 206.312 646 235.099 645 285.099 645 c 0
EndSplineSet
LCarets2: 1 0 
Colour: ff00ff
EndChar

StartChar: uni1E0D
Encoding: 7693 7693 142
Width: 505
VWidth: 999
Flags: HW
HStem: -163 96<195.332 274.668> -10 47<180.902 274.468> 404 35<185.076 305.022> 678 20<395.466 412.5>
VStem: 39 85<106.314 313> 187 96<-154.668 -75.332> 343 75<78.2465 372.939 417 639.899>
LayerCount: 2
Fore
SplineSet
147.527 -181 m 0
 153.267 -154 179.942 -132 206.942 -132 c 0
 233.942 -132 251.267 -154 245.527 -181 c 0
 239.788 -208 213.112 -230 186.112 -230 c 0
 159.112 -230 141.788 -208 147.527 -181 c 0
371.357 124 m 2
 411.743 314 l 2
 418.332 345 416.82 352 406.221 368 c 0
 391.109 391 368.873 404 332.873 404 c 0
 312.873 404 270.235 401 229.245 354 c 0
 209.781 333 187.279 293 171.975 221 c 0
 145.405 96 188.864 37 242.864 37 c 0
 267.864 37 303.266 53 347.067 85 c 0
 363.761 97.2002 367.318 105 371.357 124 c 2
344.691 50.2998 m 0
 286.989 10.2998 245.874 -10 206.874 -10 c 0
 98.874 -10 56.0049 80 82.1494 203 c 0
 97.8779 277 136.419 336 188.559 379 c 1
 236.636 417 285.312 439 351.312 439 c 0
 384.312 439 421.699 422 425.699 422 c 0
 432.699 422 435.124 424 436.612 431 c 2
 463.819 559 l 2
 481.674 643 468.611 638 417.249 641 c 1
 412.524 647 413.925 663 417.625 671 c 1
 458.263 674 535.239 688 562.364 698 c 1
 571.364 698 574.727 695 573.239 688 c 2
 573.239 688 560.736 648 546.921 583 c 2
 450.633 130 l 2
 440.217 81 445.179 62 508.115 57 c 1
 512.841 51 509.652 36 502.377 30 c 1
 439.889 23 391.7 8 365.874 -10 c 1
 357.449 -12 350.236 -13 342.874 -10 c 1
 342.874 -10 354.29 39 356.415 49 c 0
 357.903 56 350.32 54.2002 344.691 50.2998 c 0
EndSplineSet
LCarets2: 1 0 
Colour: ff00ff
EndChar

StartChar: uni1E0E
Encoding: 7694 7694 143
Width: 701
VWidth: 999
Flags: HW
HStem: -105 44<144 155 155 422> -2 34<19 54 193.238 414.496> 613 34<19 54 194.838 370.214>
VStem: 106 81<39.3746 605.565> 562 92<179.249 418.917>
LayerCount: 2
Fore
SplineSet
352.155 -131 m 2
 147.155 -131 l 2
 139.155 -131 136.855 -123 138.344 -116 c 0
 140.895 -104 154.508 -87 166.508 -87 c 2
 371.508 -87 l 2
 380.508 -87 383.02 -94 381.532 -101 c 0
 378.981 -113 365.155 -131 352.155 -131 c 2
208.643 83 m 2
 201.841 51 208.802 32 306.802 32 c 0
 447.802 32 579.43 82 622.366 284 c 0
 655.1 438 621.297 613 405.297 613 c 0
 356.297 613 318.321 599 310.882 564 c 2
 208.643 83 l 2
285.099 645 m 0
 324.099 645 386.524 647 450.524 647 c 0
 642.524 647 763.003 494 723.468 308 c 0
 671.179 62 471.575 -2 330.575 -2 c 0
 227.575 -2 186 0 149 0 c 0
 98 0 67.7871 -1 18.5752 -2 c 1
 13.8506 4 18.3135 25 25.5889 31 c 1
 96.2266 34 114.29 39 131.932 122 c 2
 217.167 523 l 2
 234.81 606 218.872 611 149.51 614 c 1
 144.785 620 149.249 641 156.524 647 c 1
 206.312 646 235.099 645 285.099 645 c 0
EndSplineSet
LCarets2: 1 0 
Colour: ff00ff
EndChar

StartChar: uni1E0F
Encoding: 7695 7695 144
Width: 505
VWidth: 999
Flags: HW
HStem: -109 44<95 106 106 373> -10 47<180.902 274.468> 404 35<185.076 305.022> 678 20<395.466 412.5>
VStem: 39 85<106.314 313> 343 75<78.2465 372.939 417 639.899>
LayerCount: 2
Fore
SplineSet
303.155 -131 m 2
 98.1553 -131 l 2
 90.1553 -131 87.8555 -123 89.3438 -116 c 0
 91.8945 -104 105.508 -87 117.508 -87 c 2
 322.508 -87 l 2
 331.508 -87 334.02 -94 332.532 -101 c 0
 329.981 -113 316.155 -131 303.155 -131 c 2
371.357 124 m 2
 411.743 314 l 2
 418.332 345 416.82 352 406.221 368 c 0
 391.109 391 368.873 404 332.873 404 c 0
 312.873 404 270.235 401 229.245 354 c 0
 209.781 333 187.279 293 171.975 221 c 0
 145.405 96 188.864 37 242.864 37 c 0
 267.864 37 303.266 53 347.067 85 c 0
 363.761 97.2002 367.318 105 371.357 124 c 2
344.691 50.2998 m 0
 286.989 10.2998 245.874 -10 206.874 -10 c 0
 98.874 -10 56.0049 80 82.1494 203 c 0
 97.8779 277 136.419 336 188.559 379 c 1
 236.636 417 285.312 439 351.312 439 c 0
 384.312 439 421.699 422 425.699 422 c 0
 432.699 422 435.124 424 436.612 431 c 2
 463.819 559 l 2
 481.674 643 468.611 638 417.249 641 c 1
 412.524 647 413.925 663 417.625 671 c 1
 458.263 674 535.239 688 562.364 698 c 1
 571.364 698 574.727 695 573.239 688 c 2
 573.239 688 560.736 648 546.921 583 c 2
 450.633 130 l 2
 440.217 81 445.179 62 508.115 57 c 1
 512.841 51 509.652 36 502.377 30 c 1
 439.889 23 391.7 8 365.874 -10 c 1
 357.449 -12 350.236 -13 342.874 -10 c 1
 342.874 -10 354.29 39 356.415 49 c 0
 357.903 56 350.32 54.2002 344.691 50.2998 c 0
EndSplineSet
LCarets2: 1 0 
Colour: ff00ff
EndChar

StartChar: uni1E10
Encoding: 7696 7696 145
Width: 701
VWidth: 999
Flags: HW
HStem: -200 29<107.047 207.231> -96 32<182.31 212.355> -2 34<19 54 193.238 414.496> 613 34<19 54 194.838 370.214>
VStem: 106 81<39.3746 605.565> 217 62<-165.259 -97.4563> 562 92<179.249 418.917>
DStem2: 133 -96 182 -67 0.384615 0.923077<45.6154 104>
LayerCount: 2
Fore
SplineSet
163.595 -96 m 0
 144.595 -96 134.382 -97 117.319 -102 c 1
 112.595 -96 l 1
 172.857 -0.200195 l 1
 164.379 -0.0996094 156.6 0 149 0 c 0
 98 0 67.7871 -1 18.5752 -2 c 1
 13.8506 4 18.3135 25 25.5889 31 c 1
 96.2266 34 114.29 39 131.932 122 c 2
 217.167 523 l 2
 234.81 606 218.872 611 149.51 614 c 1
 144.785 620 149.249 641 156.524 647 c 1
 206.312 646 235.099 645 285.099 645 c 0
 324.099 645 386.524 647 450.524 647 c 0
 642.524 647 763.003 494 723.468 308 c 0
 671.179 62 471.575 -2 330.575 -2 c 0
 273.675 -2 235.523 -1.2998 206.53 -0.799805 c 1
 167.759 -67 l 1
 176.184 -65 185.396 -64 194.396 -64 c 0
 234.396 -64 260.295 -88 252.218 -126 c 0
 243.078 -169 190.488 -200 129.488 -200 c 0
 97.4883 -200 81.7637 -194 59.1025 -183 c 1
 61.6523 -171 66.1406 -164 74.6289 -157 c 1
 99.5029 -167 109.652 -171 129.652 -171 c 0
 159.652 -171 183.629 -157 189.155 -131 c 0
 193.619 -110 186.595 -96 163.595 -96 c 0
208.643 83 m 2
 201.841 51 208.802 32 306.802 32 c 0
 447.802 32 579.43 82 622.366 284 c 0
 655.1 438 621.297 613 405.297 613 c 0
 356.297 613 318.321 599 310.882 564 c 2
 208.643 83 l 2
EndSplineSet
LCarets2: 1 0 
Colour: ff00ff
EndChar

StartChar: uni1E11
Encoding: 7697 7697 146
Width: 505
VWidth: 999
Flags: HW
HStem: -200 29<135.047 235.231> -96 32<210.31 240.355> -10 47<180.902 274.468> 404 35<185.076 305.022> 678 20<395.466 412.5>
VStem: 39 85<106.314 313> 245 62<-165.259 -97.4563> 343 75<78.2465 372.939 417 639.899>
DStem2: 161 -96 210 -67 0.384615 0.923077<45.6154 104>
LayerCount: 2
Fore
SplineSet
191.595 -96 m 0
 172.595 -96 162.382 -97 145.319 -102 c 1
 140.595 -96 l 1
 194.959 -9.59961 l 1
 95.7197 -3.2002 56.9824 84.5996 82.1494 203 c 0
 97.8779 277 136.419 336 188.559 379 c 1
 236.636 417 285.312 439 351.312 439 c 0
 384.312 439 421.699 422 425.699 422 c 0
 432.699 422 435.124 424 436.612 431 c 2
 463.819 559 l 2
 481.674 643 468.611 638 417.249 641 c 1
 412.524 647 413.925 663 417.625 671 c 1
 458.263 674 535.239 688 562.364 698 c 1
 571.364 698 574.727 695 573.239 688 c 2
 573.239 688 560.736 648 546.921 583 c 2
 450.633 130 l 2
 440.217 81 445.179 62 508.115 57 c 1
 512.841 51 509.652 36 502.377 30 c 1
 439.889 23 391.7 8 365.874 -10 c 1
 357.449 -12 350.236 -13 342.874 -10 c 1
 342.874 -10 354.29 39 356.415 49 c 0
 357.903 56 350.32 54.2002 344.691 50.2998 c 0
 298.49 18.2998 262.945 -1.2002 230.585 -7.59961 c 1
 195.759 -67 l 1
 204.184 -65 213.396 -64 222.396 -64 c 0
 262.396 -64 288.295 -88 280.218 -126 c 0
 271.078 -169 218.488 -200 157.488 -200 c 0
 125.488 -200 109.764 -194 87.1025 -183 c 1
 89.6523 -171 94.1406 -164 102.629 -157 c 1
 127.503 -167 137.652 -171 157.652 -171 c 0
 187.652 -171 211.629 -157 217.155 -131 c 0
 221.619 -110 214.595 -96 191.595 -96 c 0
371.357 124 m 2
 411.743 314 l 2
 418.332 345 416.82 352 406.221 368 c 0
 391.109 391 368.873 404 332.873 404 c 0
 312.873 404 270.235 401 229.245 354 c 0
 209.781 333 187.279 293 171.975 221 c 0
 145.405 96 188.864 37 242.864 37 c 0
 267.864 37 303.266 53 347.067 85 c 0
 363.761 97.2002 367.318 105 371.357 124 c 2
EndSplineSet
LCarets2: 1 0 
Colour: ff00ff
EndChar

